%TF.GenerationSoftware,KiCad,Pcbnew,(6.0.1)*%
%TF.CreationDate,2022-02-23T18:42:09-08:00*%
%TF.ProjectId,Ramen Pad,52616d65-6e20-4506-9164-2e6b69636164,v1.0.0*%
%TF.SameCoordinates,Original*%
%TF.FileFunction,Profile,NP*%
%FSLAX46Y46*%
G04 Gerber Fmt 4.6, Leading zero omitted, Abs format (unit mm)*
G04 Created by KiCad (PCBNEW (6.0.1)) date 2022-02-23 18:42:09*
%MOMM*%
%LPD*%
G01*
G04 APERTURE LIST*
%TA.AperFunction,Profile*%
%ADD10C,0.200000*%
%TD*%
%TA.AperFunction,Profile*%
%ADD11C,0.120000*%
%TD*%
G04 APERTURE END LIST*
D10*
X150018750Y-145256250D02*
X230981250Y-145256250D01*
X230981250Y-21431250D02*
X150018750Y-21431250D01*
X233362500Y-23812500D02*
G75*
G03*
X230981250Y-21431250I-2381250J0D01*
G01*
X147637500Y-142875000D02*
G75*
G03*
X150018750Y-145256250I2381250J0D01*
G01*
X233362500Y-142875000D02*
X233362500Y-23812500D01*
X147637500Y-23812500D02*
X147637500Y-142875000D01*
X230981250Y-145256250D02*
G75*
G03*
X233362500Y-142875000I0J2381250D01*
G01*
X150018750Y-21431250D02*
G75*
G03*
X147637500Y-23812500I0J-2381250D01*
G01*
D11*
%TO.C,LED12*%
X201725000Y-86606200D02*
X198325000Y-86606200D01*
X201725000Y-89606200D02*
X201725000Y-86606200D01*
X198325000Y-89606200D02*
X201725000Y-89606200D01*
X198325000Y-86606200D02*
X198325000Y-89606200D01*
%TO.C,LED3*%
X163625000Y-86606200D02*
X160225000Y-86606200D01*
X163625000Y-89606200D02*
X163625000Y-86606200D01*
X160225000Y-86606200D02*
X160225000Y-89606200D01*
X160225000Y-89606200D02*
X163625000Y-89606200D01*
%TO.C,LED15*%
X217375000Y-48506200D02*
X217375000Y-51506200D01*
X220775000Y-48506200D02*
X217375000Y-48506200D01*
X217375000Y-51506200D02*
X220775000Y-51506200D01*
X220775000Y-51506200D02*
X220775000Y-48506200D01*
%TO.C,LED2*%
X163625000Y-67556200D02*
X160225000Y-67556200D01*
X160225000Y-70556200D02*
X163625000Y-70556200D01*
X160225000Y-67556200D02*
X160225000Y-70556200D01*
X163625000Y-70556200D02*
X163625000Y-67556200D01*
%TO.C,LED13*%
X198325000Y-108656200D02*
X201725000Y-108656200D01*
X201725000Y-105656200D02*
X198325000Y-105656200D01*
X198325000Y-105656200D02*
X198325000Y-108656200D01*
X201725000Y-108656200D02*
X201725000Y-105656200D01*
%TO.C,LED4*%
X163625000Y-108656200D02*
X163625000Y-105656200D01*
X160225000Y-105656200D02*
X160225000Y-108656200D01*
X160225000Y-108656200D02*
X163625000Y-108656200D01*
X163625000Y-105656200D02*
X160225000Y-105656200D01*
%TO.C,LED5*%
X173150000Y-127706200D02*
X173150000Y-124706200D01*
X169750000Y-127706200D02*
X173150000Y-127706200D01*
X173150000Y-124706200D02*
X169750000Y-124706200D01*
X169750000Y-124706200D02*
X169750000Y-127706200D01*
%TO.C,LED11*%
X201725000Y-67556200D02*
X198325000Y-67556200D01*
X198325000Y-70556200D02*
X201725000Y-70556200D01*
X201725000Y-70556200D02*
X201725000Y-67556200D01*
X198325000Y-67556200D02*
X198325000Y-70556200D01*
%TO.C,LED17*%
X217375000Y-118181200D02*
X220775000Y-118181200D01*
X217375000Y-115181200D02*
X217375000Y-118181200D01*
X220775000Y-115181200D02*
X217375000Y-115181200D01*
X220775000Y-118181200D02*
X220775000Y-115181200D01*
%TO.C,LED16*%
X220775000Y-80081200D02*
X220775000Y-77081200D01*
X217375000Y-80081200D02*
X220775000Y-80081200D01*
X217375000Y-77081200D02*
X217375000Y-80081200D01*
X220775000Y-77081200D02*
X217375000Y-77081200D01*
%TO.C,LED14*%
X201725000Y-124706200D02*
X198325000Y-124706200D01*
X201725000Y-127706200D02*
X201725000Y-124706200D01*
X198325000Y-127706200D02*
X201725000Y-127706200D01*
X198325000Y-124706200D02*
X198325000Y-127706200D01*
%TO.C,LED9*%
X179275000Y-108656200D02*
X182675000Y-108656200D01*
X182675000Y-108656200D02*
X182675000Y-105656200D01*
X182675000Y-105656200D02*
X179275000Y-105656200D01*
X179275000Y-105656200D02*
X179275000Y-108656200D01*
%TO.C,LED1*%
X163625000Y-51506200D02*
X163625000Y-48506200D01*
X160225000Y-48506200D02*
X160225000Y-51506200D01*
X160225000Y-51506200D02*
X163625000Y-51506200D01*
X163625000Y-48506200D02*
X160225000Y-48506200D01*
%TO.C,LED8*%
X179275000Y-89606200D02*
X182675000Y-89606200D01*
X182675000Y-86606200D02*
X179275000Y-86606200D01*
X182675000Y-89606200D02*
X182675000Y-86606200D01*
X179275000Y-86606200D02*
X179275000Y-89606200D01*
%TO.C,LED10*%
X198325000Y-51506200D02*
X201725000Y-51506200D01*
X201725000Y-51506200D02*
X201725000Y-48506200D01*
X198325000Y-48506200D02*
X198325000Y-51506200D01*
X201725000Y-48506200D02*
X198325000Y-48506200D01*
%TO.C,LED7*%
X179275000Y-70556200D02*
X182675000Y-70556200D01*
X179275000Y-67556200D02*
X179275000Y-70556200D01*
X182675000Y-70556200D02*
X182675000Y-67556200D01*
X182675000Y-67556200D02*
X179275000Y-67556200D01*
%TO.C,LED6*%
X182675000Y-48506200D02*
X179275000Y-48506200D01*
X179275000Y-51506200D02*
X182675000Y-51506200D01*
X182675000Y-51506200D02*
X182675000Y-48506200D01*
X179275000Y-48506200D02*
X179275000Y-51506200D01*
%TD*%
M02*
