%TF.GenerationSoftware,KiCad,Pcbnew,(6.0.1)*%
%TF.CreationDate,2022-02-23T18:42:09-08:00*%
%TF.ProjectId,Ramen Pad,52616d65-6e20-4506-9164-2e6b69636164,v1.0.0*%
%TF.SameCoordinates,Original*%
%TF.FileFunction,Soldermask,Top*%
%TF.FilePolarity,Negative*%
%FSLAX46Y46*%
G04 Gerber Fmt 4.6, Leading zero omitted, Abs format (unit mm)*
G04 Created by KiCad (PCBNEW (6.0.1)) date 2022-02-23 18:42:09*
%MOMM*%
%LPD*%
G01*
G04 APERTURE LIST*
G04 Aperture macros list*
%AMRoundRect*
0 Rectangle with rounded corners*
0 $1 Rounding radius*
0 $2 $3 $4 $5 $6 $7 $8 $9 X,Y pos of 4 corners*
0 Add a 4 corners polygon primitive as box body*
4,1,4,$2,$3,$4,$5,$6,$7,$8,$9,$2,$3,0*
0 Add four circle primitives for the rounded corners*
1,1,$1+$1,$2,$3*
1,1,$1+$1,$4,$5*
1,1,$1+$1,$6,$7*
1,1,$1+$1,$8,$9*
0 Add four rect primitives between the rounded corners*
20,1,$1+$1,$2,$3,$4,$5,0*
20,1,$1+$1,$4,$5,$6,$7,0*
20,1,$1+$1,$6,$7,$8,$9,0*
20,1,$1+$1,$8,$9,$2,$3,0*%
%AMRotRect*
0 Rectangle, with rotation*
0 The origin of the aperture is its center*
0 $1 length*
0 $2 width*
0 $3 Rotation angle, in degrees counterclockwise*
0 Add horizontal line*
21,1,$1,$2,0,0,$3*%
G04 Aperture macros list end*
%ADD10C,0.300000*%
%ADD11C,3.000000*%
%ADD12C,3.987800*%
%ADD13C,0.650000*%
%ADD14R,0.600000X1.150000*%
%ADD15R,0.300000X1.150000*%
%ADD16O,1.050000X2.100000*%
%ADD17O,1.000000X2.000000*%
%ADD18RoundRect,0.250000X-0.450000X0.350000X-0.450000X-0.350000X0.450000X-0.350000X0.450000X0.350000X0*%
%ADD19C,3.800000*%
%ADD20RotRect,1.200000X1.400000X315.000000*%
%ADD21R,0.550000X1.500000*%
%ADD22R,1.500000X0.550000*%
%ADD23RoundRect,0.250000X0.337500X0.475000X-0.337500X0.475000X-0.337500X-0.475000X0.337500X-0.475000X0*%
%ADD24R,1.600000X1.600000*%
%ADD25C,1.600000*%
%ADD26R,0.850000X0.850000*%
%ADD27O,0.850000X0.850000*%
G04 APERTURE END LIST*
D10*
%TO.C,Ramen Pad*%
X213502285Y-101689428D02*
X212994285Y-100963714D01*
X212631428Y-101689428D02*
X212631428Y-100165428D01*
X213212000Y-100165428D01*
X213357142Y-100238000D01*
X213429714Y-100310571D01*
X213502285Y-100455714D01*
X213502285Y-100673428D01*
X213429714Y-100818571D01*
X213357142Y-100891142D01*
X213212000Y-100963714D01*
X212631428Y-100963714D01*
X214808571Y-101689428D02*
X214808571Y-100891142D01*
X214736000Y-100746000D01*
X214590857Y-100673428D01*
X214300571Y-100673428D01*
X214155428Y-100746000D01*
X214808571Y-101616857D02*
X214663428Y-101689428D01*
X214300571Y-101689428D01*
X214155428Y-101616857D01*
X214082857Y-101471714D01*
X214082857Y-101326571D01*
X214155428Y-101181428D01*
X214300571Y-101108857D01*
X214663428Y-101108857D01*
X214808571Y-101036285D01*
X215534285Y-101689428D02*
X215534285Y-100673428D01*
X215534285Y-100818571D02*
X215606857Y-100746000D01*
X215752000Y-100673428D01*
X215969714Y-100673428D01*
X216114857Y-100746000D01*
X216187428Y-100891142D01*
X216187428Y-101689428D01*
X216187428Y-100891142D02*
X216260000Y-100746000D01*
X216405142Y-100673428D01*
X216622857Y-100673428D01*
X216768000Y-100746000D01*
X216840571Y-100891142D01*
X216840571Y-101689428D01*
X218146857Y-101616857D02*
X218001714Y-101689428D01*
X217711428Y-101689428D01*
X217566285Y-101616857D01*
X217493714Y-101471714D01*
X217493714Y-100891142D01*
X217566285Y-100746000D01*
X217711428Y-100673428D01*
X218001714Y-100673428D01*
X218146857Y-100746000D01*
X218219428Y-100891142D01*
X218219428Y-101036285D01*
X217493714Y-101181428D01*
X218872571Y-100673428D02*
X218872571Y-101689428D01*
X218872571Y-100818571D02*
X218945142Y-100746000D01*
X219090285Y-100673428D01*
X219308000Y-100673428D01*
X219453142Y-100746000D01*
X219525714Y-100891142D01*
X219525714Y-101689428D01*
X221412571Y-101689428D02*
X221412571Y-100165428D01*
X221993142Y-100165428D01*
X222138285Y-100238000D01*
X222210857Y-100310571D01*
X222283428Y-100455714D01*
X222283428Y-100673428D01*
X222210857Y-100818571D01*
X222138285Y-100891142D01*
X221993142Y-100963714D01*
X221412571Y-100963714D01*
X223589714Y-101689428D02*
X223589714Y-100891142D01*
X223517142Y-100746000D01*
X223372000Y-100673428D01*
X223081714Y-100673428D01*
X222936571Y-100746000D01*
X223589714Y-101616857D02*
X223444571Y-101689428D01*
X223081714Y-101689428D01*
X222936571Y-101616857D01*
X222864000Y-101471714D01*
X222864000Y-101326571D01*
X222936571Y-101181428D01*
X223081714Y-101108857D01*
X223444571Y-101108857D01*
X223589714Y-101036285D01*
X224968571Y-101689428D02*
X224968571Y-100165428D01*
X224968571Y-101616857D02*
X224823428Y-101689428D01*
X224533142Y-101689428D01*
X224388000Y-101616857D01*
X224315428Y-101544285D01*
X224242857Y-101399142D01*
X224242857Y-100963714D01*
X224315428Y-100818571D01*
X224388000Y-100746000D01*
X224533142Y-100673428D01*
X224823428Y-100673428D01*
X224968571Y-100746000D01*
G36*
X218596940Y-102167242D02*
G01*
X218539109Y-102248867D01*
X218513604Y-102276403D01*
X218394758Y-102399021D01*
X218532456Y-102540804D01*
X218611778Y-102630125D01*
X218661545Y-102700872D01*
X218670154Y-102724175D01*
X218646569Y-102781185D01*
X218588276Y-102856938D01*
X218513967Y-102933057D01*
X218442334Y-102991163D01*
X218392068Y-103012877D01*
X218382175Y-103007326D01*
X218390331Y-102958222D01*
X218433702Y-102921988D01*
X218516551Y-102852763D01*
X218555640Y-102798615D01*
X218574904Y-102738164D01*
X218552636Y-102678148D01*
X218479490Y-102593641D01*
X218478382Y-102592496D01*
X218385646Y-102471209D01*
X218365370Y-102364639D01*
X218417178Y-102259164D01*
X218467709Y-102204763D01*
X218555152Y-102135688D01*
X218600258Y-102126348D01*
X218596940Y-102167242D01*
G37*
G36*
X217424632Y-102167242D02*
G01*
X217366801Y-102248867D01*
X217341297Y-102276403D01*
X217222450Y-102399021D01*
X217360148Y-102540804D01*
X217439470Y-102630125D01*
X217489237Y-102700872D01*
X217497846Y-102724175D01*
X217474261Y-102781185D01*
X217415968Y-102856938D01*
X217341659Y-102933057D01*
X217270026Y-102991163D01*
X217219761Y-103012877D01*
X217209867Y-103007326D01*
X217218024Y-102958222D01*
X217261394Y-102921988D01*
X217344243Y-102852763D01*
X217383332Y-102798615D01*
X217402597Y-102738164D01*
X217380328Y-102678148D01*
X217307182Y-102593641D01*
X217306074Y-102592496D01*
X217213338Y-102471209D01*
X217193062Y-102364639D01*
X217244870Y-102259164D01*
X217295401Y-102204763D01*
X217382844Y-102135688D01*
X217427950Y-102126348D01*
X217424632Y-102167242D01*
G37*
G36*
X220941555Y-102167242D02*
G01*
X220883724Y-102248867D01*
X220858220Y-102276403D01*
X220739373Y-102399021D01*
X220877071Y-102540804D01*
X220956394Y-102630125D01*
X221006160Y-102700872D01*
X221014769Y-102724175D01*
X220991184Y-102781185D01*
X220932891Y-102856938D01*
X220858582Y-102933057D01*
X220786949Y-102991163D01*
X220736684Y-103012877D01*
X220726790Y-103007326D01*
X220734947Y-102958222D01*
X220778317Y-102921988D01*
X220861166Y-102852763D01*
X220900255Y-102798615D01*
X220919520Y-102738164D01*
X220897251Y-102678148D01*
X220824105Y-102593641D01*
X220822997Y-102592496D01*
X220730261Y-102471209D01*
X220709985Y-102364639D01*
X220761794Y-102259164D01*
X220812324Y-102204763D01*
X220899767Y-102135688D01*
X220944873Y-102126348D01*
X220941555Y-102167242D01*
G37*
G36*
X222030090Y-103282384D02*
G01*
X222012135Y-103494421D01*
X221964351Y-103744892D01*
X221893625Y-104003240D01*
X221823480Y-104199187D01*
X221622404Y-104593467D01*
X221360617Y-104946698D01*
X221046365Y-105254615D01*
X220687890Y-105512958D01*
X220293439Y-105717463D01*
X219871255Y-105863866D01*
X219429582Y-105947906D01*
X218976665Y-105965319D01*
X218520748Y-105911843D01*
X218513846Y-105910463D01*
X218062974Y-105783041D01*
X217642781Y-105591524D01*
X217261033Y-105342129D01*
X216925496Y-105041074D01*
X216643935Y-104694578D01*
X216424117Y-104308857D01*
X216376520Y-104199187D01*
X216292142Y-103957134D01*
X216225069Y-103697947D01*
X216182188Y-103452182D01*
X216169909Y-103282384D01*
X216169230Y-103116307D01*
X222030769Y-103116307D01*
X222030090Y-103282384D01*
G37*
G36*
X219769247Y-102167242D02*
G01*
X219711417Y-102248867D01*
X219685912Y-102276403D01*
X219567065Y-102399021D01*
X219704763Y-102540804D01*
X219784086Y-102630125D01*
X219833852Y-102700872D01*
X219842461Y-102724175D01*
X219818876Y-102781185D01*
X219760584Y-102856938D01*
X219686275Y-102933057D01*
X219614641Y-102991163D01*
X219564376Y-103012877D01*
X219554482Y-103007326D01*
X219562639Y-102958222D01*
X219606010Y-102921988D01*
X219688859Y-102852763D01*
X219727948Y-102798615D01*
X219747212Y-102738164D01*
X219724943Y-102678148D01*
X219651798Y-102593641D01*
X219650689Y-102592496D01*
X219557954Y-102471209D01*
X219537678Y-102364639D01*
X219589486Y-102259164D01*
X219640017Y-102204763D01*
X219727459Y-102135688D01*
X219772566Y-102126348D01*
X219769247Y-102167242D01*
G37*
%TD*%
D11*
%TO.C,K5*%
X168910000Y-136048700D03*
X175260000Y-133508700D03*
D12*
X171450000Y-130968700D03*
%TD*%
D13*
%TO.C,J1*%
X159035000Y-26480000D03*
X164815000Y-26480000D03*
D14*
X165125000Y-27555000D03*
X164325000Y-27555000D03*
D15*
X163175000Y-27555000D03*
X162175000Y-27555000D03*
X161675000Y-27555000D03*
X160675000Y-27555000D03*
D14*
X158725000Y-27555000D03*
X159525000Y-27555000D03*
D15*
X160175000Y-27555000D03*
X161175000Y-27555000D03*
X162675000Y-27555000D03*
X163675000Y-27555000D03*
D16*
X166245000Y-26980000D03*
D17*
X166245000Y-22800000D03*
X157605000Y-22800000D03*
D16*
X157605000Y-26980000D03*
%TD*%
D11*
%TO.C,K9*%
X178435000Y-116998700D03*
D12*
X180975000Y-111918700D03*
D11*
X184785000Y-114458700D03*
%TD*%
D12*
%TO.C,K12*%
X200025000Y-92868700D03*
D11*
X203835000Y-95408700D03*
X197485000Y-97948700D03*
%TD*%
D18*
%TO.C,R5*%
X155000000Y-35500000D03*
X155000000Y-37500000D03*
%TD*%
D11*
%TO.C,K16*%
X222885000Y-85883700D03*
D12*
X219075000Y-83343700D03*
D11*
X216535000Y-88423700D03*
%TD*%
D19*
%TO.C,*%
X230981250Y-23812500D03*
%TD*%
D11*
%TO.C,K7*%
X178435000Y-78898700D03*
D12*
X180975000Y-73818700D03*
D11*
X184785000Y-76358700D03*
%TD*%
D18*
%TO.C,R4*%
X168500000Y-35500000D03*
X168500000Y-37500000D03*
%TD*%
%TO.C,R3*%
X159500000Y-35500000D03*
X159500000Y-37500000D03*
%TD*%
D12*
%TO.C,K6*%
X180975000Y-54768700D03*
D11*
X184785000Y-57308700D03*
X178435000Y-59848700D03*
%TD*%
%TO.C,K1*%
X159385000Y-59848700D03*
D12*
X161925000Y-54768700D03*
D11*
X165735000Y-57308700D03*
%TD*%
D18*
%TO.C,R2*%
X164000000Y-35500000D03*
X164000000Y-37500000D03*
%TD*%
D20*
%TO.C,Y1*%
X206212132Y-35156497D03*
X204656497Y-36712132D03*
X205787868Y-37843503D03*
X207343503Y-36287868D03*
%TD*%
D11*
%TO.C,K13*%
X203835000Y-114458700D03*
X197485000Y-116998700D03*
D12*
X200025000Y-111918700D03*
%TD*%
D11*
%TO.C,K2*%
X159385000Y-78898700D03*
D12*
X161925000Y-73818700D03*
D11*
X165735000Y-76358700D03*
%TD*%
%TO.C,K8*%
X178435000Y-97948700D03*
D12*
X180975000Y-92868700D03*
D11*
X184785000Y-95408700D03*
%TD*%
D21*
%TO.C,U1*%
X223075000Y-30018700D03*
X222275000Y-30018700D03*
X221475000Y-30018700D03*
X220675000Y-30018700D03*
X219875000Y-30018700D03*
X219075000Y-30018700D03*
X218275000Y-30018700D03*
X217475000Y-30018700D03*
X216675000Y-30018700D03*
X215875000Y-30018700D03*
X215075000Y-30018700D03*
D22*
X213375000Y-31718700D03*
X213375000Y-32518700D03*
X213375000Y-33318700D03*
X213375000Y-34118700D03*
X213375000Y-34918700D03*
X213375000Y-35718700D03*
X213375000Y-36518700D03*
X213375000Y-37318700D03*
X213375000Y-38118700D03*
X213375000Y-38918700D03*
X213375000Y-39718700D03*
D21*
X215075000Y-41418700D03*
X215875000Y-41418700D03*
X216675000Y-41418700D03*
X217475000Y-41418700D03*
X218275000Y-41418700D03*
X219075000Y-41418700D03*
X219875000Y-41418700D03*
X220675000Y-41418700D03*
X221475000Y-41418700D03*
X222275000Y-41418700D03*
X223075000Y-41418700D03*
D22*
X224775000Y-39718700D03*
X224775000Y-38918700D03*
X224775000Y-38118700D03*
X224775000Y-37318700D03*
X224775000Y-36518700D03*
X224775000Y-35718700D03*
X224775000Y-34918700D03*
X224775000Y-34118700D03*
X224775000Y-33318700D03*
X224775000Y-32518700D03*
X224775000Y-31718700D03*
%TD*%
D19*
%TO.C,REF\u002A\u002A*%
X150018750Y-23812500D03*
%TD*%
D12*
%TO.C,K3*%
X161925000Y-92868700D03*
D11*
X159385000Y-97948700D03*
X165735000Y-95408700D03*
%TD*%
D19*
%TO.C,*%
X230981250Y-142875000D03*
%TD*%
D11*
%TO.C,K17*%
X222885000Y-123983700D03*
X216535000Y-126523700D03*
D12*
X219075000Y-121443700D03*
%TD*%
D23*
%TO.C,C1*%
X207037500Y-31000000D03*
X204962500Y-31000000D03*
%TD*%
D11*
%TO.C,K11*%
X203835000Y-76358700D03*
D12*
X200025000Y-73818700D03*
D11*
X197485000Y-78898700D03*
%TD*%
D12*
%TO.C,K10*%
X200025000Y-54768700D03*
D11*
X197485000Y-59848700D03*
X203835000Y-57308700D03*
%TD*%
%TO.C,K14*%
X197485000Y-136048700D03*
D12*
X200025000Y-130968700D03*
D11*
X203835000Y-133508700D03*
%TD*%
%TO.C,K4*%
X165735000Y-114458750D03*
X159385000Y-116998750D03*
D12*
X161925000Y-111918750D03*
%TD*%
D23*
%TO.C,C2*%
X207037500Y-42000000D03*
X204962500Y-42000000D03*
%TD*%
D19*
%TO.C,*%
X150018750Y-142875000D03*
%TD*%
D12*
%TO.C,K15*%
X219075000Y-54768700D03*
D11*
X216535000Y-59848700D03*
X222885000Y-57308700D03*
%TD*%
D24*
%TO.C,D12*%
X192881300Y-86587500D03*
D25*
X192881300Y-94387500D03*
%TD*%
D24*
%TO.C,D14*%
X192881300Y-124687500D03*
D25*
X192881300Y-132487500D03*
%TD*%
D24*
%TO.C,D8*%
X173831300Y-86587500D03*
D25*
X173831300Y-94387500D03*
%TD*%
D24*
%TO.C,D6*%
X173831300Y-48487500D03*
D25*
X173831300Y-56287500D03*
%TD*%
D24*
%TO.C,D3*%
X154781300Y-86587500D03*
D25*
X154781300Y-94387500D03*
%TD*%
D24*
%TO.C,D15*%
X211931300Y-48487500D03*
D25*
X211931300Y-56287500D03*
%TD*%
D24*
%TO.C,D17*%
X211931300Y-115162500D03*
D25*
X211931300Y-122962500D03*
%TD*%
D24*
%TO.C,D13*%
X192881300Y-105637500D03*
D25*
X192881300Y-113437500D03*
%TD*%
D24*
%TO.C,D11*%
X192881300Y-67537500D03*
D25*
X192881300Y-75337500D03*
%TD*%
D26*
%TO.C,P1*%
X209000000Y-27000000D03*
D27*
X208000000Y-27000000D03*
X207000000Y-27000000D03*
X206000000Y-27000000D03*
X205000000Y-27000000D03*
X204000000Y-27000000D03*
%TD*%
D24*
%TO.C,D5*%
X164306300Y-124687500D03*
D25*
X164306300Y-132487500D03*
%TD*%
D24*
%TO.C,D9*%
X173831300Y-105637500D03*
D25*
X173831300Y-113437500D03*
%TD*%
D24*
%TO.C,D4*%
X154781300Y-105637500D03*
D25*
X154781300Y-113437500D03*
%TD*%
D24*
%TO.C,D7*%
X173831300Y-67537500D03*
D25*
X173831300Y-75337500D03*
%TD*%
D24*
%TO.C,D10*%
X192881300Y-48487500D03*
D25*
X192881300Y-56287500D03*
%TD*%
D24*
%TO.C,D1*%
X154781300Y-48487500D03*
D25*
X154781300Y-56287500D03*
%TD*%
D24*
%TO.C,D2*%
X154781300Y-67537500D03*
D25*
X154781300Y-75337500D03*
%TD*%
D24*
%TO.C,D16*%
X211931300Y-77062500D03*
D25*
X211931300Y-84862500D03*
%TD*%
M02*
