%TF.GenerationSoftware,KiCad,Pcbnew,(6.0.1)*%
%TF.CreationDate,2022-02-23T18:42:09-08:00*%
%TF.ProjectId,Ramen Pad,52616d65-6e20-4506-9164-2e6b69636164,v1.0.0*%
%TF.SameCoordinates,Original*%
%TF.FileFunction,Legend,Bot*%
%TF.FilePolarity,Positive*%
%FSLAX46Y46*%
G04 Gerber Fmt 4.6, Leading zero omitted, Abs format (unit mm)*
G04 Created by KiCad (PCBNEW (6.0.1)) date 2022-02-23 18:42:09*
%MOMM*%
%LPD*%
G01*
G04 APERTURE LIST*
%ADD10C,0.100000*%
%ADD11C,0.150000*%
%ADD12C,0.120000*%
%ADD13C,0.200000*%
%ADD14R,1.600000X1.600000*%
%ADD15C,1.600000*%
G04 APERTURE END LIST*
D10*
X205638095Y-25757142D02*
X206438095Y-25757142D01*
X205866666Y-25490476D01*
X206438095Y-25223809D01*
X205638095Y-25223809D01*
X206438095Y-24690476D02*
X206438095Y-24538095D01*
X206400000Y-24461904D01*
X206323809Y-24385714D01*
X206171428Y-24347619D01*
X205904761Y-24347619D01*
X205752380Y-24385714D01*
X205676190Y-24461904D01*
X205638095Y-24538095D01*
X205638095Y-24690476D01*
X205676190Y-24766666D01*
X205752380Y-24842857D01*
X205904761Y-24880952D01*
X206171428Y-24880952D01*
X206323809Y-24842857D01*
X206400000Y-24766666D01*
X206438095Y-24690476D01*
X205676190Y-24042857D02*
X205638095Y-23928571D01*
X205638095Y-23738095D01*
X205676190Y-23661904D01*
X205714285Y-23623809D01*
X205790476Y-23585714D01*
X205866666Y-23585714D01*
X205942857Y-23623809D01*
X205980952Y-23661904D01*
X206019047Y-23738095D01*
X206057142Y-23890476D01*
X206095238Y-23966666D01*
X206133333Y-24004761D01*
X206209523Y-24042857D01*
X206285714Y-24042857D01*
X206361904Y-24004761D01*
X206400000Y-23966666D01*
X206438095Y-23890476D01*
X206438095Y-23700000D01*
X206400000Y-23585714D01*
X205638095Y-23242857D02*
X206438095Y-23242857D01*
X208638095Y-25757142D02*
X209438095Y-25757142D01*
X208866666Y-25490476D01*
X209438095Y-25223809D01*
X208638095Y-25223809D01*
X208638095Y-24842857D02*
X209438095Y-24842857D01*
X208676190Y-24500000D02*
X208638095Y-24385714D01*
X208638095Y-24195238D01*
X208676190Y-24119047D01*
X208714285Y-24080952D01*
X208790476Y-24042857D01*
X208866666Y-24042857D01*
X208942857Y-24080952D01*
X208980952Y-24119047D01*
X209019047Y-24195238D01*
X209057142Y-24347619D01*
X209095238Y-24423809D01*
X209133333Y-24461904D01*
X209209523Y-24500000D01*
X209285714Y-24500000D01*
X209361904Y-24461904D01*
X209400000Y-24423809D01*
X209438095Y-24347619D01*
X209438095Y-24157142D01*
X209400000Y-24042857D01*
X209438095Y-23547619D02*
X209438095Y-23395238D01*
X209400000Y-23319047D01*
X209323809Y-23242857D01*
X209171428Y-23204761D01*
X208904761Y-23204761D01*
X208752380Y-23242857D01*
X208676190Y-23319047D01*
X208638095Y-23395238D01*
X208638095Y-23547619D01*
X208676190Y-23623809D01*
X208752380Y-23700000D01*
X208904761Y-23738095D01*
X209171428Y-23738095D01*
X209323809Y-23700000D01*
X209400000Y-23623809D01*
X209438095Y-23547619D01*
X208438095Y-25566666D02*
X207638095Y-25300000D01*
X208438095Y-25033333D01*
X207714285Y-24309523D02*
X207676190Y-24347619D01*
X207638095Y-24461904D01*
X207638095Y-24538095D01*
X207676190Y-24652380D01*
X207752380Y-24728571D01*
X207828571Y-24766666D01*
X207980952Y-24804761D01*
X208095238Y-24804761D01*
X208247619Y-24766666D01*
X208323809Y-24728571D01*
X208400000Y-24652380D01*
X208438095Y-24538095D01*
X208438095Y-24461904D01*
X208400000Y-24347619D01*
X208361904Y-24309523D01*
X207714285Y-23509523D02*
X207676190Y-23547619D01*
X207638095Y-23661904D01*
X207638095Y-23738095D01*
X207676190Y-23852380D01*
X207752380Y-23928571D01*
X207828571Y-23966666D01*
X207980952Y-24004761D01*
X208095238Y-24004761D01*
X208247619Y-23966666D01*
X208323809Y-23928571D01*
X208400000Y-23852380D01*
X208438095Y-23738095D01*
X208438095Y-23661904D01*
X208400000Y-23547619D01*
X208361904Y-23509523D01*
X206676190Y-25528571D02*
X206638095Y-25414285D01*
X206638095Y-25223809D01*
X206676190Y-25147619D01*
X206714285Y-25109523D01*
X206790476Y-25071428D01*
X206866666Y-25071428D01*
X206942857Y-25109523D01*
X206980952Y-25147619D01*
X207019047Y-25223809D01*
X207057142Y-25376190D01*
X207095238Y-25452380D01*
X207133333Y-25490476D01*
X207209523Y-25528571D01*
X207285714Y-25528571D01*
X207361904Y-25490476D01*
X207400000Y-25452380D01*
X207438095Y-25376190D01*
X207438095Y-25185714D01*
X207400000Y-25071428D01*
X206714285Y-24271428D02*
X206676190Y-24309523D01*
X206638095Y-24423809D01*
X206638095Y-24500000D01*
X206676190Y-24614285D01*
X206752380Y-24690476D01*
X206828571Y-24728571D01*
X206980952Y-24766666D01*
X207095238Y-24766666D01*
X207247619Y-24728571D01*
X207323809Y-24690476D01*
X207400000Y-24614285D01*
X207438095Y-24500000D01*
X207438095Y-24423809D01*
X207400000Y-24309523D01*
X207361904Y-24271428D01*
X206638095Y-23928571D02*
X207438095Y-23928571D01*
X206638095Y-23471428D02*
X207095238Y-23814285D01*
X207438095Y-23471428D02*
X206980952Y-23928571D01*
X204638095Y-24938095D02*
X205019047Y-25204761D01*
X204638095Y-25395238D02*
X205438095Y-25395238D01*
X205438095Y-25090476D01*
X205400000Y-25014285D01*
X205361904Y-24976190D01*
X205285714Y-24938095D01*
X205171428Y-24938095D01*
X205095238Y-24976190D01*
X205057142Y-25014285D01*
X205019047Y-25090476D01*
X205019047Y-25395238D01*
X204676190Y-24633333D02*
X204638095Y-24519047D01*
X204638095Y-24328571D01*
X204676190Y-24252380D01*
X204714285Y-24214285D01*
X204790476Y-24176190D01*
X204866666Y-24176190D01*
X204942857Y-24214285D01*
X204980952Y-24252380D01*
X205019047Y-24328571D01*
X205057142Y-24480952D01*
X205095238Y-24557142D01*
X205133333Y-24595238D01*
X205209523Y-24633333D01*
X205285714Y-24633333D01*
X205361904Y-24595238D01*
X205400000Y-24557142D01*
X205438095Y-24480952D01*
X205438095Y-24290476D01*
X205400000Y-24176190D01*
X205438095Y-23947619D02*
X205438095Y-23490476D01*
X204638095Y-23719047D02*
X205438095Y-23719047D01*
X204400000Y-25109523D02*
X204438095Y-25185714D01*
X204438095Y-25300000D01*
X204400000Y-25414285D01*
X204323809Y-25490476D01*
X204247619Y-25528571D01*
X204095238Y-25566666D01*
X203980952Y-25566666D01*
X203828571Y-25528571D01*
X203752380Y-25490476D01*
X203676190Y-25414285D01*
X203638095Y-25300000D01*
X203638095Y-25223809D01*
X203676190Y-25109523D01*
X203714285Y-25071428D01*
X203980952Y-25071428D01*
X203980952Y-25223809D01*
X203638095Y-24728571D02*
X204438095Y-24728571D01*
X203638095Y-24271428D01*
X204438095Y-24271428D01*
X203638095Y-23890476D02*
X204438095Y-23890476D01*
X204438095Y-23700000D01*
X204400000Y-23585714D01*
X204323809Y-23509523D01*
X204247619Y-23471428D01*
X204095238Y-23433333D01*
X203980952Y-23433333D01*
X203828571Y-23471428D01*
X203752380Y-23509523D01*
X203676190Y-23585714D01*
X203638095Y-23700000D01*
X203638095Y-23890476D01*
D11*
%TO.C,K5*%
X172188095Y-139676080D02*
X172188095Y-138676080D01*
X171616666Y-139676080D02*
X172045238Y-139104652D01*
X171616666Y-138676080D02*
X172188095Y-139247509D01*
X170711904Y-138676080D02*
X171188095Y-138676080D01*
X171235714Y-139152271D01*
X171188095Y-139104652D01*
X171092857Y-139057033D01*
X170854761Y-139057033D01*
X170759523Y-139104652D01*
X170711904Y-139152271D01*
X170664285Y-139247509D01*
X170664285Y-139485604D01*
X170711904Y-139580842D01*
X170759523Y-139628461D01*
X170854761Y-139676080D01*
X171092857Y-139676080D01*
X171188095Y-139628461D01*
X171235714Y-139580842D01*
%TO.C,K9*%
X181713095Y-120626080D02*
X181713095Y-119626080D01*
X181141666Y-120626080D02*
X181570238Y-120054652D01*
X181141666Y-119626080D02*
X181713095Y-120197509D01*
X180665476Y-120626080D02*
X180475000Y-120626080D01*
X180379761Y-120578461D01*
X180332142Y-120530842D01*
X180236904Y-120387985D01*
X180189285Y-120197509D01*
X180189285Y-119816557D01*
X180236904Y-119721319D01*
X180284523Y-119673700D01*
X180379761Y-119626080D01*
X180570238Y-119626080D01*
X180665476Y-119673700D01*
X180713095Y-119721319D01*
X180760714Y-119816557D01*
X180760714Y-120054652D01*
X180713095Y-120149890D01*
X180665476Y-120197509D01*
X180570238Y-120245128D01*
X180379761Y-120245128D01*
X180284523Y-120197509D01*
X180236904Y-120149890D01*
X180189285Y-120054652D01*
%TO.C,K12*%
X201239285Y-101576080D02*
X201239285Y-100576080D01*
X200667857Y-101576080D02*
X201096428Y-101004652D01*
X200667857Y-100576080D02*
X201239285Y-101147509D01*
X199715476Y-101576080D02*
X200286904Y-101576080D01*
X200001190Y-101576080D02*
X200001190Y-100576080D01*
X200096428Y-100718938D01*
X200191666Y-100814176D01*
X200286904Y-100861795D01*
X199334523Y-100671319D02*
X199286904Y-100623700D01*
X199191666Y-100576080D01*
X198953571Y-100576080D01*
X198858333Y-100623700D01*
X198810714Y-100671319D01*
X198763095Y-100766557D01*
X198763095Y-100861795D01*
X198810714Y-101004652D01*
X199382142Y-101576080D01*
X198763095Y-101576080D01*
%TO.C,K16*%
X220289285Y-92051080D02*
X220289285Y-91051080D01*
X219717857Y-92051080D02*
X220146428Y-91479652D01*
X219717857Y-91051080D02*
X220289285Y-91622509D01*
X218765476Y-92051080D02*
X219336904Y-92051080D01*
X219051190Y-92051080D02*
X219051190Y-91051080D01*
X219146428Y-91193938D01*
X219241666Y-91289176D01*
X219336904Y-91336795D01*
X217908333Y-91051080D02*
X218098809Y-91051080D01*
X218194047Y-91098700D01*
X218241666Y-91146319D01*
X218336904Y-91289176D01*
X218384523Y-91479652D01*
X218384523Y-91860604D01*
X218336904Y-91955842D01*
X218289285Y-92003461D01*
X218194047Y-92051080D01*
X218003571Y-92051080D01*
X217908333Y-92003461D01*
X217860714Y-91955842D01*
X217813095Y-91860604D01*
X217813095Y-91622509D01*
X217860714Y-91527271D01*
X217908333Y-91479652D01*
X218003571Y-91432033D01*
X218194047Y-91432033D01*
X218289285Y-91479652D01*
X218336904Y-91527271D01*
X218384523Y-91622509D01*
%TO.C,K7*%
X181713095Y-82526080D02*
X181713095Y-81526080D01*
X181141666Y-82526080D02*
X181570238Y-81954652D01*
X181141666Y-81526080D02*
X181713095Y-82097509D01*
X180808333Y-81526080D02*
X180141666Y-81526080D01*
X180570238Y-82526080D01*
%TO.C,K6*%
X181713095Y-63476080D02*
X181713095Y-62476080D01*
X181141666Y-63476080D02*
X181570238Y-62904652D01*
X181141666Y-62476080D02*
X181713095Y-63047509D01*
X180284523Y-62476080D02*
X180475000Y-62476080D01*
X180570238Y-62523700D01*
X180617857Y-62571319D01*
X180713095Y-62714176D01*
X180760714Y-62904652D01*
X180760714Y-63285604D01*
X180713095Y-63380842D01*
X180665476Y-63428461D01*
X180570238Y-63476080D01*
X180379761Y-63476080D01*
X180284523Y-63428461D01*
X180236904Y-63380842D01*
X180189285Y-63285604D01*
X180189285Y-63047509D01*
X180236904Y-62952271D01*
X180284523Y-62904652D01*
X180379761Y-62857033D01*
X180570238Y-62857033D01*
X180665476Y-62904652D01*
X180713095Y-62952271D01*
X180760714Y-63047509D01*
%TO.C,K1*%
X162663095Y-63476080D02*
X162663095Y-62476080D01*
X162091666Y-63476080D02*
X162520238Y-62904652D01*
X162091666Y-62476080D02*
X162663095Y-63047509D01*
X161139285Y-63476080D02*
X161710714Y-63476080D01*
X161425000Y-63476080D02*
X161425000Y-62476080D01*
X161520238Y-62618938D01*
X161615476Y-62714176D01*
X161710714Y-62761795D01*
%TO.C,K13*%
X201239285Y-120626080D02*
X201239285Y-119626080D01*
X200667857Y-120626080D02*
X201096428Y-120054652D01*
X200667857Y-119626080D02*
X201239285Y-120197509D01*
X199715476Y-120626080D02*
X200286904Y-120626080D01*
X200001190Y-120626080D02*
X200001190Y-119626080D01*
X200096428Y-119768938D01*
X200191666Y-119864176D01*
X200286904Y-119911795D01*
X199382142Y-119626080D02*
X198763095Y-119626080D01*
X199096428Y-120007033D01*
X198953571Y-120007033D01*
X198858333Y-120054652D01*
X198810714Y-120102271D01*
X198763095Y-120197509D01*
X198763095Y-120435604D01*
X198810714Y-120530842D01*
X198858333Y-120578461D01*
X198953571Y-120626080D01*
X199239285Y-120626080D01*
X199334523Y-120578461D01*
X199382142Y-120530842D01*
%TO.C,K2*%
X162663095Y-82526080D02*
X162663095Y-81526080D01*
X162091666Y-82526080D02*
X162520238Y-81954652D01*
X162091666Y-81526080D02*
X162663095Y-82097509D01*
X161710714Y-81621319D02*
X161663095Y-81573700D01*
X161567857Y-81526080D01*
X161329761Y-81526080D01*
X161234523Y-81573700D01*
X161186904Y-81621319D01*
X161139285Y-81716557D01*
X161139285Y-81811795D01*
X161186904Y-81954652D01*
X161758333Y-82526080D01*
X161139285Y-82526080D01*
%TO.C,K8*%
X181713095Y-101576080D02*
X181713095Y-100576080D01*
X181141666Y-101576080D02*
X181570238Y-101004652D01*
X181141666Y-100576080D02*
X181713095Y-101147509D01*
X180570238Y-101004652D02*
X180665476Y-100957033D01*
X180713095Y-100909414D01*
X180760714Y-100814176D01*
X180760714Y-100766557D01*
X180713095Y-100671319D01*
X180665476Y-100623700D01*
X180570238Y-100576080D01*
X180379761Y-100576080D01*
X180284523Y-100623700D01*
X180236904Y-100671319D01*
X180189285Y-100766557D01*
X180189285Y-100814176D01*
X180236904Y-100909414D01*
X180284523Y-100957033D01*
X180379761Y-101004652D01*
X180570238Y-101004652D01*
X180665476Y-101052271D01*
X180713095Y-101099890D01*
X180760714Y-101195128D01*
X180760714Y-101385604D01*
X180713095Y-101480842D01*
X180665476Y-101528461D01*
X180570238Y-101576080D01*
X180379761Y-101576080D01*
X180284523Y-101528461D01*
X180236904Y-101480842D01*
X180189285Y-101385604D01*
X180189285Y-101195128D01*
X180236904Y-101099890D01*
X180284523Y-101052271D01*
X180379761Y-101004652D01*
%TO.C,K3*%
X162663095Y-101576080D02*
X162663095Y-100576080D01*
X162091666Y-101576080D02*
X162520238Y-101004652D01*
X162091666Y-100576080D02*
X162663095Y-101147509D01*
X161758333Y-100576080D02*
X161139285Y-100576080D01*
X161472619Y-100957033D01*
X161329761Y-100957033D01*
X161234523Y-101004652D01*
X161186904Y-101052271D01*
X161139285Y-101147509D01*
X161139285Y-101385604D01*
X161186904Y-101480842D01*
X161234523Y-101528461D01*
X161329761Y-101576080D01*
X161615476Y-101576080D01*
X161710714Y-101528461D01*
X161758333Y-101480842D01*
%TO.C,K17*%
X220289285Y-130151080D02*
X220289285Y-129151080D01*
X219717857Y-130151080D02*
X220146428Y-129579652D01*
X219717857Y-129151080D02*
X220289285Y-129722509D01*
X218765476Y-130151080D02*
X219336904Y-130151080D01*
X219051190Y-130151080D02*
X219051190Y-129151080D01*
X219146428Y-129293938D01*
X219241666Y-129389176D01*
X219336904Y-129436795D01*
X218432142Y-129151080D02*
X217765476Y-129151080D01*
X218194047Y-130151080D01*
%TO.C,K11*%
X201239285Y-82526080D02*
X201239285Y-81526080D01*
X200667857Y-82526080D02*
X201096428Y-81954652D01*
X200667857Y-81526080D02*
X201239285Y-82097509D01*
X199715476Y-82526080D02*
X200286904Y-82526080D01*
X200001190Y-82526080D02*
X200001190Y-81526080D01*
X200096428Y-81668938D01*
X200191666Y-81764176D01*
X200286904Y-81811795D01*
X198763095Y-82526080D02*
X199334523Y-82526080D01*
X199048809Y-82526080D02*
X199048809Y-81526080D01*
X199144047Y-81668938D01*
X199239285Y-81764176D01*
X199334523Y-81811795D01*
%TO.C,K10*%
X201239285Y-63476080D02*
X201239285Y-62476080D01*
X200667857Y-63476080D02*
X201096428Y-62904652D01*
X200667857Y-62476080D02*
X201239285Y-63047509D01*
X199715476Y-63476080D02*
X200286904Y-63476080D01*
X200001190Y-63476080D02*
X200001190Y-62476080D01*
X200096428Y-62618938D01*
X200191666Y-62714176D01*
X200286904Y-62761795D01*
X199096428Y-62476080D02*
X199001190Y-62476080D01*
X198905952Y-62523700D01*
X198858333Y-62571319D01*
X198810714Y-62666557D01*
X198763095Y-62857033D01*
X198763095Y-63095128D01*
X198810714Y-63285604D01*
X198858333Y-63380842D01*
X198905952Y-63428461D01*
X199001190Y-63476080D01*
X199096428Y-63476080D01*
X199191666Y-63428461D01*
X199239285Y-63380842D01*
X199286904Y-63285604D01*
X199334523Y-63095128D01*
X199334523Y-62857033D01*
X199286904Y-62666557D01*
X199239285Y-62571319D01*
X199191666Y-62523700D01*
X199096428Y-62476080D01*
%TO.C,K14*%
X201239285Y-139676080D02*
X201239285Y-138676080D01*
X200667857Y-139676080D02*
X201096428Y-139104652D01*
X200667857Y-138676080D02*
X201239285Y-139247509D01*
X199715476Y-139676080D02*
X200286904Y-139676080D01*
X200001190Y-139676080D02*
X200001190Y-138676080D01*
X200096428Y-138818938D01*
X200191666Y-138914176D01*
X200286904Y-138961795D01*
X198858333Y-139009414D02*
X198858333Y-139676080D01*
X199096428Y-138628461D02*
X199334523Y-139342747D01*
X198715476Y-139342747D01*
%TO.C,K4*%
X162663095Y-120626130D02*
X162663095Y-119626130D01*
X162091666Y-120626130D02*
X162520238Y-120054702D01*
X162091666Y-119626130D02*
X162663095Y-120197559D01*
X161234523Y-119959464D02*
X161234523Y-120626130D01*
X161472619Y-119578511D02*
X161710714Y-120292797D01*
X161091666Y-120292797D01*
%TO.C,K15*%
X220289285Y-63476080D02*
X220289285Y-62476080D01*
X219717857Y-63476080D02*
X220146428Y-62904652D01*
X219717857Y-62476080D02*
X220289285Y-63047509D01*
X218765476Y-63476080D02*
X219336904Y-63476080D01*
X219051190Y-63476080D02*
X219051190Y-62476080D01*
X219146428Y-62618938D01*
X219241666Y-62714176D01*
X219336904Y-62761795D01*
X217860714Y-62476080D02*
X218336904Y-62476080D01*
X218384523Y-62952271D01*
X218336904Y-62904652D01*
X218241666Y-62857033D01*
X218003571Y-62857033D01*
X217908333Y-62904652D01*
X217860714Y-62952271D01*
X217813095Y-63047509D01*
X217813095Y-63285604D01*
X217860714Y-63380842D01*
X217908333Y-63428461D01*
X218003571Y-63476080D01*
X218241666Y-63476080D01*
X218336904Y-63428461D01*
X218384523Y-63380842D01*
%TO.C,R6*%
X225666666Y-65802380D02*
X226000000Y-65326190D01*
X226238095Y-65802380D02*
X226238095Y-64802380D01*
X225857142Y-64802380D01*
X225761904Y-64850000D01*
X225714285Y-64897619D01*
X225666666Y-64992857D01*
X225666666Y-65135714D01*
X225714285Y-65230952D01*
X225761904Y-65278571D01*
X225857142Y-65326190D01*
X226238095Y-65326190D01*
X224809523Y-64802380D02*
X225000000Y-64802380D01*
X225095238Y-64850000D01*
X225142857Y-64897619D01*
X225238095Y-65040476D01*
X225285714Y-65230952D01*
X225285714Y-65611904D01*
X225238095Y-65707142D01*
X225190476Y-65754761D01*
X225095238Y-65802380D01*
X224904761Y-65802380D01*
X224809523Y-65754761D01*
X224761904Y-65707142D01*
X224714285Y-65611904D01*
X224714285Y-65373809D01*
X224761904Y-65278571D01*
X224809523Y-65230952D01*
X224904761Y-65183333D01*
X225095238Y-65183333D01*
X225190476Y-65230952D01*
X225238095Y-65278571D01*
X225285714Y-65373809D01*
%TO.C,D12*%
X195168204Y-89516071D02*
X194368204Y-89516071D01*
X194368204Y-89706547D01*
X194406300Y-89820833D01*
X194482490Y-89897023D01*
X194558680Y-89935119D01*
X194711061Y-89973214D01*
X194825347Y-89973214D01*
X194977728Y-89935119D01*
X195053919Y-89897023D01*
X195130109Y-89820833D01*
X195168204Y-89706547D01*
X195168204Y-89516071D01*
X195168204Y-90735119D02*
X195168204Y-90277976D01*
X195168204Y-90506547D02*
X194368204Y-90506547D01*
X194482490Y-90430357D01*
X194558680Y-90354166D01*
X194596776Y-90277976D01*
X194444395Y-91039880D02*
X194406300Y-91077976D01*
X194368204Y-91154166D01*
X194368204Y-91344642D01*
X194406300Y-91420833D01*
X194444395Y-91458928D01*
X194520585Y-91497023D01*
X194596776Y-91497023D01*
X194711061Y-91458928D01*
X195168204Y-91001785D01*
X195168204Y-91497023D01*
%TO.C,LED12*%
X201141666Y-90522866D02*
X201475000Y-90522866D01*
X201475000Y-89822866D01*
X200908333Y-90156200D02*
X200675000Y-90156200D01*
X200575000Y-90522866D02*
X200908333Y-90522866D01*
X200908333Y-89822866D01*
X200575000Y-89822866D01*
X200275000Y-90522866D02*
X200275000Y-89822866D01*
X200108333Y-89822866D01*
X200008333Y-89856200D01*
X199941666Y-89922866D01*
X199908333Y-89989533D01*
X199875000Y-90122866D01*
X199875000Y-90222866D01*
X199908333Y-90356200D01*
X199941666Y-90422866D01*
X200008333Y-90489533D01*
X200108333Y-90522866D01*
X200275000Y-90522866D01*
X199208333Y-90522866D02*
X199608333Y-90522866D01*
X199408333Y-90522866D02*
X199408333Y-89822866D01*
X199475000Y-89922866D01*
X199541666Y-89989533D01*
X199608333Y-90022866D01*
X198941666Y-89889533D02*
X198908333Y-89856200D01*
X198841666Y-89822866D01*
X198675000Y-89822866D01*
X198608333Y-89856200D01*
X198575000Y-89889533D01*
X198541666Y-89956200D01*
X198541666Y-90022866D01*
X198575000Y-90122866D01*
X198975000Y-90522866D01*
X198541666Y-90522866D01*
%TO.C,D14*%
X195168204Y-127616071D02*
X194368204Y-127616071D01*
X194368204Y-127806547D01*
X194406300Y-127920833D01*
X194482490Y-127997023D01*
X194558680Y-128035119D01*
X194711061Y-128073214D01*
X194825347Y-128073214D01*
X194977728Y-128035119D01*
X195053919Y-127997023D01*
X195130109Y-127920833D01*
X195168204Y-127806547D01*
X195168204Y-127616071D01*
X195168204Y-128835119D02*
X195168204Y-128377976D01*
X195168204Y-128606547D02*
X194368204Y-128606547D01*
X194482490Y-128530357D01*
X194558680Y-128454166D01*
X194596776Y-128377976D01*
X194634871Y-129520833D02*
X195168204Y-129520833D01*
X194330109Y-129330357D02*
X194901538Y-129139880D01*
X194901538Y-129635119D01*
%TO.C,LED3*%
X162708333Y-90522866D02*
X163041666Y-90522866D01*
X163041666Y-89822866D01*
X162475000Y-90156200D02*
X162241666Y-90156200D01*
X162141666Y-90522866D02*
X162475000Y-90522866D01*
X162475000Y-89822866D01*
X162141666Y-89822866D01*
X161841666Y-90522866D02*
X161841666Y-89822866D01*
X161675000Y-89822866D01*
X161575000Y-89856200D01*
X161508333Y-89922866D01*
X161475000Y-89989533D01*
X161441666Y-90122866D01*
X161441666Y-90222866D01*
X161475000Y-90356200D01*
X161508333Y-90422866D01*
X161575000Y-90489533D01*
X161675000Y-90522866D01*
X161841666Y-90522866D01*
X161208333Y-89822866D02*
X160775000Y-89822866D01*
X161008333Y-90089533D01*
X160908333Y-90089533D01*
X160841666Y-90122866D01*
X160808333Y-90156200D01*
X160775000Y-90222866D01*
X160775000Y-90389533D01*
X160808333Y-90456200D01*
X160841666Y-90489533D01*
X160908333Y-90522866D01*
X161108333Y-90522866D01*
X161175000Y-90489533D01*
X161208333Y-90456200D01*
%TO.C,C7*%
X230037142Y-40333333D02*
X230084761Y-40285714D01*
X230132380Y-40142857D01*
X230132380Y-40047619D01*
X230084761Y-39904761D01*
X229989523Y-39809523D01*
X229894285Y-39761904D01*
X229703809Y-39714285D01*
X229560952Y-39714285D01*
X229370476Y-39761904D01*
X229275238Y-39809523D01*
X229180000Y-39904761D01*
X229132380Y-40047619D01*
X229132380Y-40142857D01*
X229180000Y-40285714D01*
X229227619Y-40333333D01*
X229132380Y-40666666D02*
X229132380Y-41333333D01*
X230132380Y-40904761D01*
%TO.C,D8*%
X176118204Y-89897023D02*
X175318204Y-89897023D01*
X175318204Y-90087500D01*
X175356300Y-90201785D01*
X175432490Y-90277976D01*
X175508680Y-90316071D01*
X175661061Y-90354166D01*
X175775347Y-90354166D01*
X175927728Y-90316071D01*
X176003919Y-90277976D01*
X176080109Y-90201785D01*
X176118204Y-90087500D01*
X176118204Y-89897023D01*
X175661061Y-90811309D02*
X175622966Y-90735119D01*
X175584871Y-90697023D01*
X175508680Y-90658928D01*
X175470585Y-90658928D01*
X175394395Y-90697023D01*
X175356300Y-90735119D01*
X175318204Y-90811309D01*
X175318204Y-90963690D01*
X175356300Y-91039880D01*
X175394395Y-91077976D01*
X175470585Y-91116071D01*
X175508680Y-91116071D01*
X175584871Y-91077976D01*
X175622966Y-91039880D01*
X175661061Y-90963690D01*
X175661061Y-90811309D01*
X175699157Y-90735119D01*
X175737252Y-90697023D01*
X175813442Y-90658928D01*
X175965823Y-90658928D01*
X176042014Y-90697023D01*
X176080109Y-90735119D01*
X176118204Y-90811309D01*
X176118204Y-90963690D01*
X176080109Y-91039880D01*
X176042014Y-91077976D01*
X175965823Y-91116071D01*
X175813442Y-91116071D01*
X175737252Y-91077976D01*
X175699157Y-91039880D01*
X175661061Y-90963690D01*
%TO.C,D6*%
X176118204Y-51797023D02*
X175318204Y-51797023D01*
X175318204Y-51987500D01*
X175356300Y-52101785D01*
X175432490Y-52177976D01*
X175508680Y-52216071D01*
X175661061Y-52254166D01*
X175775347Y-52254166D01*
X175927728Y-52216071D01*
X176003919Y-52177976D01*
X176080109Y-52101785D01*
X176118204Y-51987500D01*
X176118204Y-51797023D01*
X175318204Y-52939880D02*
X175318204Y-52787500D01*
X175356300Y-52711309D01*
X175394395Y-52673214D01*
X175508680Y-52597023D01*
X175661061Y-52558928D01*
X175965823Y-52558928D01*
X176042014Y-52597023D01*
X176080109Y-52635119D01*
X176118204Y-52711309D01*
X176118204Y-52863690D01*
X176080109Y-52939880D01*
X176042014Y-52977976D01*
X175965823Y-53016071D01*
X175775347Y-53016071D01*
X175699157Y-52977976D01*
X175661061Y-52939880D01*
X175622966Y-52863690D01*
X175622966Y-52711309D01*
X175661061Y-52635119D01*
X175699157Y-52597023D01*
X175775347Y-52558928D01*
%TO.C,LED15*%
X220191666Y-52422866D02*
X220525000Y-52422866D01*
X220525000Y-51722866D01*
X219958333Y-52056200D02*
X219725000Y-52056200D01*
X219625000Y-52422866D02*
X219958333Y-52422866D01*
X219958333Y-51722866D01*
X219625000Y-51722866D01*
X219325000Y-52422866D02*
X219325000Y-51722866D01*
X219158333Y-51722866D01*
X219058333Y-51756200D01*
X218991666Y-51822866D01*
X218958333Y-51889533D01*
X218925000Y-52022866D01*
X218925000Y-52122866D01*
X218958333Y-52256200D01*
X218991666Y-52322866D01*
X219058333Y-52389533D01*
X219158333Y-52422866D01*
X219325000Y-52422866D01*
X218258333Y-52422866D02*
X218658333Y-52422866D01*
X218458333Y-52422866D02*
X218458333Y-51722866D01*
X218525000Y-51822866D01*
X218591666Y-51889533D01*
X218658333Y-51922866D01*
X217625000Y-51722866D02*
X217958333Y-51722866D01*
X217991666Y-52056200D01*
X217958333Y-52022866D01*
X217891666Y-51989533D01*
X217725000Y-51989533D01*
X217658333Y-52022866D01*
X217625000Y-52056200D01*
X217591666Y-52122866D01*
X217591666Y-52289533D01*
X217625000Y-52356200D01*
X217658333Y-52389533D01*
X217725000Y-52422866D01*
X217891666Y-52422866D01*
X217958333Y-52389533D01*
X217991666Y-52356200D01*
%TO.C,LED2*%
X162708333Y-71472866D02*
X163041666Y-71472866D01*
X163041666Y-70772866D01*
X162475000Y-71106200D02*
X162241666Y-71106200D01*
X162141666Y-71472866D02*
X162475000Y-71472866D01*
X162475000Y-70772866D01*
X162141666Y-70772866D01*
X161841666Y-71472866D02*
X161841666Y-70772866D01*
X161675000Y-70772866D01*
X161575000Y-70806200D01*
X161508333Y-70872866D01*
X161475000Y-70939533D01*
X161441666Y-71072866D01*
X161441666Y-71172866D01*
X161475000Y-71306200D01*
X161508333Y-71372866D01*
X161575000Y-71439533D01*
X161675000Y-71472866D01*
X161841666Y-71472866D01*
X161175000Y-70839533D02*
X161141666Y-70806200D01*
X161075000Y-70772866D01*
X160908333Y-70772866D01*
X160841666Y-70806200D01*
X160808333Y-70839533D01*
X160775000Y-70906200D01*
X160775000Y-70972866D01*
X160808333Y-71072866D01*
X161208333Y-71472866D01*
X160775000Y-71472866D01*
%TO.C,LED13*%
X201141666Y-109572866D02*
X201475000Y-109572866D01*
X201475000Y-108872866D01*
X200908333Y-109206200D02*
X200675000Y-109206200D01*
X200575000Y-109572866D02*
X200908333Y-109572866D01*
X200908333Y-108872866D01*
X200575000Y-108872866D01*
X200275000Y-109572866D02*
X200275000Y-108872866D01*
X200108333Y-108872866D01*
X200008333Y-108906200D01*
X199941666Y-108972866D01*
X199908333Y-109039533D01*
X199875000Y-109172866D01*
X199875000Y-109272866D01*
X199908333Y-109406200D01*
X199941666Y-109472866D01*
X200008333Y-109539533D01*
X200108333Y-109572866D01*
X200275000Y-109572866D01*
X199208333Y-109572866D02*
X199608333Y-109572866D01*
X199408333Y-109572866D02*
X199408333Y-108872866D01*
X199475000Y-108972866D01*
X199541666Y-109039533D01*
X199608333Y-109072866D01*
X198975000Y-108872866D02*
X198541666Y-108872866D01*
X198775000Y-109139533D01*
X198675000Y-109139533D01*
X198608333Y-109172866D01*
X198575000Y-109206200D01*
X198541666Y-109272866D01*
X198541666Y-109439533D01*
X198575000Y-109506200D01*
X198608333Y-109539533D01*
X198675000Y-109572866D01*
X198875000Y-109572866D01*
X198941666Y-109539533D01*
X198975000Y-109506200D01*
%TO.C,D3*%
X157068204Y-89897023D02*
X156268204Y-89897023D01*
X156268204Y-90087500D01*
X156306300Y-90201785D01*
X156382490Y-90277976D01*
X156458680Y-90316071D01*
X156611061Y-90354166D01*
X156725347Y-90354166D01*
X156877728Y-90316071D01*
X156953919Y-90277976D01*
X157030109Y-90201785D01*
X157068204Y-90087500D01*
X157068204Y-89897023D01*
X156268204Y-90620833D02*
X156268204Y-91116071D01*
X156572966Y-90849404D01*
X156572966Y-90963690D01*
X156611061Y-91039880D01*
X156649157Y-91077976D01*
X156725347Y-91116071D01*
X156915823Y-91116071D01*
X156992014Y-91077976D01*
X157030109Y-91039880D01*
X157068204Y-90963690D01*
X157068204Y-90735119D01*
X157030109Y-90658928D01*
X156992014Y-90620833D01*
%TO.C,LED4*%
X162708333Y-109572866D02*
X163041666Y-109572866D01*
X163041666Y-108872866D01*
X162475000Y-109206200D02*
X162241666Y-109206200D01*
X162141666Y-109572866D02*
X162475000Y-109572866D01*
X162475000Y-108872866D01*
X162141666Y-108872866D01*
X161841666Y-109572866D02*
X161841666Y-108872866D01*
X161675000Y-108872866D01*
X161575000Y-108906200D01*
X161508333Y-108972866D01*
X161475000Y-109039533D01*
X161441666Y-109172866D01*
X161441666Y-109272866D01*
X161475000Y-109406200D01*
X161508333Y-109472866D01*
X161575000Y-109539533D01*
X161675000Y-109572866D01*
X161841666Y-109572866D01*
X160841666Y-109106200D02*
X160841666Y-109572866D01*
X161008333Y-108839533D02*
X161175000Y-109339533D01*
X160741666Y-109339533D01*
%TO.C,C4*%
X218666666Y-25677142D02*
X218714285Y-25724761D01*
X218857142Y-25772380D01*
X218952380Y-25772380D01*
X219095238Y-25724761D01*
X219190476Y-25629523D01*
X219238095Y-25534285D01*
X219285714Y-25343809D01*
X219285714Y-25200952D01*
X219238095Y-25010476D01*
X219190476Y-24915238D01*
X219095238Y-24820000D01*
X218952380Y-24772380D01*
X218857142Y-24772380D01*
X218714285Y-24820000D01*
X218666666Y-24867619D01*
X217809523Y-25105714D02*
X217809523Y-25772380D01*
X218047619Y-24724761D02*
X218285714Y-25439047D01*
X217666666Y-25439047D01*
%TO.C,D15*%
X214218204Y-51416071D02*
X213418204Y-51416071D01*
X213418204Y-51606547D01*
X213456300Y-51720833D01*
X213532490Y-51797023D01*
X213608680Y-51835119D01*
X213761061Y-51873214D01*
X213875347Y-51873214D01*
X214027728Y-51835119D01*
X214103919Y-51797023D01*
X214180109Y-51720833D01*
X214218204Y-51606547D01*
X214218204Y-51416071D01*
X214218204Y-52635119D02*
X214218204Y-52177976D01*
X214218204Y-52406547D02*
X213418204Y-52406547D01*
X213532490Y-52330357D01*
X213608680Y-52254166D01*
X213646776Y-52177976D01*
X213418204Y-53358928D02*
X213418204Y-52977976D01*
X213799157Y-52939880D01*
X213761061Y-52977976D01*
X213722966Y-53054166D01*
X213722966Y-53244642D01*
X213761061Y-53320833D01*
X213799157Y-53358928D01*
X213875347Y-53397023D01*
X214065823Y-53397023D01*
X214142014Y-53358928D01*
X214180109Y-53320833D01*
X214218204Y-53244642D01*
X214218204Y-53054166D01*
X214180109Y-52977976D01*
X214142014Y-52939880D01*
%TO.C,D17*%
X214218204Y-118091071D02*
X213418204Y-118091071D01*
X213418204Y-118281547D01*
X213456300Y-118395833D01*
X213532490Y-118472023D01*
X213608680Y-118510119D01*
X213761061Y-118548214D01*
X213875347Y-118548214D01*
X214027728Y-118510119D01*
X214103919Y-118472023D01*
X214180109Y-118395833D01*
X214218204Y-118281547D01*
X214218204Y-118091071D01*
X214218204Y-119310119D02*
X214218204Y-118852976D01*
X214218204Y-119081547D02*
X213418204Y-119081547D01*
X213532490Y-119005357D01*
X213608680Y-118929166D01*
X213646776Y-118852976D01*
X213418204Y-119576785D02*
X213418204Y-120110119D01*
X214218204Y-119767261D01*
%TO.C,LED5*%
X172233333Y-128622866D02*
X172566666Y-128622866D01*
X172566666Y-127922866D01*
X172000000Y-128256200D02*
X171766666Y-128256200D01*
X171666666Y-128622866D02*
X172000000Y-128622866D01*
X172000000Y-127922866D01*
X171666666Y-127922866D01*
X171366666Y-128622866D02*
X171366666Y-127922866D01*
X171200000Y-127922866D01*
X171100000Y-127956200D01*
X171033333Y-128022866D01*
X171000000Y-128089533D01*
X170966666Y-128222866D01*
X170966666Y-128322866D01*
X171000000Y-128456200D01*
X171033333Y-128522866D01*
X171100000Y-128589533D01*
X171200000Y-128622866D01*
X171366666Y-128622866D01*
X170333333Y-127922866D02*
X170666666Y-127922866D01*
X170700000Y-128256200D01*
X170666666Y-128222866D01*
X170600000Y-128189533D01*
X170433333Y-128189533D01*
X170366666Y-128222866D01*
X170333333Y-128256200D01*
X170300000Y-128322866D01*
X170300000Y-128489533D01*
X170333333Y-128556200D01*
X170366666Y-128589533D01*
X170433333Y-128622866D01*
X170600000Y-128622866D01*
X170666666Y-128589533D01*
X170700000Y-128556200D01*
%TO.C,LED11*%
X201141666Y-71472866D02*
X201475000Y-71472866D01*
X201475000Y-70772866D01*
X200908333Y-71106200D02*
X200675000Y-71106200D01*
X200575000Y-71472866D02*
X200908333Y-71472866D01*
X200908333Y-70772866D01*
X200575000Y-70772866D01*
X200275000Y-71472866D02*
X200275000Y-70772866D01*
X200108333Y-70772866D01*
X200008333Y-70806200D01*
X199941666Y-70872866D01*
X199908333Y-70939533D01*
X199875000Y-71072866D01*
X199875000Y-71172866D01*
X199908333Y-71306200D01*
X199941666Y-71372866D01*
X200008333Y-71439533D01*
X200108333Y-71472866D01*
X200275000Y-71472866D01*
X199208333Y-71472866D02*
X199608333Y-71472866D01*
X199408333Y-71472866D02*
X199408333Y-70772866D01*
X199475000Y-70872866D01*
X199541666Y-70939533D01*
X199608333Y-70972866D01*
X198541666Y-71472866D02*
X198941666Y-71472866D01*
X198741666Y-71472866D02*
X198741666Y-70772866D01*
X198808333Y-70872866D01*
X198875000Y-70939533D01*
X198941666Y-70972866D01*
%TO.C,LED17*%
X220191666Y-119097866D02*
X220525000Y-119097866D01*
X220525000Y-118397866D01*
X219958333Y-118731200D02*
X219725000Y-118731200D01*
X219625000Y-119097866D02*
X219958333Y-119097866D01*
X219958333Y-118397866D01*
X219625000Y-118397866D01*
X219325000Y-119097866D02*
X219325000Y-118397866D01*
X219158333Y-118397866D01*
X219058333Y-118431200D01*
X218991666Y-118497866D01*
X218958333Y-118564533D01*
X218925000Y-118697866D01*
X218925000Y-118797866D01*
X218958333Y-118931200D01*
X218991666Y-118997866D01*
X219058333Y-119064533D01*
X219158333Y-119097866D01*
X219325000Y-119097866D01*
X218258333Y-119097866D02*
X218658333Y-119097866D01*
X218458333Y-119097866D02*
X218458333Y-118397866D01*
X218525000Y-118497866D01*
X218591666Y-118564533D01*
X218658333Y-118597866D01*
X218025000Y-118397866D02*
X217558333Y-118397866D01*
X217858333Y-119097866D01*
%TO.C,LED16*%
X220191666Y-80997866D02*
X220525000Y-80997866D01*
X220525000Y-80297866D01*
X219958333Y-80631200D02*
X219725000Y-80631200D01*
X219625000Y-80997866D02*
X219958333Y-80997866D01*
X219958333Y-80297866D01*
X219625000Y-80297866D01*
X219325000Y-80997866D02*
X219325000Y-80297866D01*
X219158333Y-80297866D01*
X219058333Y-80331200D01*
X218991666Y-80397866D01*
X218958333Y-80464533D01*
X218925000Y-80597866D01*
X218925000Y-80697866D01*
X218958333Y-80831200D01*
X218991666Y-80897866D01*
X219058333Y-80964533D01*
X219158333Y-80997866D01*
X219325000Y-80997866D01*
X218258333Y-80997866D02*
X218658333Y-80997866D01*
X218458333Y-80997866D02*
X218458333Y-80297866D01*
X218525000Y-80397866D01*
X218591666Y-80464533D01*
X218658333Y-80497866D01*
X217658333Y-80297866D02*
X217791666Y-80297866D01*
X217858333Y-80331200D01*
X217891666Y-80364533D01*
X217958333Y-80464533D01*
X217991666Y-80597866D01*
X217991666Y-80864533D01*
X217958333Y-80931200D01*
X217925000Y-80964533D01*
X217858333Y-80997866D01*
X217725000Y-80997866D01*
X217658333Y-80964533D01*
X217625000Y-80931200D01*
X217591666Y-80864533D01*
X217591666Y-80697866D01*
X217625000Y-80631200D01*
X217658333Y-80597866D01*
X217725000Y-80564533D01*
X217858333Y-80564533D01*
X217925000Y-80597866D01*
X217958333Y-80631200D01*
X217991666Y-80697866D01*
%TO.C,LED14*%
X201141666Y-128622866D02*
X201475000Y-128622866D01*
X201475000Y-127922866D01*
X200908333Y-128256200D02*
X200675000Y-128256200D01*
X200575000Y-128622866D02*
X200908333Y-128622866D01*
X200908333Y-127922866D01*
X200575000Y-127922866D01*
X200275000Y-128622866D02*
X200275000Y-127922866D01*
X200108333Y-127922866D01*
X200008333Y-127956200D01*
X199941666Y-128022866D01*
X199908333Y-128089533D01*
X199875000Y-128222866D01*
X199875000Y-128322866D01*
X199908333Y-128456200D01*
X199941666Y-128522866D01*
X200008333Y-128589533D01*
X200108333Y-128622866D01*
X200275000Y-128622866D01*
X199208333Y-128622866D02*
X199608333Y-128622866D01*
X199408333Y-128622866D02*
X199408333Y-127922866D01*
X199475000Y-128022866D01*
X199541666Y-128089533D01*
X199608333Y-128122866D01*
X198608333Y-128156200D02*
X198608333Y-128622866D01*
X198775000Y-127889533D02*
X198941666Y-128389533D01*
X198508333Y-128389533D01*
%TO.C,D13*%
X195168204Y-108566071D02*
X194368204Y-108566071D01*
X194368204Y-108756547D01*
X194406300Y-108870833D01*
X194482490Y-108947023D01*
X194558680Y-108985119D01*
X194711061Y-109023214D01*
X194825347Y-109023214D01*
X194977728Y-108985119D01*
X195053919Y-108947023D01*
X195130109Y-108870833D01*
X195168204Y-108756547D01*
X195168204Y-108566071D01*
X195168204Y-109785119D02*
X195168204Y-109327976D01*
X195168204Y-109556547D02*
X194368204Y-109556547D01*
X194482490Y-109480357D01*
X194558680Y-109404166D01*
X194596776Y-109327976D01*
X194368204Y-110051785D02*
X194368204Y-110547023D01*
X194672966Y-110280357D01*
X194672966Y-110394642D01*
X194711061Y-110470833D01*
X194749157Y-110508928D01*
X194825347Y-110547023D01*
X195015823Y-110547023D01*
X195092014Y-110508928D01*
X195130109Y-110470833D01*
X195168204Y-110394642D01*
X195168204Y-110166071D01*
X195130109Y-110089880D01*
X195092014Y-110051785D01*
%TO.C,R1*%
X224166666Y-25952380D02*
X224500000Y-25476190D01*
X224738095Y-25952380D02*
X224738095Y-24952380D01*
X224357142Y-24952380D01*
X224261904Y-25000000D01*
X224214285Y-25047619D01*
X224166666Y-25142857D01*
X224166666Y-25285714D01*
X224214285Y-25380952D01*
X224261904Y-25428571D01*
X224357142Y-25476190D01*
X224738095Y-25476190D01*
X223214285Y-25952380D02*
X223785714Y-25952380D01*
X223500000Y-25952380D02*
X223500000Y-24952380D01*
X223595238Y-25095238D01*
X223690476Y-25190476D01*
X223785714Y-25238095D01*
%TO.C,D11*%
X195168204Y-70466071D02*
X194368204Y-70466071D01*
X194368204Y-70656547D01*
X194406300Y-70770833D01*
X194482490Y-70847023D01*
X194558680Y-70885119D01*
X194711061Y-70923214D01*
X194825347Y-70923214D01*
X194977728Y-70885119D01*
X195053919Y-70847023D01*
X195130109Y-70770833D01*
X195168204Y-70656547D01*
X195168204Y-70466071D01*
X195168204Y-71685119D02*
X195168204Y-71227976D01*
X195168204Y-71456547D02*
X194368204Y-71456547D01*
X194482490Y-71380357D01*
X194558680Y-71304166D01*
X194596776Y-71227976D01*
X195168204Y-72447023D02*
X195168204Y-71989880D01*
X195168204Y-72218452D02*
X194368204Y-72218452D01*
X194482490Y-72142261D01*
X194558680Y-72066071D01*
X194596776Y-71989880D01*
%TO.C,P1*%
X211702380Y-26551904D02*
X210702380Y-26551904D01*
X210702380Y-26932857D01*
X210750000Y-27028095D01*
X210797619Y-27075714D01*
X210892857Y-27123333D01*
X211035714Y-27123333D01*
X211130952Y-27075714D01*
X211178571Y-27028095D01*
X211226190Y-26932857D01*
X211226190Y-26551904D01*
X211702380Y-28075714D02*
X211702380Y-27504285D01*
X211702380Y-27790000D02*
X210702380Y-27790000D01*
X210845238Y-27694761D01*
X210940476Y-27599523D01*
X210988095Y-27504285D01*
%TO.C,D5*%
X166593204Y-127997023D02*
X165793204Y-127997023D01*
X165793204Y-128187500D01*
X165831300Y-128301785D01*
X165907490Y-128377976D01*
X165983680Y-128416071D01*
X166136061Y-128454166D01*
X166250347Y-128454166D01*
X166402728Y-128416071D01*
X166478919Y-128377976D01*
X166555109Y-128301785D01*
X166593204Y-128187500D01*
X166593204Y-127997023D01*
X165793204Y-129177976D02*
X165793204Y-128797023D01*
X166174157Y-128758928D01*
X166136061Y-128797023D01*
X166097966Y-128873214D01*
X166097966Y-129063690D01*
X166136061Y-129139880D01*
X166174157Y-129177976D01*
X166250347Y-129216071D01*
X166440823Y-129216071D01*
X166517014Y-129177976D01*
X166555109Y-129139880D01*
X166593204Y-129063690D01*
X166593204Y-128873214D01*
X166555109Y-128797023D01*
X166517014Y-128758928D01*
%TO.C,D9*%
X176118204Y-108947023D02*
X175318204Y-108947023D01*
X175318204Y-109137500D01*
X175356300Y-109251785D01*
X175432490Y-109327976D01*
X175508680Y-109366071D01*
X175661061Y-109404166D01*
X175775347Y-109404166D01*
X175927728Y-109366071D01*
X176003919Y-109327976D01*
X176080109Y-109251785D01*
X176118204Y-109137500D01*
X176118204Y-108947023D01*
X176118204Y-109785119D02*
X176118204Y-109937500D01*
X176080109Y-110013690D01*
X176042014Y-110051785D01*
X175927728Y-110127976D01*
X175775347Y-110166071D01*
X175470585Y-110166071D01*
X175394395Y-110127976D01*
X175356300Y-110089880D01*
X175318204Y-110013690D01*
X175318204Y-109861309D01*
X175356300Y-109785119D01*
X175394395Y-109747023D01*
X175470585Y-109708928D01*
X175661061Y-109708928D01*
X175737252Y-109747023D01*
X175775347Y-109785119D01*
X175813442Y-109861309D01*
X175813442Y-110013690D01*
X175775347Y-110089880D01*
X175737252Y-110127976D01*
X175661061Y-110166071D01*
%TO.C,C8*%
X222666666Y-44357142D02*
X222714285Y-44404761D01*
X222857142Y-44452380D01*
X222952380Y-44452380D01*
X223095238Y-44404761D01*
X223190476Y-44309523D01*
X223238095Y-44214285D01*
X223285714Y-44023809D01*
X223285714Y-43880952D01*
X223238095Y-43690476D01*
X223190476Y-43595238D01*
X223095238Y-43500000D01*
X222952380Y-43452380D01*
X222857142Y-43452380D01*
X222714285Y-43500000D01*
X222666666Y-43547619D01*
X222095238Y-43880952D02*
X222190476Y-43833333D01*
X222238095Y-43785714D01*
X222285714Y-43690476D01*
X222285714Y-43642857D01*
X222238095Y-43547619D01*
X222190476Y-43500000D01*
X222095238Y-43452380D01*
X221904761Y-43452380D01*
X221809523Y-43500000D01*
X221761904Y-43547619D01*
X221714285Y-43642857D01*
X221714285Y-43690476D01*
X221761904Y-43785714D01*
X221809523Y-43833333D01*
X221904761Y-43880952D01*
X222095238Y-43880952D01*
X222190476Y-43928571D01*
X222238095Y-43976190D01*
X222285714Y-44071428D01*
X222285714Y-44261904D01*
X222238095Y-44357142D01*
X222190476Y-44404761D01*
X222095238Y-44452380D01*
X221904761Y-44452380D01*
X221809523Y-44404761D01*
X221761904Y-44357142D01*
X221714285Y-44261904D01*
X221714285Y-44071428D01*
X221761904Y-43976190D01*
X221809523Y-43928571D01*
X221904761Y-43880952D01*
%TO.C,D4*%
X157068204Y-108947023D02*
X156268204Y-108947023D01*
X156268204Y-109137500D01*
X156306300Y-109251785D01*
X156382490Y-109327976D01*
X156458680Y-109366071D01*
X156611061Y-109404166D01*
X156725347Y-109404166D01*
X156877728Y-109366071D01*
X156953919Y-109327976D01*
X157030109Y-109251785D01*
X157068204Y-109137500D01*
X157068204Y-108947023D01*
X156534871Y-110089880D02*
X157068204Y-110089880D01*
X156230109Y-109899404D02*
X156801538Y-109708928D01*
X156801538Y-110204166D01*
%TO.C,C5*%
X230037142Y-30333333D02*
X230084761Y-30285714D01*
X230132380Y-30142857D01*
X230132380Y-30047619D01*
X230084761Y-29904761D01*
X229989523Y-29809523D01*
X229894285Y-29761904D01*
X229703809Y-29714285D01*
X229560952Y-29714285D01*
X229370476Y-29761904D01*
X229275238Y-29809523D01*
X229180000Y-29904761D01*
X229132380Y-30047619D01*
X229132380Y-30142857D01*
X229180000Y-30285714D01*
X229227619Y-30333333D01*
X229132380Y-31238095D02*
X229132380Y-30761904D01*
X229608571Y-30714285D01*
X229560952Y-30761904D01*
X229513333Y-30857142D01*
X229513333Y-31095238D01*
X229560952Y-31190476D01*
X229608571Y-31238095D01*
X229703809Y-31285714D01*
X229941904Y-31285714D01*
X230037142Y-31238095D01*
X230084761Y-31190476D01*
X230132380Y-31095238D01*
X230132380Y-30857142D01*
X230084761Y-30761904D01*
X230037142Y-30714285D01*
%TO.C,D7*%
X176118204Y-70847023D02*
X175318204Y-70847023D01*
X175318204Y-71037500D01*
X175356300Y-71151785D01*
X175432490Y-71227976D01*
X175508680Y-71266071D01*
X175661061Y-71304166D01*
X175775347Y-71304166D01*
X175927728Y-71266071D01*
X176003919Y-71227976D01*
X176080109Y-71151785D01*
X176118204Y-71037500D01*
X176118204Y-70847023D01*
X175318204Y-71570833D02*
X175318204Y-72104166D01*
X176118204Y-71761309D01*
%TO.C,LED9*%
X181758333Y-109572866D02*
X182091666Y-109572866D01*
X182091666Y-108872866D01*
X181525000Y-109206200D02*
X181291666Y-109206200D01*
X181191666Y-109572866D02*
X181525000Y-109572866D01*
X181525000Y-108872866D01*
X181191666Y-108872866D01*
X180891666Y-109572866D02*
X180891666Y-108872866D01*
X180725000Y-108872866D01*
X180625000Y-108906200D01*
X180558333Y-108972866D01*
X180525000Y-109039533D01*
X180491666Y-109172866D01*
X180491666Y-109272866D01*
X180525000Y-109406200D01*
X180558333Y-109472866D01*
X180625000Y-109539533D01*
X180725000Y-109572866D01*
X180891666Y-109572866D01*
X180158333Y-109572866D02*
X180025000Y-109572866D01*
X179958333Y-109539533D01*
X179925000Y-109506200D01*
X179858333Y-109406200D01*
X179825000Y-109272866D01*
X179825000Y-109006200D01*
X179858333Y-108939533D01*
X179891666Y-108906200D01*
X179958333Y-108872866D01*
X180091666Y-108872866D01*
X180158333Y-108906200D01*
X180191666Y-108939533D01*
X180225000Y-109006200D01*
X180225000Y-109172866D01*
X180191666Y-109239533D01*
X180158333Y-109272866D01*
X180091666Y-109306200D01*
X179958333Y-109306200D01*
X179891666Y-109272866D01*
X179858333Y-109239533D01*
X179825000Y-109172866D01*
%TO.C,LED1*%
X162708333Y-52422866D02*
X163041666Y-52422866D01*
X163041666Y-51722866D01*
X162475000Y-52056200D02*
X162241666Y-52056200D01*
X162141666Y-52422866D02*
X162475000Y-52422866D01*
X162475000Y-51722866D01*
X162141666Y-51722866D01*
X161841666Y-52422866D02*
X161841666Y-51722866D01*
X161675000Y-51722866D01*
X161575000Y-51756200D01*
X161508333Y-51822866D01*
X161475000Y-51889533D01*
X161441666Y-52022866D01*
X161441666Y-52122866D01*
X161475000Y-52256200D01*
X161508333Y-52322866D01*
X161575000Y-52389533D01*
X161675000Y-52422866D01*
X161841666Y-52422866D01*
X160775000Y-52422866D02*
X161175000Y-52422866D01*
X160975000Y-52422866D02*
X160975000Y-51722866D01*
X161041666Y-51822866D01*
X161108333Y-51889533D01*
X161175000Y-51922866D01*
%TO.C,LED8*%
X181758333Y-90522866D02*
X182091666Y-90522866D01*
X182091666Y-89822866D01*
X181525000Y-90156200D02*
X181291666Y-90156200D01*
X181191666Y-90522866D02*
X181525000Y-90522866D01*
X181525000Y-89822866D01*
X181191666Y-89822866D01*
X180891666Y-90522866D02*
X180891666Y-89822866D01*
X180725000Y-89822866D01*
X180625000Y-89856200D01*
X180558333Y-89922866D01*
X180525000Y-89989533D01*
X180491666Y-90122866D01*
X180491666Y-90222866D01*
X180525000Y-90356200D01*
X180558333Y-90422866D01*
X180625000Y-90489533D01*
X180725000Y-90522866D01*
X180891666Y-90522866D01*
X180091666Y-90122866D02*
X180158333Y-90089533D01*
X180191666Y-90056200D01*
X180225000Y-89989533D01*
X180225000Y-89956200D01*
X180191666Y-89889533D01*
X180158333Y-89856200D01*
X180091666Y-89822866D01*
X179958333Y-89822866D01*
X179891666Y-89856200D01*
X179858333Y-89889533D01*
X179825000Y-89956200D01*
X179825000Y-89989533D01*
X179858333Y-90056200D01*
X179891666Y-90089533D01*
X179958333Y-90122866D01*
X180091666Y-90122866D01*
X180158333Y-90156200D01*
X180191666Y-90189533D01*
X180225000Y-90256200D01*
X180225000Y-90389533D01*
X180191666Y-90456200D01*
X180158333Y-90489533D01*
X180091666Y-90522866D01*
X179958333Y-90522866D01*
X179891666Y-90489533D01*
X179858333Y-90456200D01*
X179825000Y-90389533D01*
X179825000Y-90256200D01*
X179858333Y-90189533D01*
X179891666Y-90156200D01*
X179958333Y-90122866D01*
%TO.C,D10*%
X195168204Y-51416071D02*
X194368204Y-51416071D01*
X194368204Y-51606547D01*
X194406300Y-51720833D01*
X194482490Y-51797023D01*
X194558680Y-51835119D01*
X194711061Y-51873214D01*
X194825347Y-51873214D01*
X194977728Y-51835119D01*
X195053919Y-51797023D01*
X195130109Y-51720833D01*
X195168204Y-51606547D01*
X195168204Y-51416071D01*
X195168204Y-52635119D02*
X195168204Y-52177976D01*
X195168204Y-52406547D02*
X194368204Y-52406547D01*
X194482490Y-52330357D01*
X194558680Y-52254166D01*
X194596776Y-52177976D01*
X194368204Y-53130357D02*
X194368204Y-53206547D01*
X194406300Y-53282738D01*
X194444395Y-53320833D01*
X194520585Y-53358928D01*
X194672966Y-53397023D01*
X194863442Y-53397023D01*
X195015823Y-53358928D01*
X195092014Y-53320833D01*
X195130109Y-53282738D01*
X195168204Y-53206547D01*
X195168204Y-53130357D01*
X195130109Y-53054166D01*
X195092014Y-53016071D01*
X195015823Y-52977976D01*
X194863442Y-52939880D01*
X194672966Y-52939880D01*
X194520585Y-52977976D01*
X194444395Y-53016071D01*
X194406300Y-53054166D01*
X194368204Y-53130357D01*
%TO.C,C3*%
X214166666Y-25677142D02*
X214214285Y-25724761D01*
X214357142Y-25772380D01*
X214452380Y-25772380D01*
X214595238Y-25724761D01*
X214690476Y-25629523D01*
X214738095Y-25534285D01*
X214785714Y-25343809D01*
X214785714Y-25200952D01*
X214738095Y-25010476D01*
X214690476Y-24915238D01*
X214595238Y-24820000D01*
X214452380Y-24772380D01*
X214357142Y-24772380D01*
X214214285Y-24820000D01*
X214166666Y-24867619D01*
X213833333Y-24772380D02*
X213214285Y-24772380D01*
X213547619Y-25153333D01*
X213404761Y-25153333D01*
X213309523Y-25200952D01*
X213261904Y-25248571D01*
X213214285Y-25343809D01*
X213214285Y-25581904D01*
X213261904Y-25677142D01*
X213309523Y-25724761D01*
X213404761Y-25772380D01*
X213690476Y-25772380D01*
X213785714Y-25724761D01*
X213833333Y-25677142D01*
%TO.C,C6*%
X230037142Y-35333333D02*
X230084761Y-35285714D01*
X230132380Y-35142857D01*
X230132380Y-35047619D01*
X230084761Y-34904761D01*
X229989523Y-34809523D01*
X229894285Y-34761904D01*
X229703809Y-34714285D01*
X229560952Y-34714285D01*
X229370476Y-34761904D01*
X229275238Y-34809523D01*
X229180000Y-34904761D01*
X229132380Y-35047619D01*
X229132380Y-35142857D01*
X229180000Y-35285714D01*
X229227619Y-35333333D01*
X229132380Y-36190476D02*
X229132380Y-36000000D01*
X229180000Y-35904761D01*
X229227619Y-35857142D01*
X229370476Y-35761904D01*
X229560952Y-35714285D01*
X229941904Y-35714285D01*
X230037142Y-35761904D01*
X230084761Y-35809523D01*
X230132380Y-35904761D01*
X230132380Y-36095238D01*
X230084761Y-36190476D01*
X230037142Y-36238095D01*
X229941904Y-36285714D01*
X229703809Y-36285714D01*
X229608571Y-36238095D01*
X229560952Y-36190476D01*
X229513333Y-36095238D01*
X229513333Y-35904761D01*
X229560952Y-35809523D01*
X229608571Y-35761904D01*
X229703809Y-35714285D01*
%TO.C,D1*%
X157068204Y-51797023D02*
X156268204Y-51797023D01*
X156268204Y-51987500D01*
X156306300Y-52101785D01*
X156382490Y-52177976D01*
X156458680Y-52216071D01*
X156611061Y-52254166D01*
X156725347Y-52254166D01*
X156877728Y-52216071D01*
X156953919Y-52177976D01*
X157030109Y-52101785D01*
X157068204Y-51987500D01*
X157068204Y-51797023D01*
X157068204Y-53016071D02*
X157068204Y-52558928D01*
X157068204Y-52787500D02*
X156268204Y-52787500D01*
X156382490Y-52711309D01*
X156458680Y-52635119D01*
X156496776Y-52558928D01*
%TO.C,LED10*%
X201141666Y-52422866D02*
X201475000Y-52422866D01*
X201475000Y-51722866D01*
X200908333Y-52056200D02*
X200675000Y-52056200D01*
X200575000Y-52422866D02*
X200908333Y-52422866D01*
X200908333Y-51722866D01*
X200575000Y-51722866D01*
X200275000Y-52422866D02*
X200275000Y-51722866D01*
X200108333Y-51722866D01*
X200008333Y-51756200D01*
X199941666Y-51822866D01*
X199908333Y-51889533D01*
X199875000Y-52022866D01*
X199875000Y-52122866D01*
X199908333Y-52256200D01*
X199941666Y-52322866D01*
X200008333Y-52389533D01*
X200108333Y-52422866D01*
X200275000Y-52422866D01*
X199208333Y-52422866D02*
X199608333Y-52422866D01*
X199408333Y-52422866D02*
X199408333Y-51722866D01*
X199475000Y-51822866D01*
X199541666Y-51889533D01*
X199608333Y-51922866D01*
X198775000Y-51722866D02*
X198708333Y-51722866D01*
X198641666Y-51756200D01*
X198608333Y-51789533D01*
X198575000Y-51856200D01*
X198541666Y-51989533D01*
X198541666Y-52156200D01*
X198575000Y-52289533D01*
X198608333Y-52356200D01*
X198641666Y-52389533D01*
X198708333Y-52422866D01*
X198775000Y-52422866D01*
X198841666Y-52389533D01*
X198875000Y-52356200D01*
X198908333Y-52289533D01*
X198941666Y-52156200D01*
X198941666Y-51989533D01*
X198908333Y-51856200D01*
X198875000Y-51789533D01*
X198841666Y-51756200D01*
X198775000Y-51722866D01*
%TO.C,SW1*%
X220408333Y-73210961D02*
X220265476Y-73258580D01*
X220027380Y-73258580D01*
X219932142Y-73210961D01*
X219884523Y-73163342D01*
X219836904Y-73068104D01*
X219836904Y-72972866D01*
X219884523Y-72877628D01*
X219932142Y-72830009D01*
X220027380Y-72782390D01*
X220217857Y-72734771D01*
X220313095Y-72687152D01*
X220360714Y-72639533D01*
X220408333Y-72544295D01*
X220408333Y-72449057D01*
X220360714Y-72353819D01*
X220313095Y-72306200D01*
X220217857Y-72258580D01*
X219979761Y-72258580D01*
X219836904Y-72306200D01*
X219503571Y-72258580D02*
X219265476Y-73258580D01*
X219075000Y-72544295D01*
X218884523Y-73258580D01*
X218646428Y-72258580D01*
X217741666Y-73258580D02*
X218313095Y-73258580D01*
X218027380Y-73258580D02*
X218027380Y-72258580D01*
X218122619Y-72401438D01*
X218217857Y-72496676D01*
X218313095Y-72544295D01*
%TO.C,LED7*%
X181758333Y-71472866D02*
X182091666Y-71472866D01*
X182091666Y-70772866D01*
X181525000Y-71106200D02*
X181291666Y-71106200D01*
X181191666Y-71472866D02*
X181525000Y-71472866D01*
X181525000Y-70772866D01*
X181191666Y-70772866D01*
X180891666Y-71472866D02*
X180891666Y-70772866D01*
X180725000Y-70772866D01*
X180625000Y-70806200D01*
X180558333Y-70872866D01*
X180525000Y-70939533D01*
X180491666Y-71072866D01*
X180491666Y-71172866D01*
X180525000Y-71306200D01*
X180558333Y-71372866D01*
X180625000Y-71439533D01*
X180725000Y-71472866D01*
X180891666Y-71472866D01*
X180258333Y-70772866D02*
X179791666Y-70772866D01*
X180091666Y-71472866D01*
%TO.C,LED6*%
X181758333Y-52422866D02*
X182091666Y-52422866D01*
X182091666Y-51722866D01*
X181525000Y-52056200D02*
X181291666Y-52056200D01*
X181191666Y-52422866D02*
X181525000Y-52422866D01*
X181525000Y-51722866D01*
X181191666Y-51722866D01*
X180891666Y-52422866D02*
X180891666Y-51722866D01*
X180725000Y-51722866D01*
X180625000Y-51756200D01*
X180558333Y-51822866D01*
X180525000Y-51889533D01*
X180491666Y-52022866D01*
X180491666Y-52122866D01*
X180525000Y-52256200D01*
X180558333Y-52322866D01*
X180625000Y-52389533D01*
X180725000Y-52422866D01*
X180891666Y-52422866D01*
X179891666Y-51722866D02*
X180025000Y-51722866D01*
X180091666Y-51756200D01*
X180125000Y-51789533D01*
X180191666Y-51889533D01*
X180225000Y-52022866D01*
X180225000Y-52289533D01*
X180191666Y-52356200D01*
X180158333Y-52389533D01*
X180091666Y-52422866D01*
X179958333Y-52422866D01*
X179891666Y-52389533D01*
X179858333Y-52356200D01*
X179825000Y-52289533D01*
X179825000Y-52122866D01*
X179858333Y-52056200D01*
X179891666Y-52022866D01*
X179958333Y-51989533D01*
X180091666Y-51989533D01*
X180158333Y-52022866D01*
X180191666Y-52056200D01*
X180225000Y-52122866D01*
%TO.C,D2*%
X157068204Y-70847023D02*
X156268204Y-70847023D01*
X156268204Y-71037500D01*
X156306300Y-71151785D01*
X156382490Y-71227976D01*
X156458680Y-71266071D01*
X156611061Y-71304166D01*
X156725347Y-71304166D01*
X156877728Y-71266071D01*
X156953919Y-71227976D01*
X157030109Y-71151785D01*
X157068204Y-71037500D01*
X157068204Y-70847023D01*
X156344395Y-71608928D02*
X156306300Y-71647023D01*
X156268204Y-71723214D01*
X156268204Y-71913690D01*
X156306300Y-71989880D01*
X156344395Y-72027976D01*
X156420585Y-72066071D01*
X156496776Y-72066071D01*
X156611061Y-72027976D01*
X157068204Y-71570833D01*
X157068204Y-72066071D01*
%TO.C,D16*%
X214218204Y-79991071D02*
X213418204Y-79991071D01*
X213418204Y-80181547D01*
X213456300Y-80295833D01*
X213532490Y-80372023D01*
X213608680Y-80410119D01*
X213761061Y-80448214D01*
X213875347Y-80448214D01*
X214027728Y-80410119D01*
X214103919Y-80372023D01*
X214180109Y-80295833D01*
X214218204Y-80181547D01*
X214218204Y-79991071D01*
X214218204Y-81210119D02*
X214218204Y-80752976D01*
X214218204Y-80981547D02*
X213418204Y-80981547D01*
X213532490Y-80905357D01*
X213608680Y-80829166D01*
X213646776Y-80752976D01*
X213418204Y-81895833D02*
X213418204Y-81743452D01*
X213456300Y-81667261D01*
X213494395Y-81629166D01*
X213608680Y-81552976D01*
X213761061Y-81514880D01*
X214065823Y-81514880D01*
X214142014Y-81552976D01*
X214180109Y-81591071D01*
X214218204Y-81667261D01*
X214218204Y-81819642D01*
X214180109Y-81895833D01*
X214142014Y-81933928D01*
X214065823Y-81972023D01*
X213875347Y-81972023D01*
X213799157Y-81933928D01*
X213761061Y-81895833D01*
X213722966Y-81819642D01*
X213722966Y-81667261D01*
X213761061Y-81591071D01*
X213799157Y-81552976D01*
X213875347Y-81514880D01*
%TO.C,K5*%
X175260000Y-137953700D02*
X166370000Y-137953700D01*
X166370000Y-133508700D02*
X171450000Y-133508700D01*
X177419000Y-131603700D02*
X177800000Y-131603700D01*
X177800000Y-131984700D02*
X177800000Y-131603700D01*
X166370000Y-134524700D02*
X166370000Y-133508700D01*
X166370000Y-137953700D02*
X166370000Y-137572700D01*
X173914162Y-131603700D02*
X177419000Y-131603700D01*
X177800000Y-135413700D02*
X177800000Y-135032700D01*
X175260000Y-137953700D02*
G75*
G03*
X177800000Y-135413700I-1J2540001D01*
G01*
X171450000Y-133508701D02*
G75*
G03*
X173914162Y-131584740I0J2540000D01*
G01*
%TO.C,K9*%
X175895000Y-118903700D02*
X175895000Y-118522700D01*
X175895000Y-115474700D02*
X175895000Y-114458700D01*
X183439162Y-112553700D02*
X186944000Y-112553700D01*
X187325000Y-112934700D02*
X187325000Y-112553700D01*
X187325000Y-116363700D02*
X187325000Y-115982700D01*
X186944000Y-112553700D02*
X187325000Y-112553700D01*
X184785000Y-118903700D02*
X175895000Y-118903700D01*
X175895000Y-114458700D02*
X180975000Y-114458700D01*
X184785000Y-118903700D02*
G75*
G03*
X187325000Y-116363700I-1J2540001D01*
G01*
X180975000Y-114458701D02*
G75*
G03*
X183439162Y-112534740I0J2540000D01*
G01*
%TO.C,K12*%
X194945000Y-96424700D02*
X194945000Y-95408700D01*
X194945000Y-99853700D02*
X194945000Y-99472700D01*
X206375000Y-93884700D02*
X206375000Y-93503700D01*
X194945000Y-95408700D02*
X200025000Y-95408700D01*
X206375000Y-97313700D02*
X206375000Y-96932700D01*
X203835000Y-99853700D02*
X194945000Y-99853700D01*
X205994000Y-93503700D02*
X206375000Y-93503700D01*
X202489162Y-93503700D02*
X205994000Y-93503700D01*
X203835000Y-99853700D02*
G75*
G03*
X206375000Y-97313700I-1J2540001D01*
G01*
X200025000Y-95408701D02*
G75*
G03*
X202489162Y-93484740I0J2540000D01*
G01*
%TO.C,K16*%
X213995000Y-85883700D02*
X219075000Y-85883700D01*
X221539162Y-83978700D02*
X225044000Y-83978700D01*
X213995000Y-90328700D02*
X213995000Y-89947700D01*
X225425000Y-87788700D02*
X225425000Y-87407700D01*
X225425000Y-84359700D02*
X225425000Y-83978700D01*
X213995000Y-86899700D02*
X213995000Y-85883700D01*
X225044000Y-83978700D02*
X225425000Y-83978700D01*
X222885000Y-90328700D02*
X213995000Y-90328700D01*
X222885000Y-90328700D02*
G75*
G03*
X225425000Y-87788700I-1J2540001D01*
G01*
X219075000Y-85883701D02*
G75*
G03*
X221539162Y-83959740I0J2540000D01*
G01*
%TO.C,K7*%
X187325000Y-74834700D02*
X187325000Y-74453700D01*
X175895000Y-77374700D02*
X175895000Y-76358700D01*
X187325000Y-78263700D02*
X187325000Y-77882700D01*
X184785000Y-80803700D02*
X175895000Y-80803700D01*
X175895000Y-80803700D02*
X175895000Y-80422700D01*
X183439162Y-74453700D02*
X186944000Y-74453700D01*
X186944000Y-74453700D02*
X187325000Y-74453700D01*
X175895000Y-76358700D02*
X180975000Y-76358700D01*
X180975000Y-76358701D02*
G75*
G03*
X183439162Y-74434740I0J2540000D01*
G01*
X184785000Y-80803700D02*
G75*
G03*
X187325000Y-78263700I-1J2540001D01*
G01*
%TO.C,K6*%
X187325000Y-55784700D02*
X187325000Y-55403700D01*
X175895000Y-61753700D02*
X175895000Y-61372700D01*
X184785000Y-61753700D02*
X175895000Y-61753700D01*
X187325000Y-59213700D02*
X187325000Y-58832700D01*
X175895000Y-58324700D02*
X175895000Y-57308700D01*
X175895000Y-57308700D02*
X180975000Y-57308700D01*
X183439162Y-55403700D02*
X186944000Y-55403700D01*
X186944000Y-55403700D02*
X187325000Y-55403700D01*
X180975000Y-57308701D02*
G75*
G03*
X183439162Y-55384740I0J2540000D01*
G01*
X184785000Y-61753700D02*
G75*
G03*
X187325000Y-59213700I-1J2540001D01*
G01*
%TO.C,K1*%
X164389162Y-55403700D02*
X167894000Y-55403700D01*
X156845000Y-61753700D02*
X156845000Y-61372700D01*
X167894000Y-55403700D02*
X168275000Y-55403700D01*
X168275000Y-59213700D02*
X168275000Y-58832700D01*
X168275000Y-55784700D02*
X168275000Y-55403700D01*
X156845000Y-57308700D02*
X161925000Y-57308700D01*
X156845000Y-58324700D02*
X156845000Y-57308700D01*
X165735000Y-61753700D02*
X156845000Y-61753700D01*
X161925000Y-57308701D02*
G75*
G03*
X164389162Y-55384740I0J2540000D01*
G01*
X165735000Y-61753700D02*
G75*
G03*
X168275000Y-59213700I-1J2540001D01*
G01*
%TO.C,K13*%
X194945000Y-114458700D02*
X200025000Y-114458700D01*
X203835000Y-118903700D02*
X194945000Y-118903700D01*
X194945000Y-115474700D02*
X194945000Y-114458700D01*
X202489162Y-112553700D02*
X205994000Y-112553700D01*
X205994000Y-112553700D02*
X206375000Y-112553700D01*
X206375000Y-112934700D02*
X206375000Y-112553700D01*
X194945000Y-118903700D02*
X194945000Y-118522700D01*
X206375000Y-116363700D02*
X206375000Y-115982700D01*
X200025000Y-114458701D02*
G75*
G03*
X202489162Y-112534740I0J2540000D01*
G01*
X203835000Y-118903700D02*
G75*
G03*
X206375000Y-116363700I-1J2540001D01*
G01*
%TO.C,K2*%
X167894000Y-74453700D02*
X168275000Y-74453700D01*
X156845000Y-76358700D02*
X161925000Y-76358700D01*
X168275000Y-74834700D02*
X168275000Y-74453700D01*
X168275000Y-78263700D02*
X168275000Y-77882700D01*
X156845000Y-80803700D02*
X156845000Y-80422700D01*
X164389162Y-74453700D02*
X167894000Y-74453700D01*
X165735000Y-80803700D02*
X156845000Y-80803700D01*
X156845000Y-77374700D02*
X156845000Y-76358700D01*
X161925000Y-76358701D02*
G75*
G03*
X164389162Y-74434740I0J2540000D01*
G01*
X165735000Y-80803700D02*
G75*
G03*
X168275000Y-78263700I-1J2540001D01*
G01*
%TO.C,K8*%
X183439162Y-93503700D02*
X186944000Y-93503700D01*
X175895000Y-99853700D02*
X175895000Y-99472700D01*
X184785000Y-99853700D02*
X175895000Y-99853700D01*
X187325000Y-97313700D02*
X187325000Y-96932700D01*
X187325000Y-93884700D02*
X187325000Y-93503700D01*
X175895000Y-95408700D02*
X180975000Y-95408700D01*
X186944000Y-93503700D02*
X187325000Y-93503700D01*
X175895000Y-96424700D02*
X175895000Y-95408700D01*
X180975000Y-95408701D02*
G75*
G03*
X183439162Y-93484740I0J2540000D01*
G01*
X184785000Y-99853700D02*
G75*
G03*
X187325000Y-97313700I-1J2540001D01*
G01*
%TO.C,K3*%
X165735000Y-99853700D02*
X156845000Y-99853700D01*
X168275000Y-93884700D02*
X168275000Y-93503700D01*
X156845000Y-96424700D02*
X156845000Y-95408700D01*
X156845000Y-95408700D02*
X161925000Y-95408700D01*
X167894000Y-93503700D02*
X168275000Y-93503700D01*
X164389162Y-93503700D02*
X167894000Y-93503700D01*
X168275000Y-97313700D02*
X168275000Y-96932700D01*
X156845000Y-99853700D02*
X156845000Y-99472700D01*
X161925000Y-95408701D02*
G75*
G03*
X164389162Y-93484740I0J2540000D01*
G01*
X165735000Y-99853700D02*
G75*
G03*
X168275000Y-97313700I-1J2540001D01*
G01*
%TO.C,K17*%
X225425000Y-125888700D02*
X225425000Y-125507700D01*
X221539162Y-122078700D02*
X225044000Y-122078700D01*
X213995000Y-124999700D02*
X213995000Y-123983700D01*
X222885000Y-128428700D02*
X213995000Y-128428700D01*
X225044000Y-122078700D02*
X225425000Y-122078700D01*
X213995000Y-123983700D02*
X219075000Y-123983700D01*
X225425000Y-122459700D02*
X225425000Y-122078700D01*
X213995000Y-128428700D02*
X213995000Y-128047700D01*
X222885000Y-128428700D02*
G75*
G03*
X225425000Y-125888700I-1J2540001D01*
G01*
X219075000Y-123983701D02*
G75*
G03*
X221539162Y-122059740I0J2540000D01*
G01*
%TO.C,K11*%
X203835000Y-80803700D02*
X194945000Y-80803700D01*
X194945000Y-77374700D02*
X194945000Y-76358700D01*
X194945000Y-80803700D02*
X194945000Y-80422700D01*
X202489162Y-74453700D02*
X205994000Y-74453700D01*
X206375000Y-74834700D02*
X206375000Y-74453700D01*
X205994000Y-74453700D02*
X206375000Y-74453700D01*
X206375000Y-78263700D02*
X206375000Y-77882700D01*
X194945000Y-76358700D02*
X200025000Y-76358700D01*
X203835000Y-80803700D02*
G75*
G03*
X206375000Y-78263700I-1J2540001D01*
G01*
X200025000Y-76358701D02*
G75*
G03*
X202489162Y-74434740I0J2540000D01*
G01*
%TO.C,K10*%
X194945000Y-61753700D02*
X194945000Y-61372700D01*
X194945000Y-57308700D02*
X200025000Y-57308700D01*
X202489162Y-55403700D02*
X205994000Y-55403700D01*
X205994000Y-55403700D02*
X206375000Y-55403700D01*
X203835000Y-61753700D02*
X194945000Y-61753700D01*
X206375000Y-55784700D02*
X206375000Y-55403700D01*
X194945000Y-58324700D02*
X194945000Y-57308700D01*
X206375000Y-59213700D02*
X206375000Y-58832700D01*
X200025000Y-57308701D02*
G75*
G03*
X202489162Y-55384740I0J2540000D01*
G01*
X203835000Y-61753700D02*
G75*
G03*
X206375000Y-59213700I-1J2540001D01*
G01*
%TO.C,K14*%
X194945000Y-134524700D02*
X194945000Y-133508700D01*
X194945000Y-137953700D02*
X194945000Y-137572700D01*
X206375000Y-135413700D02*
X206375000Y-135032700D01*
X206375000Y-131984700D02*
X206375000Y-131603700D01*
X205994000Y-131603700D02*
X206375000Y-131603700D01*
X202489162Y-131603700D02*
X205994000Y-131603700D01*
X203835000Y-137953700D02*
X194945000Y-137953700D01*
X194945000Y-133508700D02*
X200025000Y-133508700D01*
X200025000Y-133508701D02*
G75*
G03*
X202489162Y-131584740I0J2540000D01*
G01*
X203835000Y-137953700D02*
G75*
G03*
X206375000Y-135413700I-1J2540001D01*
G01*
%TO.C,K4*%
X156845000Y-114458750D02*
X161925000Y-114458750D01*
X165735000Y-118903750D02*
X156845000Y-118903750D01*
X156845000Y-115474750D02*
X156845000Y-114458750D01*
X168275000Y-112934750D02*
X168275000Y-112553750D01*
X167894000Y-112553750D02*
X168275000Y-112553750D01*
X164389162Y-112553750D02*
X167894000Y-112553750D01*
X156845000Y-118903750D02*
X156845000Y-118522750D01*
X168275000Y-116363750D02*
X168275000Y-115982750D01*
X165735000Y-118903750D02*
G75*
G03*
X168275000Y-116363750I-1J2540001D01*
G01*
X161925000Y-114458751D02*
G75*
G03*
X164389162Y-112534790I0J2540000D01*
G01*
%TO.C,K15*%
X222885000Y-61753700D02*
X213995000Y-61753700D01*
X213995000Y-58324700D02*
X213995000Y-57308700D01*
X213995000Y-57308700D02*
X219075000Y-57308700D01*
X225425000Y-59213700D02*
X225425000Y-58832700D01*
X221539162Y-55403700D02*
X225044000Y-55403700D01*
X225044000Y-55403700D02*
X225425000Y-55403700D01*
X225425000Y-55784700D02*
X225425000Y-55403700D01*
X213995000Y-61753700D02*
X213995000Y-61372700D01*
X222885000Y-61753700D02*
G75*
G03*
X225425000Y-59213700I-1J2540001D01*
G01*
X219075000Y-57308701D02*
G75*
G03*
X221539162Y-55384740I0J2540000D01*
G01*
D12*
%TO.C,R6*%
X225727064Y-67735000D02*
X225272936Y-67735000D01*
X225727064Y-66265000D02*
X225272936Y-66265000D01*
D13*
%TO.C,D12*%
X191681300Y-88037500D02*
X194081300Y-88037500D01*
X191681300Y-88212500D02*
X194081300Y-88212500D01*
X194081300Y-87462500D02*
X191681300Y-87462500D01*
X191681300Y-87487500D02*
X191681300Y-93287500D01*
X191681300Y-87687500D02*
X194081300Y-87687500D01*
X191681300Y-87562500D02*
X194081300Y-87562500D01*
X191681300Y-93287500D02*
X194081300Y-93287500D01*
X191681300Y-87862500D02*
X194081300Y-87862500D01*
X194081300Y-93287500D02*
X194081300Y-87487500D01*
D10*
%TO.C,LED12*%
X197225000Y-86706200D02*
X197825000Y-86706200D01*
X197825000Y-86706200D02*
X197825000Y-86106200D01*
X197825000Y-86106200D02*
X197225000Y-86706200D01*
G36*
X197825000Y-86706200D02*
G01*
X197225000Y-86706200D01*
X197825000Y-86106200D01*
X197825000Y-86706200D01*
G37*
X197825000Y-86706200D02*
X197225000Y-86706200D01*
X197825000Y-86106200D01*
X197825000Y-86706200D01*
D13*
%TO.C,D14*%
X194081300Y-131387500D02*
X194081300Y-125587500D01*
X191681300Y-125962500D02*
X194081300Y-125962500D01*
X191681300Y-125787500D02*
X194081300Y-125787500D01*
X191681300Y-125662500D02*
X194081300Y-125662500D01*
X191681300Y-131387500D02*
X194081300Y-131387500D01*
X194081300Y-125562500D02*
X191681300Y-125562500D01*
X191681300Y-126312500D02*
X194081300Y-126312500D01*
X191681300Y-125587500D02*
X191681300Y-131387500D01*
X191681300Y-126137500D02*
X194081300Y-126137500D01*
D10*
%TO.C,LED3*%
X159125000Y-86706200D02*
X159725000Y-86706200D01*
X159725000Y-86706200D02*
X159725000Y-86106200D01*
X159725000Y-86106200D02*
X159125000Y-86706200D01*
G36*
X159725000Y-86706200D02*
G01*
X159125000Y-86706200D01*
X159725000Y-86106200D01*
X159725000Y-86706200D01*
G37*
X159725000Y-86706200D02*
X159125000Y-86706200D01*
X159725000Y-86106200D01*
X159725000Y-86706200D01*
D12*
%TO.C,C7*%
X228735000Y-40761252D02*
X228735000Y-40238748D01*
X227265000Y-40761252D02*
X227265000Y-40238748D01*
D13*
%TO.C,D8*%
X172631300Y-87562500D02*
X175031300Y-87562500D01*
X172631300Y-93287500D02*
X175031300Y-93287500D01*
X172631300Y-87687500D02*
X175031300Y-87687500D01*
X172631300Y-88212500D02*
X175031300Y-88212500D01*
X175031300Y-87462500D02*
X172631300Y-87462500D01*
X172631300Y-87487500D02*
X172631300Y-93287500D01*
X175031300Y-93287500D02*
X175031300Y-87487500D01*
X172631300Y-88037500D02*
X175031300Y-88037500D01*
X172631300Y-87862500D02*
X175031300Y-87862500D01*
%TO.C,D6*%
X172631300Y-50112500D02*
X175031300Y-50112500D01*
X175031300Y-49362500D02*
X172631300Y-49362500D01*
X172631300Y-49937500D02*
X175031300Y-49937500D01*
X172631300Y-55187500D02*
X175031300Y-55187500D01*
X172631300Y-49387500D02*
X172631300Y-55187500D01*
X172631300Y-49587500D02*
X175031300Y-49587500D01*
X175031300Y-55187500D02*
X175031300Y-49387500D01*
X172631300Y-49462500D02*
X175031300Y-49462500D01*
X172631300Y-49762500D02*
X175031300Y-49762500D01*
D10*
%TO.C,LED15*%
X216275000Y-48606200D02*
X216875000Y-48606200D01*
X216875000Y-48606200D02*
X216875000Y-48006200D01*
X216875000Y-48006200D02*
X216275000Y-48606200D01*
G36*
X216875000Y-48606200D02*
G01*
X216275000Y-48606200D01*
X216875000Y-48006200D01*
X216875000Y-48606200D01*
G37*
X216875000Y-48606200D02*
X216275000Y-48606200D01*
X216875000Y-48006200D01*
X216875000Y-48606200D01*
%TO.C,LED2*%
X159125000Y-67656200D02*
X159725000Y-67656200D01*
X159725000Y-67656200D02*
X159725000Y-67056200D01*
X159725000Y-67056200D02*
X159125000Y-67656200D01*
G36*
X159725000Y-67656200D02*
G01*
X159125000Y-67656200D01*
X159725000Y-67056200D01*
X159725000Y-67656200D01*
G37*
X159725000Y-67656200D02*
X159125000Y-67656200D01*
X159725000Y-67056200D01*
X159725000Y-67656200D01*
%TO.C,LED13*%
X197225000Y-105756200D02*
X197825000Y-105756200D01*
X197825000Y-105756200D02*
X197825000Y-105156200D01*
X197825000Y-105156200D02*
X197225000Y-105756200D01*
G36*
X197825000Y-105756200D02*
G01*
X197225000Y-105756200D01*
X197825000Y-105156200D01*
X197825000Y-105756200D01*
G37*
X197825000Y-105756200D02*
X197225000Y-105756200D01*
X197825000Y-105156200D01*
X197825000Y-105756200D01*
D13*
%TO.C,D3*%
X153581300Y-88037500D02*
X155981300Y-88037500D01*
X155981300Y-93287500D02*
X155981300Y-87487500D01*
X153581300Y-87862500D02*
X155981300Y-87862500D01*
X153581300Y-88212500D02*
X155981300Y-88212500D01*
X153581300Y-87687500D02*
X155981300Y-87687500D01*
X155981300Y-87462500D02*
X153581300Y-87462500D01*
X153581300Y-87487500D02*
X153581300Y-93287500D01*
X153581300Y-87562500D02*
X155981300Y-87562500D01*
X153581300Y-93287500D02*
X155981300Y-93287500D01*
D10*
%TO.C,LED4*%
X159125000Y-105756200D02*
X159725000Y-105756200D01*
X159725000Y-105756200D02*
X159725000Y-105156200D01*
X159725000Y-105156200D02*
X159125000Y-105756200D01*
G36*
X159725000Y-105756200D02*
G01*
X159125000Y-105756200D01*
X159725000Y-105156200D01*
X159725000Y-105756200D01*
G37*
X159725000Y-105756200D02*
X159125000Y-105756200D01*
X159725000Y-105156200D01*
X159725000Y-105756200D01*
D12*
%TO.C,C4*%
X218761252Y-27735000D02*
X218238748Y-27735000D01*
X218761252Y-26265000D02*
X218238748Y-26265000D01*
D13*
%TO.C,D15*%
X210731300Y-49937500D02*
X213131300Y-49937500D01*
X210731300Y-49587500D02*
X213131300Y-49587500D01*
X213131300Y-49362500D02*
X210731300Y-49362500D01*
X213131300Y-55187500D02*
X213131300Y-49387500D01*
X210731300Y-49762500D02*
X213131300Y-49762500D01*
X210731300Y-55187500D02*
X213131300Y-55187500D01*
X210731300Y-49462500D02*
X213131300Y-49462500D01*
X210731300Y-49387500D02*
X210731300Y-55187500D01*
X210731300Y-50112500D02*
X213131300Y-50112500D01*
%TO.C,D17*%
X210731300Y-116787500D02*
X213131300Y-116787500D01*
X210731300Y-116262500D02*
X213131300Y-116262500D01*
X213131300Y-121862500D02*
X213131300Y-116062500D01*
X210731300Y-116437500D02*
X213131300Y-116437500D01*
X210731300Y-116062500D02*
X210731300Y-121862500D01*
X213131300Y-116037500D02*
X210731300Y-116037500D01*
X210731300Y-116612500D02*
X213131300Y-116612500D01*
X210731300Y-116137500D02*
X213131300Y-116137500D01*
X210731300Y-121862500D02*
X213131300Y-121862500D01*
D10*
%TO.C,LED5*%
X168650000Y-124806200D02*
X169250000Y-124806200D01*
X169250000Y-124806200D02*
X169250000Y-124206200D01*
X169250000Y-124206200D02*
X168650000Y-124806200D01*
G36*
X169250000Y-124806200D02*
G01*
X168650000Y-124806200D01*
X169250000Y-124206200D01*
X169250000Y-124806200D01*
G37*
X169250000Y-124806200D02*
X168650000Y-124806200D01*
X169250000Y-124206200D01*
X169250000Y-124806200D01*
%TO.C,LED11*%
X197225000Y-67656200D02*
X197825000Y-67656200D01*
X197825000Y-67656200D02*
X197825000Y-67056200D01*
X197825000Y-67056200D02*
X197225000Y-67656200D01*
G36*
X197825000Y-67656200D02*
G01*
X197225000Y-67656200D01*
X197825000Y-67056200D01*
X197825000Y-67656200D01*
G37*
X197825000Y-67656200D02*
X197225000Y-67656200D01*
X197825000Y-67056200D01*
X197825000Y-67656200D01*
%TO.C,LED17*%
X216275000Y-115281200D02*
X216875000Y-115281200D01*
X216875000Y-115281200D02*
X216875000Y-114681200D01*
X216875000Y-114681200D02*
X216275000Y-115281200D01*
G36*
X216875000Y-115281200D02*
G01*
X216275000Y-115281200D01*
X216875000Y-114681200D01*
X216875000Y-115281200D01*
G37*
X216875000Y-115281200D02*
X216275000Y-115281200D01*
X216875000Y-114681200D01*
X216875000Y-115281200D01*
%TO.C,LED16*%
X216275000Y-77181200D02*
X216875000Y-77181200D01*
X216875000Y-77181200D02*
X216875000Y-76581200D01*
X216875000Y-76581200D02*
X216275000Y-77181200D01*
G36*
X216875000Y-77181200D02*
G01*
X216275000Y-77181200D01*
X216875000Y-76581200D01*
X216875000Y-77181200D01*
G37*
X216875000Y-77181200D02*
X216275000Y-77181200D01*
X216875000Y-76581200D01*
X216875000Y-77181200D01*
%TO.C,LED14*%
X197225000Y-124806200D02*
X197825000Y-124806200D01*
X197825000Y-124806200D02*
X197825000Y-124206200D01*
X197825000Y-124206200D02*
X197225000Y-124806200D01*
G36*
X197825000Y-124806200D02*
G01*
X197225000Y-124806200D01*
X197825000Y-124206200D01*
X197825000Y-124806200D01*
G37*
X197825000Y-124806200D02*
X197225000Y-124806200D01*
X197825000Y-124206200D01*
X197825000Y-124806200D01*
D13*
%TO.C,D13*%
X191681300Y-106912500D02*
X194081300Y-106912500D01*
X191681300Y-112337500D02*
X194081300Y-112337500D01*
X191681300Y-106612500D02*
X194081300Y-106612500D01*
X194081300Y-106512500D02*
X191681300Y-106512500D01*
X191681300Y-106537500D02*
X191681300Y-112337500D01*
X191681300Y-107087500D02*
X194081300Y-107087500D01*
X191681300Y-106737500D02*
X194081300Y-106737500D01*
X191681300Y-107262500D02*
X194081300Y-107262500D01*
X194081300Y-112337500D02*
X194081300Y-106537500D01*
D12*
%TO.C,R1*%
X223772936Y-26265000D02*
X224227064Y-26265000D01*
X223772936Y-27735000D02*
X224227064Y-27735000D01*
D13*
%TO.C,D11*%
X191681300Y-68987500D02*
X194081300Y-68987500D01*
X191681300Y-68812500D02*
X194081300Y-68812500D01*
X194081300Y-68412500D02*
X191681300Y-68412500D01*
X191681300Y-69162500D02*
X194081300Y-69162500D01*
X191681300Y-68637500D02*
X194081300Y-68637500D01*
X191681300Y-68512500D02*
X194081300Y-68512500D01*
X194081300Y-74237500D02*
X194081300Y-68437500D01*
X191681300Y-68437500D02*
X191681300Y-74237500D01*
X191681300Y-74237500D02*
X194081300Y-74237500D01*
D12*
%TO.C,P1*%
X208500000Y-28100000D02*
X208500000Y-27685000D01*
X203554102Y-26480000D02*
X203190000Y-26480000D01*
X206554102Y-26480000D02*
X206445898Y-26480000D01*
X209810000Y-26315000D02*
X209000000Y-26315000D01*
X204554102Y-26480000D02*
X204445898Y-26480000D01*
X203190000Y-28100000D02*
X203190000Y-26480000D01*
X208500000Y-28100000D02*
X203190000Y-28100000D01*
X209810000Y-27000000D02*
X209810000Y-26315000D01*
X205554102Y-26480000D02*
X205445898Y-26480000D01*
X207554102Y-26480000D02*
X207445898Y-26480000D01*
D13*
%TO.C,D5*%
X165506300Y-125562500D02*
X163106300Y-125562500D01*
X165506300Y-131387500D02*
X165506300Y-125587500D01*
X163106300Y-125962500D02*
X165506300Y-125962500D01*
X163106300Y-125587500D02*
X163106300Y-131387500D01*
X163106300Y-125787500D02*
X165506300Y-125787500D01*
X163106300Y-131387500D02*
X165506300Y-131387500D01*
X163106300Y-125662500D02*
X165506300Y-125662500D01*
X163106300Y-126137500D02*
X165506300Y-126137500D01*
X163106300Y-126312500D02*
X165506300Y-126312500D01*
%TO.C,D9*%
X172631300Y-107087500D02*
X175031300Y-107087500D01*
X172631300Y-112337500D02*
X175031300Y-112337500D01*
X175031300Y-112337500D02*
X175031300Y-106537500D01*
X172631300Y-106537500D02*
X172631300Y-112337500D01*
X172631300Y-106737500D02*
X175031300Y-106737500D01*
X172631300Y-106612500D02*
X175031300Y-106612500D01*
X172631300Y-107262500D02*
X175031300Y-107262500D01*
X175031300Y-106512500D02*
X172631300Y-106512500D01*
X172631300Y-106912500D02*
X175031300Y-106912500D01*
D12*
%TO.C,C8*%
X219761252Y-44735000D02*
X219238748Y-44735000D01*
X219761252Y-43265000D02*
X219238748Y-43265000D01*
D13*
%TO.C,D4*%
X155981300Y-106512500D02*
X153581300Y-106512500D01*
X153581300Y-106912500D02*
X155981300Y-106912500D01*
X153581300Y-106612500D02*
X155981300Y-106612500D01*
X155981300Y-112337500D02*
X155981300Y-106537500D01*
X153581300Y-112337500D02*
X155981300Y-112337500D01*
X153581300Y-106537500D02*
X153581300Y-112337500D01*
X153581300Y-107087500D02*
X155981300Y-107087500D01*
X153581300Y-106737500D02*
X155981300Y-106737500D01*
X153581300Y-107262500D02*
X155981300Y-107262500D01*
D12*
%TO.C,C5*%
X228735000Y-30761252D02*
X228735000Y-30238748D01*
X227265000Y-30761252D02*
X227265000Y-30238748D01*
D13*
%TO.C,D7*%
X172631300Y-74237500D02*
X175031300Y-74237500D01*
X175031300Y-74237500D02*
X175031300Y-68437500D01*
X172631300Y-68437500D02*
X172631300Y-74237500D01*
X175031300Y-68412500D02*
X172631300Y-68412500D01*
X172631300Y-68637500D02*
X175031300Y-68637500D01*
X172631300Y-69162500D02*
X175031300Y-69162500D01*
X172631300Y-68512500D02*
X175031300Y-68512500D01*
X172631300Y-68987500D02*
X175031300Y-68987500D01*
X172631300Y-68812500D02*
X175031300Y-68812500D01*
D10*
%TO.C,LED9*%
X178175000Y-105756200D02*
X178775000Y-105756200D01*
X178775000Y-105756200D02*
X178775000Y-105156200D01*
X178775000Y-105156200D02*
X178175000Y-105756200D01*
G36*
X178775000Y-105756200D02*
G01*
X178175000Y-105756200D01*
X178775000Y-105156200D01*
X178775000Y-105756200D01*
G37*
X178775000Y-105756200D02*
X178175000Y-105756200D01*
X178775000Y-105156200D01*
X178775000Y-105756200D01*
%TO.C,LED1*%
X159125000Y-48606200D02*
X159725000Y-48606200D01*
X159725000Y-48606200D02*
X159725000Y-48006200D01*
X159725000Y-48006200D02*
X159125000Y-48606200D01*
G36*
X159725000Y-48606200D02*
G01*
X159125000Y-48606200D01*
X159725000Y-48006200D01*
X159725000Y-48606200D01*
G37*
X159725000Y-48606200D02*
X159125000Y-48606200D01*
X159725000Y-48006200D01*
X159725000Y-48606200D01*
%TO.C,LED8*%
X178175000Y-86706200D02*
X178775000Y-86706200D01*
X178775000Y-86706200D02*
X178775000Y-86106200D01*
X178775000Y-86106200D02*
X178175000Y-86706200D01*
G36*
X178775000Y-86706200D02*
G01*
X178175000Y-86706200D01*
X178775000Y-86106200D01*
X178775000Y-86706200D01*
G37*
X178775000Y-86706200D02*
X178175000Y-86706200D01*
X178775000Y-86106200D01*
X178775000Y-86706200D01*
D13*
%TO.C,D10*%
X194081300Y-55187500D02*
X194081300Y-49387500D01*
X191681300Y-55187500D02*
X194081300Y-55187500D01*
X191681300Y-50112500D02*
X194081300Y-50112500D01*
X191681300Y-49762500D02*
X194081300Y-49762500D01*
X191681300Y-49387500D02*
X191681300Y-55187500D01*
X191681300Y-49937500D02*
X194081300Y-49937500D01*
X191681300Y-49587500D02*
X194081300Y-49587500D01*
X191681300Y-49462500D02*
X194081300Y-49462500D01*
X194081300Y-49362500D02*
X191681300Y-49362500D01*
D12*
%TO.C,C3*%
X214261252Y-27735000D02*
X213738748Y-27735000D01*
X214261252Y-26265000D02*
X213738748Y-26265000D01*
%TO.C,C6*%
X228735000Y-35761252D02*
X228735000Y-35238748D01*
X227265000Y-35761252D02*
X227265000Y-35238748D01*
D13*
%TO.C,D1*%
X153581300Y-49762500D02*
X155981300Y-49762500D01*
X153581300Y-55187500D02*
X155981300Y-55187500D01*
X155981300Y-55187500D02*
X155981300Y-49387500D01*
X153581300Y-49387500D02*
X153581300Y-55187500D01*
X153581300Y-50112500D02*
X155981300Y-50112500D01*
X153581300Y-49462500D02*
X155981300Y-49462500D01*
X155981300Y-49362500D02*
X153581300Y-49362500D01*
X153581300Y-49937500D02*
X155981300Y-49937500D01*
X153581300Y-49587500D02*
X155981300Y-49587500D01*
D10*
%TO.C,LED10*%
X197225000Y-48606200D02*
X197825000Y-48606200D01*
X197825000Y-48606200D02*
X197825000Y-48006200D01*
X197825000Y-48006200D02*
X197225000Y-48606200D01*
G36*
X197825000Y-48606200D02*
G01*
X197225000Y-48606200D01*
X197825000Y-48006200D01*
X197825000Y-48606200D01*
G37*
X197825000Y-48606200D02*
X197225000Y-48606200D01*
X197825000Y-48006200D01*
X197825000Y-48606200D01*
D12*
%TO.C,SW1*%
X217375000Y-71356200D02*
X217825000Y-71806200D01*
X220775000Y-71356200D02*
X220325000Y-71806200D01*
X217375000Y-66756200D02*
X217825000Y-66306200D01*
X216325000Y-70056200D02*
X216325000Y-68056200D01*
X221825000Y-70056200D02*
X221825000Y-68056200D01*
X217825000Y-71806200D02*
X220325000Y-71806200D01*
X220775000Y-66756200D02*
X220325000Y-66306200D01*
X217825000Y-66306200D02*
X220325000Y-66306200D01*
D10*
%TO.C,LED7*%
X178175000Y-67656200D02*
X178775000Y-67656200D01*
X178775000Y-67656200D02*
X178775000Y-67056200D01*
X178775000Y-67056200D02*
X178175000Y-67656200D01*
G36*
X178775000Y-67656200D02*
G01*
X178175000Y-67656200D01*
X178775000Y-67056200D01*
X178775000Y-67656200D01*
G37*
X178775000Y-67656200D02*
X178175000Y-67656200D01*
X178775000Y-67056200D01*
X178775000Y-67656200D01*
%TO.C,LED6*%
X178175000Y-48606200D02*
X178775000Y-48606200D01*
X178775000Y-48606200D02*
X178775000Y-48006200D01*
X178775000Y-48006200D02*
X178175000Y-48606200D01*
G36*
X178775000Y-48606200D02*
G01*
X178175000Y-48606200D01*
X178775000Y-48006200D01*
X178775000Y-48606200D01*
G37*
X178775000Y-48606200D02*
X178175000Y-48606200D01*
X178775000Y-48006200D01*
X178775000Y-48606200D01*
D13*
%TO.C,D2*%
X153581300Y-68812500D02*
X155981300Y-68812500D01*
X153581300Y-68637500D02*
X155981300Y-68637500D01*
X153581300Y-74237500D02*
X155981300Y-74237500D01*
X153581300Y-69162500D02*
X155981300Y-69162500D01*
X153581300Y-68437500D02*
X153581300Y-74237500D01*
X153581300Y-68987500D02*
X155981300Y-68987500D01*
X155981300Y-74237500D02*
X155981300Y-68437500D01*
X153581300Y-68512500D02*
X155981300Y-68512500D01*
X155981300Y-68412500D02*
X153581300Y-68412500D01*
%TO.C,D16*%
X210731300Y-78512500D02*
X213131300Y-78512500D01*
X210731300Y-78037500D02*
X213131300Y-78037500D01*
X213131300Y-77937500D02*
X210731300Y-77937500D01*
X210731300Y-77962500D02*
X210731300Y-83762500D01*
X210731300Y-78162500D02*
X213131300Y-78162500D01*
X210731300Y-83762500D02*
X213131300Y-83762500D01*
X210731300Y-78337500D02*
X213131300Y-78337500D01*
X213131300Y-83762500D02*
X213131300Y-77962500D01*
X210731300Y-78687500D02*
X213131300Y-78687500D01*
%TD*%
D14*
%TO.C,D12*%
X192881300Y-86587500D03*
D15*
X192881300Y-94387500D03*
%TD*%
D14*
%TO.C,D14*%
X192881300Y-124687500D03*
D15*
X192881300Y-132487500D03*
%TD*%
D14*
%TO.C,D8*%
X173831300Y-86587500D03*
D15*
X173831300Y-94387500D03*
%TD*%
D14*
%TO.C,D6*%
X173831300Y-48487500D03*
D15*
X173831300Y-56287500D03*
%TD*%
D14*
%TO.C,D3*%
X154781300Y-86587500D03*
D15*
X154781300Y-94387500D03*
%TD*%
D14*
%TO.C,D15*%
X211931300Y-48487500D03*
D15*
X211931300Y-56287500D03*
%TD*%
D14*
%TO.C,D17*%
X211931300Y-115162500D03*
D15*
X211931300Y-122962500D03*
%TD*%
D14*
%TO.C,D13*%
X192881300Y-105637500D03*
D15*
X192881300Y-113437500D03*
%TD*%
D14*
%TO.C,D11*%
X192881300Y-67537500D03*
D15*
X192881300Y-75337500D03*
%TD*%
D14*
%TO.C,D5*%
X164306300Y-124687500D03*
D15*
X164306300Y-132487500D03*
%TD*%
D14*
%TO.C,D9*%
X173831300Y-105637500D03*
D15*
X173831300Y-113437500D03*
%TD*%
D14*
%TO.C,D4*%
X154781300Y-105637500D03*
D15*
X154781300Y-113437500D03*
%TD*%
D14*
%TO.C,D7*%
X173831300Y-67537500D03*
D15*
X173831300Y-75337500D03*
%TD*%
D14*
%TO.C,D10*%
X192881300Y-48487500D03*
D15*
X192881300Y-56287500D03*
%TD*%
D14*
%TO.C,D1*%
X154781300Y-48487500D03*
D15*
X154781300Y-56287500D03*
%TD*%
D14*
%TO.C,D2*%
X154781300Y-67537500D03*
D15*
X154781300Y-75337500D03*
%TD*%
D14*
%TO.C,D16*%
X211931300Y-77062500D03*
D15*
X211931300Y-84862500D03*
%TD*%
M02*
