M48
; DRILL file {KiCad (6.0.1)} date Wed Feb 23 18:42:06 2022
; FORMAT={-:-/ absolute / inch / decimal}
; #@! TF.CreationDate,2022-02-23T18:42:06-08:00
; #@! TF.GenerationSoftware,Kicad,Pcbnew,(6.0.1)
; #@! TF.FileFunction,Plated,1,2,PTH
FMAT,2
INCH
; #@! TA.AperFunction,Plated,PTH,ViaDrill
T1C0.0157
; #@! TA.AperFunction,Plated,PTH,ComponentDrill
T2C0.0197
; #@! TA.AperFunction,Plated,PTH,ComponentDrill
T3C0.0236
; #@! TA.AperFunction,Plated,PTH,ComponentDrill
T4C0.0276
; #@! TA.AperFunction,Plated,PTH,ComponentDrill
T5C0.0866
%
G90
G05
T1
X6.0157Y-1.4764
X6.2067Y-3.439
X6.2087Y-2.689
X6.2146Y-4.1909
X6.2165Y-1.939
X6.3251Y-1.443
X6.375Y-0.9227
X6.5846Y-4.939
X6.7244Y-1.4783
X6.9567Y-4.189
X6.9606Y-2.689
X6.9626Y-3.439
X6.9646Y-1.939
X7.4231Y-3.6467
X7.4231Y-4.4032
X7.5311Y-2.9868
X7.5397Y-2.4289
X7.7047Y-3.439
X7.7047Y-4.939
X7.7126Y-2.689
X7.7146Y-4.189
X7.7165Y-1.939
X7.8977Y-3.8374
X7.9066Y-2.5881
X7.9173Y-1.4409
X8.0477Y-3.4615
X8.171Y-4.4331
X8.1726Y-3.3575
X8.1891Y-2.5037
X8.2133Y-2.9021
X8.2362Y-2.1867
X8.2953Y-1.7323
X8.2955Y-2.0988
X8.2972Y-1.1831
X8.3363Y-1.0752
X8.4528Y-3.065
X8.4626Y-4.563
X8.4646Y-1.939
X8.497Y-2.6877
X8.5417Y-1.8916
X8.568Y-2.6579
X8.5996Y-1.4969
X8.625Y-1.2536
X8.6785Y-1.2353
X8.7401Y-1.83
X8.7825Y-1.5772
X8.9705Y-1.748
X8.9744Y-1.0591
T2
X8.0315Y-1.063
X8.0709Y-1.063
X8.1102Y-1.063
X8.1496Y-1.063
X8.189Y-1.063
X8.2283Y-1.063
T4
X6.0938Y-1.909
X6.0938Y-2.216
X6.0938Y-2.659
X6.0938Y-2.966
X6.0938Y-3.409
X6.0938Y-3.716
X6.0938Y-4.159
X6.0938Y-4.466
X6.4688Y-4.909
X6.4688Y-5.216
X6.8438Y-1.909
X6.8438Y-2.216
X6.8438Y-2.659
X6.8438Y-2.966
X6.8438Y-3.409
X6.8438Y-3.716
X6.8438Y-4.159
X6.8438Y-4.466
X7.5938Y-1.909
X7.5938Y-2.216
X7.5938Y-2.659
X7.5938Y-2.966
X7.5938Y-3.409
X7.5938Y-3.716
X7.5938Y-4.159
X7.5938Y-4.466
X7.5938Y-4.909
X7.5938Y-5.216
X8.3438Y-1.909
X8.3438Y-2.216
X8.3438Y-3.034
X8.3438Y-3.341
X8.3438Y-4.534
X8.3438Y-4.841
T5
X5.9062Y-0.9375
X5.9062Y-5.625
X9.0938Y-0.9375
X9.0938Y-5.625
T3
G00X6.2049Y-0.9134
M15
G01X6.2049Y-0.8819
M16
G05
G00X6.2049Y-1.0839
M15
G01X6.2049Y-1.0406
M16
G05
G00X6.5451Y-0.9134
M15
G01X6.5451Y-0.8819
M16
G05
G00X6.5451Y-1.0839
M15
G01X6.5451Y-1.0406
M16
G05
T0
M30
