M48
; DRILL file {KiCad (6.0.1)} date Wed Feb 23 18:42:06 2022
; FORMAT={-:-/ absolute / inch / decimal}
; #@! TF.CreationDate,2022-02-23T18:42:06-08:00
; #@! TF.GenerationSoftware,Kicad,Pcbnew,(6.0.1)
; #@! TF.FileFunction,NonPlated,1,2,NPTH
FMAT,2
INCH
; #@! TA.AperFunction,NonPlated,NPTH,ComponentDrill
T1C0.0256
; #@! TA.AperFunction,NonPlated,NPTH,ComponentDrill
T2C0.1181
; #@! TA.AperFunction,NonPlated,NPTH,ComponentDrill
T3C0.1570
%
G90
G05
T1
X6.2612Y-1.0425
X6.4888Y-1.0425
T2
X6.275Y-2.3562
X6.275Y-3.1062
X6.275Y-3.8562
X6.275Y-4.6063
X6.525Y-2.2562
X6.525Y-3.0062
X6.525Y-3.7562
X6.525Y-4.5062
X6.65Y-5.3562
X6.9Y-5.2562
X7.025Y-2.3562
X7.025Y-3.1062
X7.025Y-3.8562
X7.025Y-4.6062
X7.275Y-2.2562
X7.275Y-3.0062
X7.275Y-3.7562
X7.275Y-4.5062
X7.775Y-2.3562
X7.775Y-3.1062
X7.775Y-3.8562
X7.775Y-4.6062
X7.775Y-5.3562
X8.025Y-2.2562
X8.025Y-3.0062
X8.025Y-3.7562
X8.025Y-4.5062
X8.025Y-5.2562
X8.525Y-2.3562
X8.525Y-3.4812
X8.525Y-4.9812
X8.775Y-2.2562
X8.775Y-3.3812
X8.775Y-4.8812
T3
X6.375Y-2.1562
X6.375Y-2.9062
X6.375Y-3.6562
X6.375Y-4.4062
X6.75Y-5.1562
X7.125Y-2.1562
X7.125Y-2.9062
X7.125Y-3.6562
X7.125Y-4.4062
X7.875Y-2.1562
X7.875Y-2.9062
X7.875Y-3.6562
X7.875Y-4.4062
X7.875Y-5.1562
X8.625Y-2.1562
X8.625Y-3.2812
X8.625Y-4.7812
T0
M30
