%TF.GenerationSoftware,KiCad,Pcbnew,(6.0.1)*%
%TF.CreationDate,2022-03-06T15:28:15-08:00*%
%TF.ProjectId,Ramen80,52616d65-6e38-4302-9e6b-696361645f70,v1.0.0*%
%TF.SameCoordinates,Original*%
%TF.FileFunction,Profile,NP*%
%FSLAX46Y46*%
G04 Gerber Fmt 4.6, Leading zero omitted, Abs format (unit mm)*
G04 Created by KiCad (PCBNEW (6.0.1)) date 2022-03-06 15:28:15*
%MOMM*%
%LPD*%
G01*
G04 APERTURE LIST*
%TA.AperFunction,Profile*%
%ADD10C,0.100000*%
%TD*%
%TA.AperFunction,Profile*%
%ADD11C,0.010000*%
%TD*%
%TA.AperFunction,Profile*%
%ADD12C,0.120000*%
%TD*%
G04 APERTURE END LIST*
D10*
X32000000Y-182000000D02*
X387000000Y-182000000D01*
X387000000Y-182000000D02*
X387000000Y-50000000D01*
X316000000Y-50000000D02*
X32000000Y-50000000D01*
X32000000Y-50000000D02*
X32000000Y-182000000D01*
X387000000Y-50000000D02*
X332000000Y-50000000D01*
X317575000Y-48812500D02*
X316000000Y-50000000D01*
X330455000Y-48812500D02*
X332000000Y-50000000D01*
D11*
%TO.C,J2*%
X330455000Y-48812500D02*
X328555000Y-48812500D01*
X327755000Y-55012500D02*
X320115000Y-55012500D01*
X328555000Y-48812500D02*
X328555000Y-55012500D01*
X319315000Y-48812500D02*
X317575000Y-48812500D01*
X319315000Y-55012500D02*
X319315000Y-48812500D01*
X327905000Y-55132500D02*
G75*
G03*
X328230000Y-55412500I302499J22499D01*
G01*
X319640000Y-55412500D02*
G75*
G03*
X319965000Y-55132500I22501J302499D01*
G01*
X327905000Y-55132500D02*
G75*
G03*
X327755000Y-55012500I-135000J-15000D01*
G01*
X320115000Y-55012500D02*
G75*
G03*
X319965000Y-55132500I-15000J-135000D01*
G01*
X328230000Y-55412501D02*
G75*
G03*
X328555000Y-55012500I-37499J362500D01*
G01*
X319315000Y-55012500D02*
G75*
G03*
X319640000Y-55412500I362506J-37495D01*
G01*
D12*
%TO.C,LED64*%
X53069000Y-149400000D02*
X56469000Y-149400000D01*
X56469000Y-149400000D02*
X56469000Y-146400000D01*
X56469000Y-146400000D02*
X53069000Y-146400000D01*
X53069000Y-146400000D02*
X53069000Y-149400000D01*
%TO.C,LED48*%
X336437000Y-111300000D02*
X339837000Y-111300000D01*
X339837000Y-111300000D02*
X339837000Y-108300000D01*
X339837000Y-108300000D02*
X336437000Y-108300000D01*
X336437000Y-108300000D02*
X336437000Y-111300000D01*
%TO.C,LED7*%
X184037000Y-63675000D02*
X187437000Y-63675000D01*
X187437000Y-63675000D02*
X187437000Y-60675000D01*
X187437000Y-60675000D02*
X184037000Y-60675000D01*
X184037000Y-60675000D02*
X184037000Y-63675000D01*
%TO.C,LED37*%
X107837000Y-111300000D02*
X111237000Y-111300000D01*
X111237000Y-111300000D02*
X111237000Y-108300000D01*
X111237000Y-108300000D02*
X107837000Y-108300000D01*
X107837000Y-108300000D02*
X107837000Y-111300000D01*
%TO.C,LED72*%
X217375000Y-149400000D02*
X220775000Y-149400000D01*
X220775000Y-149400000D02*
X220775000Y-146400000D01*
X220775000Y-146400000D02*
X217375000Y-146400000D01*
X217375000Y-146400000D02*
X217375000Y-149400000D01*
%TO.C,LED67*%
X122125000Y-149400000D02*
X125525000Y-149400000D01*
X125525000Y-149400000D02*
X125525000Y-146400000D01*
X125525000Y-146400000D02*
X122125000Y-146400000D01*
X122125000Y-146400000D02*
X122125000Y-149400000D01*
%TO.C,LED41*%
X184037000Y-111300000D02*
X187437000Y-111300000D01*
X187437000Y-111300000D02*
X187437000Y-108300000D01*
X187437000Y-108300000D02*
X184037000Y-108300000D01*
X184037000Y-108300000D02*
X184037000Y-111300000D01*
%TO.C,LED70*%
X179275000Y-149400000D02*
X182675000Y-149400000D01*
X182675000Y-149400000D02*
X182675000Y-146400000D01*
X182675000Y-146400000D02*
X179275000Y-146400000D01*
X179275000Y-146400000D02*
X179275000Y-149400000D01*
%TO.C,LED45*%
X260237000Y-111300000D02*
X263637000Y-111300000D01*
X263637000Y-111300000D02*
X263637000Y-108300000D01*
X263637000Y-108300000D02*
X260237000Y-108300000D01*
X260237000Y-108300000D02*
X260237000Y-111300000D01*
%TO.C,LED80*%
X162605000Y-168450000D02*
X166005000Y-168450000D01*
X166005000Y-168450000D02*
X166005000Y-165450000D01*
X166005000Y-165450000D02*
X162605000Y-165450000D01*
X162605000Y-165450000D02*
X162605000Y-168450000D01*
%TO.C,LED69*%
X160225000Y-149400000D02*
X163625000Y-149400000D01*
X163625000Y-149400000D02*
X163625000Y-146400000D01*
X163625000Y-146400000D02*
X160225000Y-146400000D01*
X160225000Y-146400000D02*
X160225000Y-149400000D01*
%TO.C,LED52*%
X74500000Y-130350000D02*
X77900000Y-130350000D01*
X77900000Y-130350000D02*
X77900000Y-127350000D01*
X77900000Y-127350000D02*
X74500000Y-127350000D01*
X74500000Y-127350000D02*
X74500000Y-130350000D01*
%TO.C,LED78*%
X67355000Y-168450000D02*
X70755000Y-168450000D01*
X70755000Y-168450000D02*
X70755000Y-165450000D01*
X70755000Y-165450000D02*
X67355000Y-165450000D01*
X67355000Y-165450000D02*
X67355000Y-168450000D01*
%TO.C,LED39*%
X145937000Y-111300000D02*
X149337000Y-111300000D01*
X149337000Y-111300000D02*
X149337000Y-108300000D01*
X149337000Y-108300000D02*
X145937000Y-108300000D01*
X145937000Y-108300000D02*
X145937000Y-111300000D01*
%TO.C,LED85*%
X336437000Y-168450000D02*
X339837000Y-168450000D01*
X339837000Y-168450000D02*
X339837000Y-165450000D01*
X339837000Y-165450000D02*
X336437000Y-165450000D01*
X336437000Y-165450000D02*
X336437000Y-168450000D01*
%TO.C,LED47*%
X303100000Y-111300000D02*
X306500000Y-111300000D01*
X306500000Y-111300000D02*
X306500000Y-108300000D01*
X306500000Y-108300000D02*
X303100000Y-108300000D01*
X303100000Y-108300000D02*
X303100000Y-111300000D01*
%TO.C,LED66*%
X103075000Y-149400000D02*
X106475000Y-149400000D01*
X106475000Y-149400000D02*
X106475000Y-146400000D01*
X106475000Y-146400000D02*
X103075000Y-146400000D01*
X103075000Y-146400000D02*
X103075000Y-149400000D01*
%TO.C,LED12*%
X288812000Y-63675000D02*
X292212000Y-63675000D01*
X292212000Y-63675000D02*
X292212000Y-60675000D01*
X292212000Y-60675000D02*
X288812000Y-60675000D01*
X288812000Y-60675000D02*
X288812000Y-63675000D01*
%TO.C,LED76*%
X355487000Y-149400000D02*
X358887000Y-149400000D01*
X358887000Y-149400000D02*
X358887000Y-146400000D01*
X358887000Y-146400000D02*
X355487000Y-146400000D01*
X355487000Y-146400000D02*
X355487000Y-149400000D01*
%TO.C,LED46*%
X279287000Y-111300000D02*
X282687000Y-111300000D01*
X282687000Y-111300000D02*
X282687000Y-108300000D01*
X282687000Y-108300000D02*
X279287000Y-108300000D01*
X279287000Y-108300000D02*
X279287000Y-111300000D01*
%TO.C,LED11*%
X269762000Y-63675000D02*
X273162000Y-63675000D01*
X273162000Y-63675000D02*
X273162000Y-60675000D01*
X273162000Y-60675000D02*
X269762000Y-60675000D01*
X269762000Y-60675000D02*
X269762000Y-63675000D01*
%TO.C,LED56*%
X150700000Y-130350000D02*
X154100000Y-130350000D01*
X154100000Y-130350000D02*
X154100000Y-127350000D01*
X154100000Y-127350000D02*
X150700000Y-127350000D01*
X150700000Y-127350000D02*
X150700000Y-130350000D01*
%TO.C,LED27*%
X231662000Y-92250000D02*
X235062000Y-92250000D01*
X235062000Y-92250000D02*
X235062000Y-89250000D01*
X235062000Y-89250000D02*
X231662000Y-89250000D01*
X231662000Y-89250000D02*
X231662000Y-92250000D01*
%TO.C,LED58*%
X188800000Y-130350000D02*
X192200000Y-130350000D01*
X192200000Y-130350000D02*
X192200000Y-127350000D01*
X192200000Y-127350000D02*
X188800000Y-127350000D01*
X188800000Y-127350000D02*
X188800000Y-130350000D01*
%TO.C,LED77*%
X43543000Y-168450000D02*
X46943000Y-168450000D01*
X46943000Y-168450000D02*
X46943000Y-165450000D01*
X46943000Y-165450000D02*
X43543000Y-165450000D01*
X43543000Y-165450000D02*
X43543000Y-168450000D01*
%TO.C,LED35*%
X69737000Y-111300000D02*
X73137000Y-111300000D01*
X73137000Y-111300000D02*
X73137000Y-108300000D01*
X73137000Y-108300000D02*
X69737000Y-108300000D01*
X69737000Y-108300000D02*
X69737000Y-111300000D01*
%TO.C,LED49*%
X355487000Y-111300000D02*
X358887000Y-111300000D01*
X358887000Y-111300000D02*
X358887000Y-108300000D01*
X358887000Y-108300000D02*
X355487000Y-108300000D01*
X355487000Y-108300000D02*
X355487000Y-111300000D01*
%TO.C,LED23*%
X155462000Y-92250000D02*
X158862000Y-92250000D01*
X158862000Y-92250000D02*
X158862000Y-89250000D01*
X158862000Y-89250000D02*
X155462000Y-89250000D01*
X155462000Y-89250000D02*
X155462000Y-92250000D01*
%TO.C,LED20*%
X98312000Y-92250000D02*
X101712000Y-92250000D01*
X101712000Y-92250000D02*
X101712000Y-89250000D01*
X101712000Y-89250000D02*
X98312000Y-89250000D01*
X98312000Y-89250000D02*
X98312000Y-92250000D01*
%TO.C,LED62*%
X265000000Y-130350000D02*
X268400000Y-130350000D01*
X268400000Y-130350000D02*
X268400000Y-127350000D01*
X268400000Y-127350000D02*
X265000000Y-127350000D01*
X265000000Y-127350000D02*
X265000000Y-130350000D01*
%TO.C,LED57*%
X169750000Y-130350000D02*
X173150000Y-130350000D01*
X173150000Y-130350000D02*
X173150000Y-127350000D01*
X173150000Y-127350000D02*
X169750000Y-127350000D01*
X169750000Y-127350000D02*
X169750000Y-130350000D01*
%TO.C,LED9*%
X222137000Y-63675000D02*
X225537000Y-63675000D01*
X225537000Y-63675000D02*
X225537000Y-60675000D01*
X225537000Y-60675000D02*
X222137000Y-60675000D01*
X222137000Y-60675000D02*
X222137000Y-63675000D01*
%TO.C,LED50*%
X374537000Y-111300000D02*
X377937000Y-111300000D01*
X377937000Y-111300000D02*
X377937000Y-108300000D01*
X377937000Y-108300000D02*
X374537000Y-108300000D01*
X374537000Y-108300000D02*
X374537000Y-111300000D01*
%TO.C,LED87*%
X374537000Y-168450000D02*
X377937000Y-168450000D01*
X377937000Y-168450000D02*
X377937000Y-165450000D01*
X377937000Y-165450000D02*
X374537000Y-165450000D01*
X374537000Y-165450000D02*
X374537000Y-168450000D01*
%TO.C,LED60*%
X226900000Y-130350000D02*
X230300000Y-130350000D01*
X230300000Y-130350000D02*
X230300000Y-127350000D01*
X230300000Y-127350000D02*
X226900000Y-127350000D01*
X226900000Y-127350000D02*
X226900000Y-130350000D01*
%TO.C,LED4*%
X117362000Y-63675000D02*
X120762000Y-63675000D01*
X120762000Y-63675000D02*
X120762000Y-60675000D01*
X120762000Y-60675000D02*
X117362000Y-60675000D01*
X117362000Y-60675000D02*
X117362000Y-63675000D01*
%TO.C,LED86*%
X355487000Y-168450000D02*
X358887000Y-168450000D01*
X358887000Y-168450000D02*
X358887000Y-165450000D01*
X358887000Y-165450000D02*
X355487000Y-165450000D01*
X355487000Y-165450000D02*
X355487000Y-168450000D01*
%TO.C,LED81*%
X234043000Y-168450000D02*
X237443000Y-168450000D01*
X237443000Y-168450000D02*
X237443000Y-165450000D01*
X237443000Y-165450000D02*
X234043000Y-165450000D01*
X234043000Y-165450000D02*
X234043000Y-168450000D01*
%TO.C,LED15*%
X355487000Y-63675000D02*
X358887000Y-63675000D01*
X358887000Y-63675000D02*
X358887000Y-60675000D01*
X358887000Y-60675000D02*
X355487000Y-60675000D01*
X355487000Y-60675000D02*
X355487000Y-63675000D01*
%TO.C,LED18*%
X60212000Y-92250000D02*
X63612000Y-92250000D01*
X63612000Y-92250000D02*
X63612000Y-89250000D01*
X63612000Y-89250000D02*
X60212000Y-89250000D01*
X60212000Y-89250000D02*
X60212000Y-92250000D01*
%TO.C,LED24*%
X174512000Y-92250000D02*
X177912000Y-92250000D01*
X177912000Y-92250000D02*
X177912000Y-89250000D01*
X177912000Y-89250000D02*
X174512000Y-89250000D01*
X174512000Y-89250000D02*
X174512000Y-92250000D01*
%TO.C,LED40*%
X164987000Y-111300000D02*
X168387000Y-111300000D01*
X168387000Y-111300000D02*
X168387000Y-108300000D01*
X168387000Y-108300000D02*
X164987000Y-108300000D01*
X164987000Y-108300000D02*
X164987000Y-111300000D01*
%TO.C,LED6*%
X164987000Y-63675000D02*
X168387000Y-63675000D01*
X168387000Y-63675000D02*
X168387000Y-60675000D01*
X168387000Y-60675000D02*
X164987000Y-60675000D01*
X164987000Y-60675000D02*
X164987000Y-63675000D01*
%TO.C,LED68*%
X141175000Y-149400000D02*
X144575000Y-149400000D01*
X144575000Y-149400000D02*
X144575000Y-146400000D01*
X144575000Y-146400000D02*
X141175000Y-146400000D01*
X141175000Y-146400000D02*
X141175000Y-149400000D01*
%TO.C,LED63*%
X295956000Y-130350000D02*
X299356000Y-130350000D01*
X299356000Y-130350000D02*
X299356000Y-127350000D01*
X299356000Y-127350000D02*
X295956000Y-127350000D01*
X295956000Y-127350000D02*
X295956000Y-130350000D01*
%TO.C,LED3*%
X98312000Y-63675000D02*
X101712000Y-63675000D01*
X101712000Y-63675000D02*
X101712000Y-60675000D01*
X101712000Y-60675000D02*
X98312000Y-60675000D01*
X98312000Y-60675000D02*
X98312000Y-63675000D01*
%TO.C,LED82*%
X257855000Y-168450000D02*
X261255000Y-168450000D01*
X261255000Y-168450000D02*
X261255000Y-165450000D01*
X261255000Y-165450000D02*
X257855000Y-165450000D01*
X257855000Y-165450000D02*
X257855000Y-168450000D01*
%TO.C,LED13*%
X307862000Y-63675000D02*
X311262000Y-63675000D01*
X311262000Y-63675000D02*
X311262000Y-60675000D01*
X311262000Y-60675000D02*
X307862000Y-60675000D01*
X307862000Y-60675000D02*
X307862000Y-63675000D01*
%TO.C,LED5*%
X136412000Y-63675000D02*
X139812000Y-63675000D01*
X139812000Y-63675000D02*
X139812000Y-60675000D01*
X139812000Y-60675000D02*
X136412000Y-60675000D01*
X136412000Y-60675000D02*
X136412000Y-63675000D01*
%TO.C,LED25*%
X193562000Y-92250000D02*
X196962000Y-92250000D01*
X196962000Y-92250000D02*
X196962000Y-89250000D01*
X196962000Y-89250000D02*
X193562000Y-89250000D01*
X193562000Y-89250000D02*
X193562000Y-92250000D01*
%TO.C,LED53*%
X93550000Y-130350000D02*
X96950000Y-130350000D01*
X96950000Y-130350000D02*
X96950000Y-127350000D01*
X96950000Y-127350000D02*
X93550000Y-127350000D01*
X93550000Y-127350000D02*
X93550000Y-130350000D01*
%TO.C,LED17*%
X41162000Y-92250000D02*
X44562000Y-92250000D01*
X44562000Y-92250000D02*
X44562000Y-89250000D01*
X44562000Y-89250000D02*
X41162000Y-89250000D01*
X41162000Y-89250000D02*
X41162000Y-92250000D01*
%TO.C,LED36*%
X88787000Y-111300000D02*
X92187000Y-111300000D01*
X92187000Y-111300000D02*
X92187000Y-108300000D01*
X92187000Y-108300000D02*
X88787000Y-108300000D01*
X88787000Y-108300000D02*
X88787000Y-111300000D01*
%TO.C,LED79*%
X91168000Y-168450000D02*
X94568000Y-168450000D01*
X94568000Y-168450000D02*
X94568000Y-165450000D01*
X94568000Y-165450000D02*
X91168000Y-165450000D01*
X91168000Y-165450000D02*
X91168000Y-168450000D01*
%TO.C,LED74*%
X255475000Y-149400000D02*
X258875000Y-149400000D01*
X258875000Y-149400000D02*
X258875000Y-146400000D01*
X258875000Y-146400000D02*
X255475000Y-146400000D01*
X255475000Y-146400000D02*
X255475000Y-149400000D01*
%TO.C,LED84*%
X299480000Y-168450000D02*
X302880000Y-168450000D01*
X302880000Y-168450000D02*
X302880000Y-165450000D01*
X302880000Y-165450000D02*
X299480000Y-165450000D01*
X299480000Y-165450000D02*
X299480000Y-168450000D01*
%TO.C,LED42*%
X203087000Y-111300000D02*
X206487000Y-111300000D01*
X206487000Y-111300000D02*
X206487000Y-108300000D01*
X206487000Y-108300000D02*
X203087000Y-108300000D01*
X203087000Y-108300000D02*
X203087000Y-111300000D01*
%TO.C,LED55*%
X131650000Y-130350000D02*
X135050000Y-130350000D01*
X135050000Y-130350000D02*
X135050000Y-127350000D01*
X135050000Y-127350000D02*
X131650000Y-127350000D01*
X131650000Y-127350000D02*
X131650000Y-130350000D01*
%TO.C,LED21*%
X117362000Y-92250000D02*
X120762000Y-92250000D01*
X120762000Y-92250000D02*
X120762000Y-89250000D01*
X120762000Y-89250000D02*
X117362000Y-89250000D01*
X117362000Y-89250000D02*
X117362000Y-92250000D01*
%TO.C,LED14*%
X336437000Y-63675000D02*
X339837000Y-63675000D01*
X339837000Y-63675000D02*
X339837000Y-60675000D01*
X339837000Y-60675000D02*
X336437000Y-60675000D01*
X336437000Y-60675000D02*
X336437000Y-63675000D01*
%TO.C,LED19*%
X79262000Y-92250000D02*
X82662000Y-92250000D01*
X82662000Y-92250000D02*
X82662000Y-89250000D01*
X82662000Y-89250000D02*
X79262000Y-89250000D01*
X79262000Y-89250000D02*
X79262000Y-92250000D01*
%TO.C,LED54*%
X112600000Y-130350000D02*
X116000000Y-130350000D01*
X116000000Y-130350000D02*
X116000000Y-127350000D01*
X116000000Y-127350000D02*
X112600000Y-127350000D01*
X112600000Y-127350000D02*
X112600000Y-130350000D01*
%TO.C,LED51*%
X48306000Y-130350000D02*
X51706000Y-130350000D01*
X51706000Y-130350000D02*
X51706000Y-127350000D01*
X51706000Y-127350000D02*
X48306000Y-127350000D01*
X48306000Y-127350000D02*
X48306000Y-130350000D01*
%TO.C,LED30*%
X298337000Y-92250000D02*
X301737000Y-92250000D01*
X301737000Y-92250000D02*
X301737000Y-89250000D01*
X301737000Y-89250000D02*
X298337000Y-89250000D01*
X298337000Y-89250000D02*
X298337000Y-92250000D01*
%TO.C,LED16*%
X374537000Y-63675000D02*
X377937000Y-63675000D01*
X377937000Y-63675000D02*
X377937000Y-60675000D01*
X377937000Y-60675000D02*
X374537000Y-60675000D01*
X374537000Y-60675000D02*
X374537000Y-63675000D01*
%TO.C,LED29*%
X269762000Y-92250000D02*
X273162000Y-92250000D01*
X273162000Y-92250000D02*
X273162000Y-89250000D01*
X273162000Y-89250000D02*
X269762000Y-89250000D01*
X269762000Y-89250000D02*
X269762000Y-92250000D01*
%TO.C,LED34*%
X45925000Y-111300000D02*
X49325000Y-111300000D01*
X49325000Y-111300000D02*
X49325000Y-108300000D01*
X49325000Y-108300000D02*
X45925000Y-108300000D01*
X45925000Y-108300000D02*
X45925000Y-111300000D01*
%TO.C,LED71*%
X198325000Y-149400000D02*
X201725000Y-149400000D01*
X201725000Y-149400000D02*
X201725000Y-146400000D01*
X201725000Y-146400000D02*
X198325000Y-146400000D01*
X198325000Y-146400000D02*
X198325000Y-149400000D01*
%TO.C,LED1*%
X41162000Y-63675000D02*
X44562000Y-63675000D01*
X44562000Y-63675000D02*
X44562000Y-60675000D01*
X44562000Y-60675000D02*
X41162000Y-60675000D01*
X41162000Y-60675000D02*
X41162000Y-63675000D01*
%TO.C,LED22*%
X136412000Y-92250000D02*
X139812000Y-92250000D01*
X139812000Y-92250000D02*
X139812000Y-89250000D01*
X139812000Y-89250000D02*
X136412000Y-89250000D01*
X136412000Y-89250000D02*
X136412000Y-92250000D01*
%TO.C,LED10*%
X250712000Y-63675000D02*
X254112000Y-63675000D01*
X254112000Y-63675000D02*
X254112000Y-60675000D01*
X254112000Y-60675000D02*
X250712000Y-60675000D01*
X250712000Y-60675000D02*
X250712000Y-63675000D01*
%TO.C,LED31*%
X336437000Y-92250000D02*
X339837000Y-92250000D01*
X339837000Y-92250000D02*
X339837000Y-89250000D01*
X339837000Y-89250000D02*
X336437000Y-89250000D01*
X336437000Y-89250000D02*
X336437000Y-92250000D01*
%TO.C,LED33*%
X374537000Y-92250000D02*
X377937000Y-92250000D01*
X377937000Y-92250000D02*
X377937000Y-89250000D01*
X377937000Y-89250000D02*
X374537000Y-89250000D01*
X374537000Y-89250000D02*
X374537000Y-92250000D01*
%TO.C,LED32*%
X355487000Y-92250000D02*
X358887000Y-92250000D01*
X358887000Y-92250000D02*
X358887000Y-89250000D01*
X358887000Y-89250000D02*
X355487000Y-89250000D01*
X355487000Y-89250000D02*
X355487000Y-92250000D01*
%TO.C,LED38*%
X126887000Y-111300000D02*
X130287000Y-111300000D01*
X130287000Y-111300000D02*
X130287000Y-108300000D01*
X130287000Y-108300000D02*
X126887000Y-108300000D01*
X126887000Y-108300000D02*
X126887000Y-111300000D01*
%TO.C,LED59*%
X207850000Y-130350000D02*
X211250000Y-130350000D01*
X211250000Y-130350000D02*
X211250000Y-127350000D01*
X211250000Y-127350000D02*
X207850000Y-127350000D01*
X207850000Y-127350000D02*
X207850000Y-130350000D01*
%TO.C,LED8*%
X203087000Y-63675000D02*
X206487000Y-63675000D01*
X206487000Y-63675000D02*
X206487000Y-60675000D01*
X206487000Y-60675000D02*
X203087000Y-60675000D01*
X203087000Y-60675000D02*
X203087000Y-63675000D01*
%TO.C,LED44*%
X241187000Y-111300000D02*
X244587000Y-111300000D01*
X244587000Y-111300000D02*
X244587000Y-108300000D01*
X244587000Y-108300000D02*
X241187000Y-108300000D01*
X241187000Y-108300000D02*
X241187000Y-111300000D01*
%TO.C,LED43*%
X222137000Y-111300000D02*
X225537000Y-111300000D01*
X225537000Y-111300000D02*
X225537000Y-108300000D01*
X225537000Y-108300000D02*
X222137000Y-108300000D01*
X222137000Y-108300000D02*
X222137000Y-111300000D01*
%TO.C,LED26*%
X212612000Y-92250000D02*
X216012000Y-92250000D01*
X216012000Y-92250000D02*
X216012000Y-89250000D01*
X216012000Y-89250000D02*
X212612000Y-89250000D01*
X212612000Y-89250000D02*
X212612000Y-92250000D01*
%TO.C,LED61*%
X245950000Y-130350000D02*
X249350000Y-130350000D01*
X249350000Y-130350000D02*
X249350000Y-127350000D01*
X249350000Y-127350000D02*
X245950000Y-127350000D01*
X245950000Y-127350000D02*
X245950000Y-130350000D01*
%TO.C,LED73*%
X236425000Y-149400000D02*
X239825000Y-149400000D01*
X239825000Y-149400000D02*
X239825000Y-146400000D01*
X239825000Y-146400000D02*
X236425000Y-146400000D01*
X236425000Y-146400000D02*
X236425000Y-149400000D01*
%TO.C,LED28*%
X250712000Y-92250000D02*
X254112000Y-92250000D01*
X254112000Y-92250000D02*
X254112000Y-89250000D01*
X254112000Y-89250000D02*
X250712000Y-89250000D01*
X250712000Y-89250000D02*
X250712000Y-92250000D01*
%TO.C,LED83*%
X277668000Y-168450000D02*
X281068000Y-168450000D01*
X281068000Y-168450000D02*
X281068000Y-165450000D01*
X281068000Y-165450000D02*
X277668000Y-165450000D01*
X277668000Y-165450000D02*
X277668000Y-168450000D01*
%TO.C,LED75*%
X288812000Y-149400000D02*
X292212000Y-149400000D01*
X292212000Y-149400000D02*
X292212000Y-146400000D01*
X292212000Y-146400000D02*
X288812000Y-146400000D01*
X288812000Y-146400000D02*
X288812000Y-149400000D01*
%TO.C,LED2*%
X79262000Y-63675000D02*
X82662000Y-63675000D01*
X82662000Y-63675000D02*
X82662000Y-60675000D01*
X82662000Y-60675000D02*
X79262000Y-60675000D01*
X79262000Y-60675000D02*
X79262000Y-63675000D01*
%TO.C,LED65*%
X84025000Y-149400000D02*
X87425000Y-149400000D01*
X87425000Y-149400000D02*
X87425000Y-146400000D01*
X87425000Y-146400000D02*
X84025000Y-146400000D01*
X84025000Y-146400000D02*
X84025000Y-149400000D01*
%TD*%
M02*
