%TF.GenerationSoftware,KiCad,Pcbnew,(6.0.1)*%
%TF.CreationDate,2022-03-06T15:28:15-08:00*%
%TF.ProjectId,Ramen80,52616d65-6e38-4302-9e6b-696361645f70,v1.0.0*%
%TF.SameCoordinates,Original*%
%TF.FileFunction,Legend,Top*%
%TF.FilePolarity,Positive*%
%FSLAX46Y46*%
G04 Gerber Fmt 4.6, Leading zero omitted, Abs format (unit mm)*
G04 Created by KiCad (PCBNEW (6.0.1)) date 2022-03-06 15:28:15*
%MOMM*%
%LPD*%
G01*
G04 APERTURE LIST*
%ADD10C,0.150000*%
%ADD11C,0.120000*%
%ADD12C,0.200000*%
G04 APERTURE END LIST*
D10*
%TO.C,R10*%
X327102380Y-62642857D02*
X326626190Y-62976190D01*
X327102380Y-63214285D02*
X326102380Y-63214285D01*
X326102380Y-62833333D01*
X326150000Y-62738095D01*
X326197619Y-62690476D01*
X326292857Y-62642857D01*
X326435714Y-62642857D01*
X326530952Y-62690476D01*
X326578571Y-62738095D01*
X326626190Y-62833333D01*
X326626190Y-63214285D01*
X327102380Y-61690476D02*
X327102380Y-62261904D01*
X327102380Y-61976190D02*
X326102380Y-61976190D01*
X326245238Y-62071428D01*
X326340476Y-62166666D01*
X326388095Y-62261904D01*
X326102380Y-61071428D02*
X326102380Y-60976190D01*
X326150000Y-60880952D01*
X326197619Y-60833333D01*
X326292857Y-60785714D01*
X326483333Y-60738095D01*
X326721428Y-60738095D01*
X326911904Y-60785714D01*
X327007142Y-60833333D01*
X327054761Y-60880952D01*
X327102380Y-60976190D01*
X327102380Y-61071428D01*
X327054761Y-61166666D01*
X327007142Y-61214285D01*
X326911904Y-61261904D01*
X326721428Y-61309523D01*
X326483333Y-61309523D01*
X326292857Y-61261904D01*
X326197619Y-61214285D01*
X326150000Y-61166666D01*
X326102380Y-61071428D01*
%TO.C,R7*%
X325802380Y-62166666D02*
X325326190Y-62500000D01*
X325802380Y-62738095D02*
X324802380Y-62738095D01*
X324802380Y-62357142D01*
X324850000Y-62261904D01*
X324897619Y-62214285D01*
X324992857Y-62166666D01*
X325135714Y-62166666D01*
X325230952Y-62214285D01*
X325278571Y-62261904D01*
X325326190Y-62357142D01*
X325326190Y-62738095D01*
X324802380Y-61833333D02*
X324802380Y-61166666D01*
X325802380Y-61595238D01*
%TO.C,R8*%
X323102380Y-62166666D02*
X322626190Y-62500000D01*
X323102380Y-62738095D02*
X322102380Y-62738095D01*
X322102380Y-62357142D01*
X322150000Y-62261904D01*
X322197619Y-62214285D01*
X322292857Y-62166666D01*
X322435714Y-62166666D01*
X322530952Y-62214285D01*
X322578571Y-62261904D01*
X322626190Y-62357142D01*
X322626190Y-62738095D01*
X322530952Y-61595238D02*
X322483333Y-61690476D01*
X322435714Y-61738095D01*
X322340476Y-61785714D01*
X322292857Y-61785714D01*
X322197619Y-61738095D01*
X322150000Y-61690476D01*
X322102380Y-61595238D01*
X322102380Y-61404761D01*
X322150000Y-61309523D01*
X322197619Y-61261904D01*
X322292857Y-61214285D01*
X322340476Y-61214285D01*
X322435714Y-61261904D01*
X322483333Y-61309523D01*
X322530952Y-61404761D01*
X322530952Y-61595238D01*
X322578571Y-61690476D01*
X322626190Y-61738095D01*
X322721428Y-61785714D01*
X322911904Y-61785714D01*
X323007142Y-61738095D01*
X323054761Y-61690476D01*
X323102380Y-61595238D01*
X323102380Y-61404761D01*
X323054761Y-61309523D01*
X323007142Y-61261904D01*
X322911904Y-61214285D01*
X322721428Y-61214285D01*
X322626190Y-61261904D01*
X322578571Y-61309523D01*
X322530952Y-61404761D01*
%TO.C,R9*%
X325102380Y-62166666D02*
X324626190Y-62500000D01*
X325102380Y-62738095D02*
X324102380Y-62738095D01*
X324102380Y-62357142D01*
X324150000Y-62261904D01*
X324197619Y-62214285D01*
X324292857Y-62166666D01*
X324435714Y-62166666D01*
X324530952Y-62214285D01*
X324578571Y-62261904D01*
X324626190Y-62357142D01*
X324626190Y-62738095D01*
X325102380Y-61690476D02*
X325102380Y-61500000D01*
X325054761Y-61404761D01*
X325007142Y-61357142D01*
X324864285Y-61261904D01*
X324673809Y-61214285D01*
X324292857Y-61214285D01*
X324197619Y-61261904D01*
X324150000Y-61309523D01*
X324102380Y-61404761D01*
X324102380Y-61595238D01*
X324150000Y-61690476D01*
X324197619Y-61738095D01*
X324292857Y-61785714D01*
X324530952Y-61785714D01*
X324626190Y-61738095D01*
X324673809Y-61690476D01*
X324721428Y-61595238D01*
X324721428Y-61404761D01*
X324673809Y-61309523D01*
X324626190Y-61261904D01*
X324530952Y-61214285D01*
%TO.C,J2*%
X330926666Y-51872380D02*
X330926666Y-52586666D01*
X330879047Y-52729523D01*
X330783809Y-52824761D01*
X330640952Y-52872380D01*
X330545714Y-52872380D01*
X331355238Y-51967619D02*
X331402857Y-51920000D01*
X331498095Y-51872380D01*
X331736190Y-51872380D01*
X331831428Y-51920000D01*
X331879047Y-51967619D01*
X331926666Y-52062857D01*
X331926666Y-52158095D01*
X331879047Y-52300952D01*
X331307619Y-52872380D01*
X331926666Y-52872380D01*
%TO.C,K48*%
X345137000Y-107299998D02*
X344137000Y-107299998D01*
X345137000Y-107299998D02*
X345137000Y-108299998D01*
X344137000Y-121299998D02*
X345137000Y-121299998D01*
X331137000Y-108299998D02*
X331137000Y-107299998D01*
X331137000Y-121299998D02*
X331137000Y-120299998D01*
X331137000Y-121299998D02*
X332137000Y-121299998D01*
X332137000Y-107299998D02*
X331137000Y-107299998D01*
X345137000Y-120299998D02*
X345137000Y-121299998D01*
%TO.C,K81*%
X242743000Y-164449998D02*
X242743000Y-165449998D01*
X228743000Y-178449998D02*
X228743000Y-177449998D01*
X242743000Y-164449998D02*
X241743000Y-164449998D01*
X228743000Y-165449998D02*
X228743000Y-164449998D01*
X228743000Y-178449998D02*
X229743000Y-178449998D01*
X241743000Y-178449998D02*
X242743000Y-178449998D01*
X242743000Y-177449998D02*
X242743000Y-178449998D01*
X229743000Y-164449998D02*
X228743000Y-164449998D01*
%TO.C,K13*%
X302562000Y-60674998D02*
X302562000Y-59674998D01*
X316562000Y-59674998D02*
X316562000Y-60674998D01*
X302562000Y-73674998D02*
X302562000Y-72674998D01*
X302562000Y-73674998D02*
X303562000Y-73674998D01*
X316562000Y-59674998D02*
X315562000Y-59674998D01*
X303562000Y-59674998D02*
X302562000Y-59674998D01*
X316562000Y-72674998D02*
X316562000Y-73674998D01*
X315562000Y-73674998D02*
X316562000Y-73674998D01*
%TO.C,K82*%
X252555000Y-178449998D02*
X253555000Y-178449998D01*
X266555000Y-164449998D02*
X265555000Y-164449998D01*
X252555000Y-178449998D02*
X252555000Y-177449998D01*
X265555000Y-178449998D02*
X266555000Y-178449998D01*
X266555000Y-164449998D02*
X266555000Y-165449998D01*
X252555000Y-165449998D02*
X252555000Y-164449998D01*
X266555000Y-177449998D02*
X266555000Y-178449998D01*
X253555000Y-164449998D02*
X252555000Y-164449998D01*
%TO.C,K74*%
X251175000Y-145399998D02*
X250175000Y-145399998D01*
X250175000Y-159399998D02*
X251175000Y-159399998D01*
X250175000Y-146399998D02*
X250175000Y-145399998D01*
X263175000Y-159399998D02*
X264175000Y-159399998D01*
X264175000Y-145399998D02*
X264175000Y-146399998D01*
X264175000Y-145399998D02*
X263175000Y-145399998D01*
X250175000Y-159399998D02*
X250175000Y-158399998D01*
X264175000Y-158399998D02*
X264175000Y-159399998D01*
%TO.C,K19*%
X87962000Y-88249998D02*
X86962000Y-88249998D01*
X86962000Y-102249998D02*
X87962000Y-102249998D01*
X74962000Y-88249998D02*
X73962000Y-88249998D01*
X87962000Y-88249998D02*
X87962000Y-89249998D01*
X73962000Y-102249998D02*
X73962000Y-101249998D01*
X73962000Y-102249998D02*
X74962000Y-102249998D01*
X73962000Y-89249998D02*
X73962000Y-88249998D01*
X87962000Y-101249998D02*
X87962000Y-102249998D01*
%TO.C,K15*%
X350187000Y-73674998D02*
X350187000Y-72674998D01*
X364187000Y-72674998D02*
X364187000Y-73674998D01*
X350187000Y-60674998D02*
X350187000Y-59674998D01*
X350187000Y-73674998D02*
X351187000Y-73674998D01*
X351187000Y-59674998D02*
X350187000Y-59674998D01*
X364187000Y-59674998D02*
X363187000Y-59674998D01*
X364187000Y-59674998D02*
X364187000Y-60674998D01*
X363187000Y-73674998D02*
X364187000Y-73674998D01*
%TO.C,K8*%
X211787000Y-59674998D02*
X210787000Y-59674998D01*
X197787000Y-73674998D02*
X198787000Y-73674998D01*
X197787000Y-73674998D02*
X197787000Y-72674998D01*
X198787000Y-59674998D02*
X197787000Y-59674998D01*
X197787000Y-60674998D02*
X197787000Y-59674998D01*
X210787000Y-73674998D02*
X211787000Y-73674998D01*
X211787000Y-59674998D02*
X211787000Y-60674998D01*
X211787000Y-72674998D02*
X211787000Y-73674998D01*
%TO.C,K36*%
X83487000Y-108299998D02*
X83487000Y-107299998D01*
X97487000Y-107299998D02*
X97487000Y-108299998D01*
X83487000Y-121299998D02*
X83487000Y-120299998D01*
X83487000Y-121299998D02*
X84487000Y-121299998D01*
X97487000Y-107299998D02*
X96487000Y-107299998D01*
X96487000Y-121299998D02*
X97487000Y-121299998D01*
X84487000Y-107299998D02*
X83487000Y-107299998D01*
X97487000Y-120299998D02*
X97487000Y-121299998D01*
%TO.C,K23*%
X164162000Y-88249998D02*
X164162000Y-89249998D01*
X164162000Y-88249998D02*
X163162000Y-88249998D01*
X151162000Y-88249998D02*
X150162000Y-88249998D01*
X150162000Y-89249998D02*
X150162000Y-88249998D01*
X164162000Y-101249998D02*
X164162000Y-102249998D01*
X150162000Y-102249998D02*
X151162000Y-102249998D01*
X150162000Y-102249998D02*
X150162000Y-101249998D01*
X163162000Y-102249998D02*
X164162000Y-102249998D01*
%TO.C,K43*%
X229837000Y-121299998D02*
X230837000Y-121299998D01*
X230837000Y-107299998D02*
X229837000Y-107299998D01*
X216837000Y-121299998D02*
X216837000Y-120299998D01*
X216837000Y-108299998D02*
X216837000Y-107299998D01*
X230837000Y-107299998D02*
X230837000Y-108299998D01*
X216837000Y-121299998D02*
X217837000Y-121299998D01*
X217837000Y-107299998D02*
X216837000Y-107299998D01*
X230837000Y-120299998D02*
X230837000Y-121299998D01*
%TO.C,K22*%
X145112000Y-88249998D02*
X145112000Y-89249998D01*
X145112000Y-101249998D02*
X145112000Y-102249998D01*
X131112000Y-89249998D02*
X131112000Y-88249998D01*
X132112000Y-88249998D02*
X131112000Y-88249998D01*
X131112000Y-102249998D02*
X131112000Y-101249998D01*
X145112000Y-88249998D02*
X144112000Y-88249998D01*
X131112000Y-102249998D02*
X132112000Y-102249998D01*
X144112000Y-102249998D02*
X145112000Y-102249998D01*
%TO.C,K56*%
X145400000Y-140349998D02*
X145400000Y-139349998D01*
X158400000Y-140349998D02*
X159400000Y-140349998D01*
X146400000Y-126349998D02*
X145400000Y-126349998D01*
X159400000Y-126349998D02*
X159400000Y-127349998D01*
X159400000Y-126349998D02*
X158400000Y-126349998D01*
X145400000Y-127349998D02*
X145400000Y-126349998D01*
X145400000Y-140349998D02*
X146400000Y-140349998D01*
X159400000Y-139349998D02*
X159400000Y-140349998D01*
%TO.C,K55*%
X140350000Y-139349998D02*
X140350000Y-140349998D01*
X126350000Y-127349998D02*
X126350000Y-126349998D01*
X140350000Y-126349998D02*
X140350000Y-127349998D01*
X140350000Y-126349998D02*
X139350000Y-126349998D01*
X126350000Y-140349998D02*
X126350000Y-139349998D01*
X139350000Y-140349998D02*
X140350000Y-140349998D01*
X127350000Y-126349998D02*
X126350000Y-126349998D01*
X126350000Y-140349998D02*
X127350000Y-140349998D01*
%TO.C,K4*%
X112062000Y-73674998D02*
X112062000Y-72674998D01*
X113062000Y-59674998D02*
X112062000Y-59674998D01*
X112062000Y-60674998D02*
X112062000Y-59674998D01*
X125062000Y-73674998D02*
X126062000Y-73674998D01*
X126062000Y-59674998D02*
X126062000Y-60674998D01*
X126062000Y-72674998D02*
X126062000Y-73674998D01*
X126062000Y-59674998D02*
X125062000Y-59674998D01*
X112062000Y-73674998D02*
X113062000Y-73674998D01*
%TO.C,K59*%
X216550000Y-126349998D02*
X216550000Y-127349998D01*
X202550000Y-140349998D02*
X203550000Y-140349998D01*
X202550000Y-140349998D02*
X202550000Y-139349998D01*
X202550000Y-127349998D02*
X202550000Y-126349998D01*
X216550000Y-126349998D02*
X215550000Y-126349998D01*
X215550000Y-140349998D02*
X216550000Y-140349998D01*
X216550000Y-139349998D02*
X216550000Y-140349998D01*
X203550000Y-126349998D02*
X202550000Y-126349998D01*
%TO.C,K69*%
X154925000Y-159399998D02*
X154925000Y-158399998D01*
X168925000Y-158399998D02*
X168925000Y-159399998D01*
X154925000Y-146399998D02*
X154925000Y-145399998D01*
X168925000Y-145399998D02*
X167925000Y-145399998D01*
X154925000Y-159399998D02*
X155925000Y-159399998D01*
X167925000Y-159399998D02*
X168925000Y-159399998D01*
X155925000Y-145399998D02*
X154925000Y-145399998D01*
X168925000Y-145399998D02*
X168925000Y-146399998D01*
%TO.C,K34*%
X41625000Y-107299998D02*
X40625000Y-107299998D01*
X54625000Y-107299998D02*
X54625000Y-108299998D01*
X54625000Y-107299998D02*
X53625000Y-107299998D01*
X40625000Y-108299998D02*
X40625000Y-107299998D01*
X40625000Y-121299998D02*
X41625000Y-121299998D01*
X40625000Y-121299998D02*
X40625000Y-120299998D01*
X54625000Y-120299998D02*
X54625000Y-121299998D01*
X53625000Y-121299998D02*
X54625000Y-121299998D01*
%TO.C,K78*%
X62055000Y-165449998D02*
X62055000Y-164449998D01*
X62055000Y-178449998D02*
X63055000Y-178449998D01*
X76055000Y-164449998D02*
X75055000Y-164449998D01*
X62055000Y-178449998D02*
X62055000Y-177449998D01*
X75055000Y-178449998D02*
X76055000Y-178449998D01*
X63055000Y-164449998D02*
X62055000Y-164449998D01*
X76055000Y-164449998D02*
X76055000Y-165449998D01*
X76055000Y-177449998D02*
X76055000Y-178449998D01*
%TO.C,K52*%
X82200000Y-140349998D02*
X83200000Y-140349998D01*
X83200000Y-139349998D02*
X83200000Y-140349998D01*
X69200000Y-140349998D02*
X70200000Y-140349998D01*
X70200000Y-126349998D02*
X69200000Y-126349998D01*
X69200000Y-140349998D02*
X69200000Y-139349998D01*
X83200000Y-126349998D02*
X83200000Y-127349998D01*
X83200000Y-126349998D02*
X82200000Y-126349998D01*
X69200000Y-127349998D02*
X69200000Y-126349998D01*
%TO.C,K75*%
X283512000Y-159399998D02*
X283512000Y-158399998D01*
X297512000Y-145399998D02*
X297512000Y-146399998D01*
X297512000Y-158399998D02*
X297512000Y-159399998D01*
X297512000Y-145399998D02*
X296512000Y-145399998D01*
X283512000Y-159399998D02*
X284512000Y-159399998D01*
X283512000Y-146399998D02*
X283512000Y-145399998D01*
X296512000Y-159399998D02*
X297512000Y-159399998D01*
X284512000Y-145399998D02*
X283512000Y-145399998D01*
%TO.C,K67*%
X130825000Y-158399998D02*
X130825000Y-159399998D01*
X116825000Y-146399998D02*
X116825000Y-145399998D01*
X116825000Y-159399998D02*
X117825000Y-159399998D01*
X129825000Y-159399998D02*
X130825000Y-159399998D01*
X116825000Y-159399998D02*
X116825000Y-158399998D01*
X130825000Y-145399998D02*
X129825000Y-145399998D01*
X130825000Y-145399998D02*
X130825000Y-146399998D01*
X117825000Y-145399998D02*
X116825000Y-145399998D01*
%TO.C,K26*%
X207312000Y-102249998D02*
X208312000Y-102249998D01*
X221312000Y-101249998D02*
X221312000Y-102249998D01*
X221312000Y-88249998D02*
X221312000Y-89249998D01*
X207312000Y-89249998D02*
X207312000Y-88249998D01*
X220312000Y-102249998D02*
X221312000Y-102249998D01*
X208312000Y-88249998D02*
X207312000Y-88249998D01*
X207312000Y-102249998D02*
X207312000Y-101249998D01*
X221312000Y-88249998D02*
X220312000Y-88249998D01*
D11*
%TO.C,R10*%
X324265000Y-61772936D02*
X324265000Y-62227064D01*
X325735000Y-61772936D02*
X325735000Y-62227064D01*
D10*
%TO.C,K58*%
X183500000Y-140349998D02*
X184500000Y-140349998D01*
X197500000Y-126349998D02*
X196500000Y-126349998D01*
X196500000Y-140349998D02*
X197500000Y-140349998D01*
X183500000Y-127349998D02*
X183500000Y-126349998D01*
X184500000Y-126349998D02*
X183500000Y-126349998D01*
X197500000Y-126349998D02*
X197500000Y-127349998D01*
X197500000Y-139349998D02*
X197500000Y-140349998D01*
X183500000Y-140349998D02*
X183500000Y-139349998D01*
%TO.C,K61*%
X240650000Y-127349998D02*
X240650000Y-126349998D01*
X253650000Y-140349998D02*
X254650000Y-140349998D01*
X240650000Y-140349998D02*
X240650000Y-139349998D01*
X254650000Y-139349998D02*
X254650000Y-140349998D01*
X240650000Y-140349998D02*
X241650000Y-140349998D01*
X241650000Y-126349998D02*
X240650000Y-126349998D01*
X254650000Y-126349998D02*
X254650000Y-127349998D01*
X254650000Y-126349998D02*
X253650000Y-126349998D01*
%TO.C,K62*%
X259700000Y-127349998D02*
X259700000Y-126349998D01*
X260700000Y-126349998D02*
X259700000Y-126349998D01*
X272700000Y-140349998D02*
X273700000Y-140349998D01*
X273700000Y-126349998D02*
X272700000Y-126349998D01*
X273700000Y-139349998D02*
X273700000Y-140349998D01*
X273700000Y-126349998D02*
X273700000Y-127349998D01*
X259700000Y-140349998D02*
X260700000Y-140349998D01*
X259700000Y-140349998D02*
X259700000Y-139349998D01*
%TO.C,K6*%
X173687000Y-72674998D02*
X173687000Y-73674998D01*
X160687000Y-59674998D02*
X159687000Y-59674998D01*
X173687000Y-59674998D02*
X173687000Y-60674998D01*
X159687000Y-60674998D02*
X159687000Y-59674998D01*
X159687000Y-73674998D02*
X160687000Y-73674998D01*
X172687000Y-73674998D02*
X173687000Y-73674998D01*
X159687000Y-73674998D02*
X159687000Y-72674998D01*
X173687000Y-59674998D02*
X172687000Y-59674998D01*
%TO.C,K40*%
X159687000Y-108299998D02*
X159687000Y-107299998D01*
X173687000Y-107299998D02*
X173687000Y-108299998D01*
X173687000Y-107299998D02*
X172687000Y-107299998D01*
X160687000Y-107299998D02*
X159687000Y-107299998D01*
X172687000Y-121299998D02*
X173687000Y-121299998D01*
X159687000Y-121299998D02*
X160687000Y-121299998D01*
X159687000Y-121299998D02*
X159687000Y-120299998D01*
X173687000Y-120299998D02*
X173687000Y-121299998D01*
%TO.C,K17*%
X35862000Y-89249998D02*
X35862000Y-88249998D01*
X36862000Y-88249998D02*
X35862000Y-88249998D01*
X49862000Y-88249998D02*
X49862000Y-89249998D01*
X48862000Y-102249998D02*
X49862000Y-102249998D01*
X35862000Y-102249998D02*
X36862000Y-102249998D01*
X35862000Y-102249998D02*
X35862000Y-101249998D01*
X49862000Y-88249998D02*
X48862000Y-88249998D01*
X49862000Y-101249998D02*
X49862000Y-102249998D01*
%TO.C,K85*%
X345137000Y-177449998D02*
X345137000Y-178449998D01*
X345137000Y-164449998D02*
X344137000Y-164449998D01*
X345137000Y-164449998D02*
X345137000Y-165449998D01*
X331137000Y-165449998D02*
X331137000Y-164449998D01*
X331137000Y-178449998D02*
X332137000Y-178449998D01*
X331137000Y-178449998D02*
X331137000Y-177449998D01*
X332137000Y-164449998D02*
X331137000Y-164449998D01*
X344137000Y-178449998D02*
X345137000Y-178449998D01*
%TO.C,K21*%
X126062000Y-88249998D02*
X125062000Y-88249998D01*
X112062000Y-102249998D02*
X112062000Y-101249998D01*
X126062000Y-88249998D02*
X126062000Y-89249998D01*
X113062000Y-88249998D02*
X112062000Y-88249998D01*
X126062000Y-101249998D02*
X126062000Y-102249998D01*
X112062000Y-102249998D02*
X113062000Y-102249998D01*
X125062000Y-102249998D02*
X126062000Y-102249998D01*
X112062000Y-89249998D02*
X112062000Y-88249998D01*
%TO.C,K47*%
X297800000Y-121299998D02*
X298800000Y-121299998D01*
X297800000Y-121299998D02*
X297800000Y-120299998D01*
X311800000Y-107299998D02*
X311800000Y-108299998D01*
X297800000Y-108299998D02*
X297800000Y-107299998D01*
X298800000Y-107299998D02*
X297800000Y-107299998D01*
X310800000Y-121299998D02*
X311800000Y-121299998D01*
X311800000Y-107299998D02*
X310800000Y-107299998D01*
X311800000Y-120299998D02*
X311800000Y-121299998D01*
%TO.C,K65*%
X78725000Y-159399998D02*
X78725000Y-158399998D01*
X78725000Y-146399998D02*
X78725000Y-145399998D01*
X92725000Y-145399998D02*
X92725000Y-146399998D01*
X92725000Y-158399998D02*
X92725000Y-159399998D01*
X91725000Y-159399998D02*
X92725000Y-159399998D01*
X79725000Y-145399998D02*
X78725000Y-145399998D01*
X78725000Y-159399998D02*
X79725000Y-159399998D01*
X92725000Y-145399998D02*
X91725000Y-145399998D01*
%TO.C,K3*%
X107012000Y-59674998D02*
X106012000Y-59674998D01*
X106012000Y-73674998D02*
X107012000Y-73674998D01*
X93012000Y-73674998D02*
X93012000Y-72674998D01*
X93012000Y-60674998D02*
X93012000Y-59674998D01*
X94012000Y-59674998D02*
X93012000Y-59674998D01*
X93012000Y-73674998D02*
X94012000Y-73674998D01*
X107012000Y-72674998D02*
X107012000Y-73674998D01*
X107012000Y-59674998D02*
X107012000Y-60674998D01*
%TO.C,K31*%
X345137000Y-101249998D02*
X345137000Y-102249998D01*
X331137000Y-89249998D02*
X331137000Y-88249998D01*
X345137000Y-88249998D02*
X344137000Y-88249998D01*
X344137000Y-102249998D02*
X345137000Y-102249998D01*
X331137000Y-102249998D02*
X331137000Y-101249998D01*
X345137000Y-88249998D02*
X345137000Y-89249998D01*
X332137000Y-88249998D02*
X331137000Y-88249998D01*
X331137000Y-102249998D02*
X332137000Y-102249998D01*
%TO.C,K86*%
X351187000Y-164449998D02*
X350187000Y-164449998D01*
X364187000Y-164449998D02*
X364187000Y-165449998D01*
X350187000Y-165449998D02*
X350187000Y-164449998D01*
X364187000Y-164449998D02*
X363187000Y-164449998D01*
X350187000Y-178449998D02*
X351187000Y-178449998D01*
X363187000Y-178449998D02*
X364187000Y-178449998D01*
X350187000Y-178449998D02*
X350187000Y-177449998D01*
X364187000Y-177449998D02*
X364187000Y-178449998D01*
%TO.C,K63*%
X303656000Y-140349998D02*
X304656000Y-140349998D01*
X304656000Y-126349998D02*
X304656000Y-127349998D01*
X291656000Y-126349998D02*
X290656000Y-126349998D01*
X290656000Y-140349998D02*
X291656000Y-140349998D01*
X290656000Y-140349998D02*
X290656000Y-139349998D01*
X304656000Y-139349998D02*
X304656000Y-140349998D01*
X304656000Y-126349998D02*
X303656000Y-126349998D01*
X290656000Y-127349998D02*
X290656000Y-126349998D01*
%TO.C,K70*%
X187975000Y-158399998D02*
X187975000Y-159399998D01*
X173975000Y-146399998D02*
X173975000Y-145399998D01*
X173975000Y-159399998D02*
X174975000Y-159399998D01*
X174975000Y-145399998D02*
X173975000Y-145399998D01*
X186975000Y-159399998D02*
X187975000Y-159399998D01*
X173975000Y-159399998D02*
X173975000Y-158399998D01*
X187975000Y-145399998D02*
X187975000Y-146399998D01*
X187975000Y-145399998D02*
X186975000Y-145399998D01*
%TO.C,K30*%
X306037000Y-102249998D02*
X307037000Y-102249998D01*
X294037000Y-88249998D02*
X293037000Y-88249998D01*
X293037000Y-89249998D02*
X293037000Y-88249998D01*
X293037000Y-102249998D02*
X294037000Y-102249998D01*
X307037000Y-88249998D02*
X306037000Y-88249998D01*
X307037000Y-88249998D02*
X307037000Y-89249998D01*
X307037000Y-101249998D02*
X307037000Y-102249998D01*
X293037000Y-102249998D02*
X293037000Y-101249998D01*
%TO.C,K41*%
X192737000Y-107299998D02*
X191737000Y-107299998D01*
X178737000Y-121299998D02*
X179737000Y-121299998D01*
X178737000Y-121299998D02*
X178737000Y-120299998D01*
X179737000Y-107299998D02*
X178737000Y-107299998D01*
X192737000Y-120299998D02*
X192737000Y-121299998D01*
X178737000Y-108299998D02*
X178737000Y-107299998D01*
X192737000Y-107299998D02*
X192737000Y-108299998D01*
X191737000Y-121299998D02*
X192737000Y-121299998D01*
%TO.C,K16*%
X383237000Y-59674998D02*
X383237000Y-60674998D01*
X370237000Y-59674998D02*
X369237000Y-59674998D01*
X369237000Y-73674998D02*
X370237000Y-73674998D01*
X369237000Y-73674998D02*
X369237000Y-72674998D01*
X383237000Y-59674998D02*
X382237000Y-59674998D01*
X383237000Y-72674998D02*
X383237000Y-73674998D01*
X382237000Y-73674998D02*
X383237000Y-73674998D01*
X369237000Y-60674998D02*
X369237000Y-59674998D01*
%TO.C,K53*%
X88250000Y-140349998D02*
X89250000Y-140349998D01*
X88250000Y-140349998D02*
X88250000Y-139349998D01*
X88250000Y-127349998D02*
X88250000Y-126349998D01*
X102250000Y-126349998D02*
X102250000Y-127349998D01*
X102250000Y-139349998D02*
X102250000Y-140349998D01*
X101250000Y-140349998D02*
X102250000Y-140349998D01*
X102250000Y-126349998D02*
X101250000Y-126349998D01*
X89250000Y-126349998D02*
X88250000Y-126349998D01*
%TO.C,K68*%
X149875000Y-158399998D02*
X149875000Y-159399998D01*
X149875000Y-145399998D02*
X149875000Y-146399998D01*
X135875000Y-159399998D02*
X135875000Y-158399998D01*
X136875000Y-145399998D02*
X135875000Y-145399998D01*
X149875000Y-145399998D02*
X148875000Y-145399998D01*
X135875000Y-146399998D02*
X135875000Y-145399998D01*
X148875000Y-159399998D02*
X149875000Y-159399998D01*
X135875000Y-159399998D02*
X136875000Y-159399998D01*
%TO.C,K80*%
X157305000Y-178449998D02*
X157305000Y-177449998D01*
X171305000Y-164449998D02*
X171305000Y-165449998D01*
X157305000Y-178449998D02*
X158305000Y-178449998D01*
X158305000Y-164449998D02*
X157305000Y-164449998D01*
X170305000Y-178449998D02*
X171305000Y-178449998D01*
X157305000Y-165449998D02*
X157305000Y-164449998D01*
X171305000Y-177449998D02*
X171305000Y-178449998D01*
X171305000Y-164449998D02*
X170305000Y-164449998D01*
%TO.C,K42*%
X211787000Y-107299998D02*
X211787000Y-108299998D01*
X211787000Y-107299998D02*
X210787000Y-107299998D01*
X197787000Y-108299998D02*
X197787000Y-107299998D01*
X210787000Y-121299998D02*
X211787000Y-121299998D01*
X198787000Y-107299998D02*
X197787000Y-107299998D01*
X211787000Y-120299998D02*
X211787000Y-121299998D01*
X197787000Y-121299998D02*
X197787000Y-120299998D01*
X197787000Y-121299998D02*
X198787000Y-121299998D01*
%TO.C,K60*%
X234600000Y-140349998D02*
X235600000Y-140349998D01*
X221600000Y-140349998D02*
X222600000Y-140349998D01*
X235600000Y-126349998D02*
X234600000Y-126349998D01*
X221600000Y-140349998D02*
X221600000Y-139349998D01*
X221600000Y-127349998D02*
X221600000Y-126349998D01*
X222600000Y-126349998D02*
X221600000Y-126349998D01*
X235600000Y-126349998D02*
X235600000Y-127349998D01*
X235600000Y-139349998D02*
X235600000Y-140349998D01*
%TO.C,K10*%
X259412000Y-72674998D02*
X259412000Y-73674998D01*
X259412000Y-59674998D02*
X258412000Y-59674998D01*
X245412000Y-60674998D02*
X245412000Y-59674998D01*
X259412000Y-59674998D02*
X259412000Y-60674998D01*
X258412000Y-73674998D02*
X259412000Y-73674998D01*
X246412000Y-59674998D02*
X245412000Y-59674998D01*
X245412000Y-73674998D02*
X245412000Y-72674998D01*
X245412000Y-73674998D02*
X246412000Y-73674998D01*
%TO.C,K9*%
X216837000Y-73674998D02*
X216837000Y-72674998D01*
X216837000Y-60674998D02*
X216837000Y-59674998D01*
X230837000Y-59674998D02*
X230837000Y-60674998D01*
X229837000Y-73674998D02*
X230837000Y-73674998D01*
X216837000Y-73674998D02*
X217837000Y-73674998D01*
X217837000Y-59674998D02*
X216837000Y-59674998D01*
X230837000Y-72674998D02*
X230837000Y-73674998D01*
X230837000Y-59674998D02*
X229837000Y-59674998D01*
%TO.C,K76*%
X350187000Y-159399998D02*
X351187000Y-159399998D01*
X364187000Y-145399998D02*
X364187000Y-146399998D01*
X363187000Y-159399998D02*
X364187000Y-159399998D01*
X364187000Y-158399998D02*
X364187000Y-159399998D01*
X350187000Y-159399998D02*
X350187000Y-158399998D01*
X351187000Y-145399998D02*
X350187000Y-145399998D01*
X364187000Y-145399998D02*
X363187000Y-145399998D01*
X350187000Y-146399998D02*
X350187000Y-145399998D01*
%TO.C,K71*%
X207025000Y-158399998D02*
X207025000Y-159399998D01*
X193025000Y-146399998D02*
X193025000Y-145399998D01*
X207025000Y-145399998D02*
X207025000Y-146399998D01*
X194025000Y-145399998D02*
X193025000Y-145399998D01*
X207025000Y-145399998D02*
X206025000Y-145399998D01*
X193025000Y-159399998D02*
X193025000Y-158399998D01*
X193025000Y-159399998D02*
X194025000Y-159399998D01*
X206025000Y-159399998D02*
X207025000Y-159399998D01*
%TO.C,K28*%
X245412000Y-102249998D02*
X245412000Y-101249998D01*
X245412000Y-102249998D02*
X246412000Y-102249998D01*
X245412000Y-89249998D02*
X245412000Y-88249998D01*
X246412000Y-88249998D02*
X245412000Y-88249998D01*
X259412000Y-88249998D02*
X259412000Y-89249998D01*
X258412000Y-102249998D02*
X259412000Y-102249998D01*
X259412000Y-88249998D02*
X258412000Y-88249998D01*
X259412000Y-101249998D02*
X259412000Y-102249998D01*
%TO.C,K50*%
X369237000Y-108299998D02*
X369237000Y-107299998D01*
X383237000Y-107299998D02*
X383237000Y-108299998D01*
X369237000Y-121299998D02*
X369237000Y-120299998D01*
X383237000Y-107299998D02*
X382237000Y-107299998D01*
X383237000Y-120299998D02*
X383237000Y-121299998D01*
X382237000Y-121299998D02*
X383237000Y-121299998D01*
X370237000Y-107299998D02*
X369237000Y-107299998D01*
X369237000Y-121299998D02*
X370237000Y-121299998D01*
%TO.C,K27*%
X239362000Y-102249998D02*
X240362000Y-102249998D01*
X240362000Y-88249998D02*
X240362000Y-89249998D01*
X227362000Y-88249998D02*
X226362000Y-88249998D01*
X226362000Y-102249998D02*
X226362000Y-101249998D01*
X240362000Y-101249998D02*
X240362000Y-102249998D01*
X226362000Y-102249998D02*
X227362000Y-102249998D01*
X226362000Y-89249998D02*
X226362000Y-88249998D01*
X240362000Y-88249998D02*
X239362000Y-88249998D01*
%TO.C,K66*%
X97775000Y-159399998D02*
X97775000Y-158399998D01*
X97775000Y-146399998D02*
X97775000Y-145399998D01*
X98775000Y-145399998D02*
X97775000Y-145399998D01*
X110775000Y-159399998D02*
X111775000Y-159399998D01*
X97775000Y-159399998D02*
X98775000Y-159399998D01*
X111775000Y-145399998D02*
X110775000Y-145399998D01*
X111775000Y-145399998D02*
X111775000Y-146399998D01*
X111775000Y-158399998D02*
X111775000Y-159399998D01*
%TO.C,K12*%
X297512000Y-59674998D02*
X296512000Y-59674998D01*
X297512000Y-59674998D02*
X297512000Y-60674998D01*
X284512000Y-59674998D02*
X283512000Y-59674998D01*
X283512000Y-60674998D02*
X283512000Y-59674998D01*
X283512000Y-73674998D02*
X284512000Y-73674998D01*
X296512000Y-73674998D02*
X297512000Y-73674998D01*
X297512000Y-72674998D02*
X297512000Y-73674998D01*
X283512000Y-73674998D02*
X283512000Y-72674998D01*
%TO.C,K7*%
X178737000Y-73674998D02*
X179737000Y-73674998D01*
X192737000Y-59674998D02*
X191737000Y-59674998D01*
X178737000Y-73674998D02*
X178737000Y-72674998D01*
X191737000Y-73674998D02*
X192737000Y-73674998D01*
X192737000Y-59674998D02*
X192737000Y-60674998D01*
X192737000Y-72674998D02*
X192737000Y-73674998D01*
X178737000Y-60674998D02*
X178737000Y-59674998D01*
X179737000Y-59674998D02*
X178737000Y-59674998D01*
%TO.C,K83*%
X286368000Y-177449998D02*
X286368000Y-178449998D01*
X273368000Y-164449998D02*
X272368000Y-164449998D01*
X285368000Y-178449998D02*
X286368000Y-178449998D01*
X272368000Y-165449998D02*
X272368000Y-164449998D01*
X286368000Y-164449998D02*
X285368000Y-164449998D01*
X286368000Y-164449998D02*
X286368000Y-165449998D01*
X272368000Y-178449998D02*
X273368000Y-178449998D01*
X272368000Y-178449998D02*
X272368000Y-177449998D01*
%TO.C,K79*%
X99868000Y-177449998D02*
X99868000Y-178449998D01*
X85868000Y-178449998D02*
X86868000Y-178449998D01*
X99868000Y-164449998D02*
X99868000Y-165449998D01*
X85868000Y-165449998D02*
X85868000Y-164449998D01*
X85868000Y-178449998D02*
X85868000Y-177449998D01*
X98868000Y-178449998D02*
X99868000Y-178449998D01*
X86868000Y-164449998D02*
X85868000Y-164449998D01*
X99868000Y-164449998D02*
X98868000Y-164449998D01*
%TO.C,K51*%
X43006000Y-127349998D02*
X43006000Y-126349998D01*
X57006000Y-126349998D02*
X57006000Y-127349998D01*
X44006000Y-126349998D02*
X43006000Y-126349998D01*
X43006000Y-140349998D02*
X44006000Y-140349998D01*
X57006000Y-126349998D02*
X56006000Y-126349998D01*
X56006000Y-140349998D02*
X57006000Y-140349998D01*
X43006000Y-140349998D02*
X43006000Y-139349998D01*
X57006000Y-139349998D02*
X57006000Y-140349998D01*
%TO.C,K2*%
X73962000Y-60674998D02*
X73962000Y-59674998D01*
X74962000Y-59674998D02*
X73962000Y-59674998D01*
X86962000Y-73674998D02*
X87962000Y-73674998D01*
X73962000Y-73674998D02*
X74962000Y-73674998D01*
X87962000Y-72674998D02*
X87962000Y-73674998D01*
X87962000Y-59674998D02*
X87962000Y-60674998D01*
X73962000Y-73674998D02*
X73962000Y-72674998D01*
X87962000Y-59674998D02*
X86962000Y-59674998D01*
%TO.C,K18*%
X68912000Y-101249998D02*
X68912000Y-102249998D01*
X68912000Y-88249998D02*
X67912000Y-88249998D01*
X54912000Y-102249998D02*
X54912000Y-101249998D01*
X54912000Y-89249998D02*
X54912000Y-88249998D01*
X67912000Y-102249998D02*
X68912000Y-102249998D01*
X54912000Y-102249998D02*
X55912000Y-102249998D01*
X55912000Y-88249998D02*
X54912000Y-88249998D01*
X68912000Y-88249998D02*
X68912000Y-89249998D01*
D11*
%TO.C,R7*%
X326265000Y-62227064D02*
X326265000Y-61772936D01*
X327735000Y-62227064D02*
X327735000Y-61772936D01*
D10*
%TO.C,K54*%
X121300000Y-126349998D02*
X120300000Y-126349998D01*
X121300000Y-126349998D02*
X121300000Y-127349998D01*
X107300000Y-140349998D02*
X107300000Y-139349998D01*
X121300000Y-139349998D02*
X121300000Y-140349998D01*
X108300000Y-126349998D02*
X107300000Y-126349998D01*
X120300000Y-140349998D02*
X121300000Y-140349998D01*
X107300000Y-140349998D02*
X108300000Y-140349998D01*
X107300000Y-127349998D02*
X107300000Y-126349998D01*
%TO.C,K25*%
X201262000Y-102249998D02*
X202262000Y-102249998D01*
X189262000Y-88249998D02*
X188262000Y-88249998D01*
X202262000Y-101249998D02*
X202262000Y-102249998D01*
X188262000Y-89249998D02*
X188262000Y-88249998D01*
X188262000Y-102249998D02*
X189262000Y-102249998D01*
X202262000Y-88249998D02*
X202262000Y-89249998D01*
X202262000Y-88249998D02*
X201262000Y-88249998D01*
X188262000Y-102249998D02*
X188262000Y-101249998D01*
%TO.C,K14*%
X331137000Y-73674998D02*
X332137000Y-73674998D01*
X332137000Y-59674998D02*
X331137000Y-59674998D01*
X331137000Y-60674998D02*
X331137000Y-59674998D01*
X344137000Y-73674998D02*
X345137000Y-73674998D01*
X345137000Y-59674998D02*
X344137000Y-59674998D01*
X331137000Y-73674998D02*
X331137000Y-72674998D01*
X345137000Y-72674998D02*
X345137000Y-73674998D01*
X345137000Y-59674998D02*
X345137000Y-60674998D01*
%TO.C,K77*%
X38243000Y-165449998D02*
X38243000Y-164449998D01*
X39243000Y-164449998D02*
X38243000Y-164449998D01*
X52243000Y-164449998D02*
X51243000Y-164449998D01*
X52243000Y-164449998D02*
X52243000Y-165449998D01*
X52243000Y-177449998D02*
X52243000Y-178449998D01*
X38243000Y-178449998D02*
X39243000Y-178449998D01*
X51243000Y-178449998D02*
X52243000Y-178449998D01*
X38243000Y-178449998D02*
X38243000Y-177449998D01*
%TO.C,K35*%
X78437000Y-107299998D02*
X77437000Y-107299998D01*
X64437000Y-121299998D02*
X65437000Y-121299998D01*
X64437000Y-121299998D02*
X64437000Y-120299998D01*
X78437000Y-107299998D02*
X78437000Y-108299998D01*
X77437000Y-121299998D02*
X78437000Y-121299998D01*
X64437000Y-108299998D02*
X64437000Y-107299998D01*
X65437000Y-107299998D02*
X64437000Y-107299998D01*
X78437000Y-120299998D02*
X78437000Y-121299998D01*
%TO.C,K33*%
X370237000Y-88249998D02*
X369237000Y-88249998D01*
X383237000Y-88249998D02*
X383237000Y-89249998D01*
X369237000Y-89249998D02*
X369237000Y-88249998D01*
X382237000Y-102249998D02*
X383237000Y-102249998D01*
X383237000Y-101249998D02*
X383237000Y-102249998D01*
X383237000Y-88249998D02*
X382237000Y-88249998D01*
X369237000Y-102249998D02*
X370237000Y-102249998D01*
X369237000Y-102249998D02*
X369237000Y-101249998D01*
%TO.C,K57*%
X178450000Y-139349998D02*
X178450000Y-140349998D01*
X178450000Y-126349998D02*
X177450000Y-126349998D01*
X164450000Y-140349998D02*
X165450000Y-140349998D01*
X178450000Y-126349998D02*
X178450000Y-127349998D01*
X164450000Y-127349998D02*
X164450000Y-126349998D01*
X165450000Y-126349998D02*
X164450000Y-126349998D01*
X177450000Y-140349998D02*
X178450000Y-140349998D01*
X164450000Y-140349998D02*
X164450000Y-139349998D01*
D11*
%TO.C,R8*%
X320265000Y-61772936D02*
X320265000Y-62227064D01*
X321735000Y-61772936D02*
X321735000Y-62227064D01*
D10*
%TO.C,K11*%
X278462000Y-59674998D02*
X278462000Y-60674998D01*
X264462000Y-73674998D02*
X265462000Y-73674998D01*
X278462000Y-72674998D02*
X278462000Y-73674998D01*
X265462000Y-59674998D02*
X264462000Y-59674998D01*
X277462000Y-73674998D02*
X278462000Y-73674998D01*
X278462000Y-59674998D02*
X277462000Y-59674998D01*
X264462000Y-60674998D02*
X264462000Y-59674998D01*
X264462000Y-73674998D02*
X264462000Y-72674998D01*
D11*
%TO.C,R9*%
X322265000Y-61772936D02*
X322265000Y-62227064D01*
X323735000Y-61772936D02*
X323735000Y-62227064D01*
D10*
%TO.C,K45*%
X254937000Y-121299998D02*
X255937000Y-121299998D01*
X268937000Y-120299998D02*
X268937000Y-121299998D01*
X268937000Y-107299998D02*
X267937000Y-107299998D01*
X254937000Y-121299998D02*
X254937000Y-120299998D01*
X267937000Y-121299998D02*
X268937000Y-121299998D01*
X255937000Y-107299998D02*
X254937000Y-107299998D01*
X268937000Y-107299998D02*
X268937000Y-108299998D01*
X254937000Y-108299998D02*
X254937000Y-107299998D01*
D12*
%TO.C,J2*%
X327305000Y-56762500D02*
G75*
G03*
X327305000Y-56762500I-100000J0D01*
G01*
D10*
%TO.C,K39*%
X154637000Y-107299998D02*
X153637000Y-107299998D01*
X153637000Y-121299998D02*
X154637000Y-121299998D01*
X154637000Y-120299998D02*
X154637000Y-121299998D01*
X140637000Y-121299998D02*
X141637000Y-121299998D01*
X154637000Y-107299998D02*
X154637000Y-108299998D01*
X140637000Y-121299998D02*
X140637000Y-120299998D01*
X140637000Y-108299998D02*
X140637000Y-107299998D01*
X141637000Y-107299998D02*
X140637000Y-107299998D01*
%TO.C,K37*%
X103537000Y-107299998D02*
X102537000Y-107299998D01*
X115537000Y-121299998D02*
X116537000Y-121299998D01*
X102537000Y-108299998D02*
X102537000Y-107299998D01*
X102537000Y-121299998D02*
X102537000Y-120299998D01*
X116537000Y-120299998D02*
X116537000Y-121299998D01*
X102537000Y-121299998D02*
X103537000Y-121299998D01*
X116537000Y-107299998D02*
X116537000Y-108299998D01*
X116537000Y-107299998D02*
X115537000Y-107299998D01*
%TO.C,K38*%
X121587000Y-121299998D02*
X122587000Y-121299998D01*
X121587000Y-121299998D02*
X121587000Y-120299998D01*
X134587000Y-121299998D02*
X135587000Y-121299998D01*
X121587000Y-108299998D02*
X121587000Y-107299998D01*
X135587000Y-107299998D02*
X134587000Y-107299998D01*
X135587000Y-120299998D02*
X135587000Y-121299998D01*
X122587000Y-107299998D02*
X121587000Y-107299998D01*
X135587000Y-107299998D02*
X135587000Y-108299998D01*
%TO.C,K87*%
X383237000Y-177449998D02*
X383237000Y-178449998D01*
X383237000Y-164449998D02*
X382237000Y-164449998D01*
X383237000Y-164449998D02*
X383237000Y-165449998D01*
X382237000Y-178449998D02*
X383237000Y-178449998D01*
X370237000Y-164449998D02*
X369237000Y-164449998D01*
X369237000Y-178449998D02*
X370237000Y-178449998D01*
X369237000Y-178449998D02*
X369237000Y-177449998D01*
X369237000Y-165449998D02*
X369237000Y-164449998D01*
%TO.C,K1*%
X35862000Y-60674998D02*
X35862000Y-59674998D01*
X48862000Y-73674998D02*
X49862000Y-73674998D01*
X49862000Y-59674998D02*
X49862000Y-60674998D01*
X35862000Y-73674998D02*
X36862000Y-73674998D01*
X35862000Y-73674998D02*
X35862000Y-72674998D01*
X36862000Y-59674998D02*
X35862000Y-59674998D01*
X49862000Y-59674998D02*
X48862000Y-59674998D01*
X49862000Y-72674998D02*
X49862000Y-73674998D01*
%TO.C,K29*%
X264462000Y-102249998D02*
X265462000Y-102249998D01*
X278462000Y-88249998D02*
X278462000Y-89249998D01*
X264462000Y-89249998D02*
X264462000Y-88249998D01*
X264462000Y-102249998D02*
X264462000Y-101249998D01*
X278462000Y-88249998D02*
X277462000Y-88249998D01*
X277462000Y-102249998D02*
X278462000Y-102249998D01*
X265462000Y-88249998D02*
X264462000Y-88249998D01*
X278462000Y-101249998D02*
X278462000Y-102249998D01*
%TO.C,K73*%
X232125000Y-145399998D02*
X231125000Y-145399998D01*
X231125000Y-146399998D02*
X231125000Y-145399998D01*
X231125000Y-159399998D02*
X231125000Y-158399998D01*
X245125000Y-145399998D02*
X245125000Y-146399998D01*
X245125000Y-158399998D02*
X245125000Y-159399998D01*
X231125000Y-159399998D02*
X232125000Y-159399998D01*
X244125000Y-159399998D02*
X245125000Y-159399998D01*
X245125000Y-145399998D02*
X244125000Y-145399998D01*
%TO.C,K84*%
X308180000Y-164449998D02*
X308180000Y-165449998D01*
X294180000Y-165449998D02*
X294180000Y-164449998D01*
X308180000Y-164449998D02*
X307180000Y-164449998D01*
X295180000Y-164449998D02*
X294180000Y-164449998D01*
X294180000Y-178449998D02*
X294180000Y-177449998D01*
X307180000Y-178449998D02*
X308180000Y-178449998D01*
X308180000Y-177449998D02*
X308180000Y-178449998D01*
X294180000Y-178449998D02*
X295180000Y-178449998D01*
%TO.C,K72*%
X212075000Y-159399998D02*
X213075000Y-159399998D01*
X212075000Y-146399998D02*
X212075000Y-145399998D01*
X226075000Y-145399998D02*
X225075000Y-145399998D01*
X226075000Y-158399998D02*
X226075000Y-159399998D01*
X226075000Y-145399998D02*
X226075000Y-146399998D01*
X212075000Y-159399998D02*
X212075000Y-158399998D01*
X213075000Y-145399998D02*
X212075000Y-145399998D01*
X225075000Y-159399998D02*
X226075000Y-159399998D01*
%TO.C,K49*%
X364187000Y-120299998D02*
X364187000Y-121299998D01*
X351187000Y-107299998D02*
X350187000Y-107299998D01*
X363187000Y-121299998D02*
X364187000Y-121299998D01*
X350187000Y-121299998D02*
X350187000Y-120299998D01*
X350187000Y-121299998D02*
X351187000Y-121299998D01*
X364187000Y-107299998D02*
X364187000Y-108299998D01*
X350187000Y-108299998D02*
X350187000Y-107299998D01*
X364187000Y-107299998D02*
X363187000Y-107299998D01*
%TO.C,K24*%
X183212000Y-88249998D02*
X182212000Y-88249998D01*
X169212000Y-102249998D02*
X170212000Y-102249998D01*
X169212000Y-89249998D02*
X169212000Y-88249998D01*
X183212000Y-88249998D02*
X183212000Y-89249998D01*
X170212000Y-88249998D02*
X169212000Y-88249998D01*
X182212000Y-102249998D02*
X183212000Y-102249998D01*
X169212000Y-102249998D02*
X169212000Y-101249998D01*
X183212000Y-101249998D02*
X183212000Y-102249998D01*
%TO.C,K64*%
X61769000Y-158399998D02*
X61769000Y-159399998D01*
X61769000Y-145399998D02*
X60769000Y-145399998D01*
X61769000Y-145399998D02*
X61769000Y-146399998D01*
X47769000Y-159399998D02*
X48769000Y-159399998D01*
X47769000Y-146399998D02*
X47769000Y-145399998D01*
X47769000Y-159399998D02*
X47769000Y-158399998D01*
X60769000Y-159399998D02*
X61769000Y-159399998D01*
X48769000Y-145399998D02*
X47769000Y-145399998D01*
%TO.C,K20*%
X93012000Y-102249998D02*
X93012000Y-101249998D01*
X107012000Y-88249998D02*
X106012000Y-88249998D01*
X94012000Y-88249998D02*
X93012000Y-88249998D01*
X106012000Y-102249998D02*
X107012000Y-102249998D01*
X107012000Y-88249998D02*
X107012000Y-89249998D01*
X93012000Y-102249998D02*
X94012000Y-102249998D01*
X107012000Y-101249998D02*
X107012000Y-102249998D01*
X93012000Y-89249998D02*
X93012000Y-88249998D01*
%TO.C,K32*%
X364187000Y-88249998D02*
X363187000Y-88249998D01*
X364187000Y-101249998D02*
X364187000Y-102249998D01*
X350187000Y-102249998D02*
X351187000Y-102249998D01*
X364187000Y-88249998D02*
X364187000Y-89249998D01*
X350187000Y-102249998D02*
X350187000Y-101249998D01*
X350187000Y-89249998D02*
X350187000Y-88249998D01*
X363187000Y-102249998D02*
X364187000Y-102249998D01*
X351187000Y-88249998D02*
X350187000Y-88249998D01*
%TO.C,K44*%
X235887000Y-108299998D02*
X235887000Y-107299998D01*
X249887000Y-107299998D02*
X248887000Y-107299998D01*
X249887000Y-120299998D02*
X249887000Y-121299998D01*
X249887000Y-107299998D02*
X249887000Y-108299998D01*
X248887000Y-121299998D02*
X249887000Y-121299998D01*
X235887000Y-121299998D02*
X236887000Y-121299998D01*
X236887000Y-107299998D02*
X235887000Y-107299998D01*
X235887000Y-121299998D02*
X235887000Y-120299998D01*
%TO.C,K46*%
X273987000Y-121299998D02*
X273987000Y-120299998D01*
X273987000Y-121299998D02*
X274987000Y-121299998D01*
X274987000Y-107299998D02*
X273987000Y-107299998D01*
X287987000Y-107299998D02*
X287987000Y-108299998D01*
X287987000Y-107299998D02*
X286987000Y-107299998D01*
X287987000Y-120299998D02*
X287987000Y-121299998D01*
X286987000Y-121299998D02*
X287987000Y-121299998D01*
X273987000Y-108299998D02*
X273987000Y-107299998D01*
%TO.C,K5*%
X131112000Y-73674998D02*
X131112000Y-72674998D01*
X131112000Y-60674998D02*
X131112000Y-59674998D01*
X132112000Y-59674998D02*
X131112000Y-59674998D01*
X144112000Y-73674998D02*
X145112000Y-73674998D01*
X145112000Y-59674998D02*
X144112000Y-59674998D01*
X131112000Y-73674998D02*
X132112000Y-73674998D01*
X145112000Y-72674998D02*
X145112000Y-73674998D01*
X145112000Y-59674998D02*
X145112000Y-60674998D01*
%TD*%
M02*
