M48
; DRILL file {KiCad (6.0.1)} date Sun Mar  6 15:28:09 2022
; FORMAT={-:-/ absolute / inch / decimal}
; #@! TF.CreationDate,2022-03-06T15:28:09-08:00
; #@! TF.GenerationSoftware,Kicad,Pcbnew,(6.0.1)
; #@! TF.FileFunction,Plated,1,2,PTH
FMAT,2
INCH
; #@! TA.AperFunction,Plated,PTH,ViaDrill
T1C0.0157
; #@! TA.AperFunction,Plated,PTH,ComponentDrill
T2C0.0197
; #@! TA.AperFunction,Plated,PTH,ComponentDrill
T3C0.0236
; #@! TA.AperFunction,Plated,PTH,ComponentDrill
T4C0.0276
%
G90
G05
T1
X1.5309Y-5.1921
X1.6308Y-6.5661
X1.693Y-4.6081
X1.8205Y-3.6567
X1.8333Y-3.4468
X1.8468Y-4.6081
X1.9323Y-3.6567
X1.9381Y-5.8947
X2.0131Y-4.4478
X2.0513Y-6.497
X2.0689Y-4.4632
X2.1119Y-4.3057
X2.1439Y-4.1695
X2.1568Y-6.4155
X2.2665Y-5.1471
X2.2866Y-6.4252
X2.4376Y-3.3818
X2.438Y-3.2594
X2.4571Y-3.4468
X2.5101Y-3.3818
X2.5271Y-6.6276
X2.5486Y-3.6567
X2.5915Y-2.5178
X2.5979Y-3.4245
X2.657Y-4.3176
X2.7585Y-4.1695
X2.8401Y-4.2217
X2.855Y-5.1471
X2.8808Y-6.518
X2.92Y-4.7531
X2.9556Y-4.3189
X3.0131Y-3.5636
X3.0143Y-6.4252
X3.0383Y-3.4245
X3.0594Y-4.9335
X3.2901Y-6.5429
X3.3558Y-3.5564
X3.3772Y-2.3438
X3.3829Y-4.4434
X3.4358Y-3.5833
X3.4462Y-4.1915
X3.4629Y-4.4287
X3.4661Y-6.5717
X3.4769Y-6.5041
X3.4796Y-6.2216
X3.4798Y-3.9498
X3.5068Y-6.5716
X3.5131Y-4.1189
X3.515Y-3.6576
X3.5342Y-4.1967
X3.5618Y-5.8564
X3.5802Y-6.4301
X3.7049Y-4.364
X3.7591Y-5.9995
X3.8088Y-4.9335
X3.8239Y-5.8908
X3.8286Y-4.6736
X3.9559Y-3.4245
X3.967Y-5.8564
X3.9891Y-5.9086
X4.0057Y-2.3437
X4.0057Y-4.1449
X4.018Y-3.372
X4.1158Y-6.9022
X4.1572Y-3.6447
X4.1572Y-4.1967
X4.1577Y-4.1449
X4.1887Y-4.1202
X4.2666Y-5.711
X4.2998Y-4.7271
X4.337Y-4.6103
X4.3439Y-6.0003
X4.3992Y-5.5791
X4.4514Y-5.9333
X4.4608Y-4.2888
X4.4698Y-4.3661
X4.5091Y-5.5285
X4.5658Y-4.9335
X4.5974Y-3.6447
X4.6603Y-5.9883
X4.6753Y-4.3963
X4.6754Y-3.442
X4.7094Y-6.8874
X4.7094Y-6.9794
X4.7098Y-7.0661
X4.7115Y-3.3854
X4.7133Y-5.5791
X4.7619Y-5.9758
X4.776Y-6.7886
X4.7913Y-2.3434
X4.8038Y-4.1574
X4.804Y-5.6819
X4.8197Y-6.6385
X4.8405Y-6.6023
X4.8429Y-6.7213
X4.8996Y-4.9114
X4.9123Y-6.7865
X4.9485Y-2.5301
X4.9485Y-4.8484
X4.9651Y-6.3092
X4.9762Y-4.1574
X4.9762Y-4.1975
X4.9813Y-6.4474
X4.9896Y-4.8881
X4.9927Y-6.368
X5.0091Y-6.7239
X5.027Y-5.8159
X5.0476Y-6.5211
X5.0512Y-2.4903
X5.0522Y-5.0745
X5.0613Y-4.7087
X5.0626Y-5.8954
X5.0695Y-4.6131
X5.0717Y-4.761
X5.0724Y-6.2268
X5.1063Y-6.6894
X5.1256Y-6.4921
X5.1487Y-4.7087
X5.1541Y-5.0015
X5.1561Y-6.5639
X5.1663Y-6.4697
X5.2037Y-6.302
X5.2057Y-6.9829
X5.2076Y-5.9922
X5.2115Y-4.4366
X5.3049Y-4.3947
X5.3123Y-4.7639
X5.3229Y-6.1194
X5.3235Y-6.4373
X5.3693Y-6.9677
X5.3886Y-4.9114
X5.3923Y-6.4095
X5.3984Y-6.526
X5.4024Y-5.8318
X5.4161Y-4.3947
X5.4199Y-2.2939
X5.4199Y-3.3851
X5.4212Y-6.3413
X5.4235Y-4.7016
X5.4255Y-6.9696
X5.4497Y-3.442
X5.4498Y-5.9922
X5.4708Y-6.962
X5.483Y-6.5789
X5.5102Y-6.9511
X5.5117Y-6.3889
X5.5186Y-6.8889
X5.5194Y-6.4561
X5.5576Y-6.9115
X5.5588Y-6.5913
X5.5614Y-6.7205
X5.5718Y-6.4549
X5.577Y-5.1556
X5.598Y-6.9769
X5.6049Y-3.5728
X5.6079Y-6.8589
X5.6352Y-4.8083
X5.6573Y-6.852
X5.665Y-4.4366
X5.674Y-6.636
X5.6786Y-6.2898
X5.6874Y-6.7378
X5.7371Y-6.3224
X5.7705Y-5.8525
X5.8619Y-3.3571
X5.8644Y-4.6319
X5.8941Y-5.8524
X5.9097Y-5.0029
X5.9591Y-6.0264
X5.9665Y-3.5728
X5.9735Y-5.6236
X5.9839Y-3.432
X5.9901Y-4.465
X6.0027Y-4.7738
X6.0037Y-3.3851
X6.0252Y-6.2898
X6.1521Y-5.601
X6.1838Y-4.922
X6.191Y-5.0956
X6.1972Y-6.2898
X6.224Y-5.8524
X6.2285Y-7.046
X6.2439Y-5.0441
X6.3501Y-3.5308
X6.3575Y-6.7921
X6.4215Y-4.465
X6.4221Y-4.9143
X6.5336Y-5.0956
X6.571Y-5.893
X6.5793Y-4.6272
X6.5794Y-5.0441
X6.6769Y-4.9461
X6.71Y-4.3517
X6.7232Y-3.5697
X6.7366Y-7.068
X6.7653Y-3.2371
X6.7784Y-3.4028
X6.7831Y-5.9537
X6.8302Y-2.8025
X6.8438Y-4.4565
X6.8752Y-4.7982
X6.9911Y-5.7185
X6.9991Y-5.1292
X7.0096Y-6.6453
X7.0218Y-4.8912
X7.0336Y-3.4777
X7.0592Y-6.5759
X7.0896Y-2.5166
X7.0948Y-6.5193
X7.1045Y-5.7205
X7.1297Y-4.2678
X7.1322Y-4.3277
X7.1767Y-4.4565
X7.182Y-5.1413
X7.232Y-5.8969
X7.2645Y-5.8215
X7.2763Y-2.344
X7.2971Y-6.5894
X7.3619Y-2.3293
X7.3639Y-5.1324
X7.3741Y-6.6847
X7.379Y-4.9367
X7.384Y-5.706
X7.4276Y-7.1117
X7.4553Y-6.5785
X7.4816Y-6.73
X7.5105Y-6.3603
X7.5236Y-7.0266
X7.5386Y-5.7205
X7.5579Y-6.3017
X7.5987Y-6.4526
X7.6133Y-4.4633
X7.6835Y-3.4476
X7.6938Y-4.4633
X7.7069Y-5.8969
X7.7087Y-2.4917
X7.718Y-5.5027
X7.7245Y-5.7585
X7.7288Y-6.4283
X7.7423Y-6.3889
X7.7673Y-4.9037
X7.8105Y-6.6477
X7.8301Y-6.4281
X7.8346Y-6.5917
X7.8352Y-6.359
X7.8473Y-5.0571
X7.8644Y-6.8773
X7.8827Y-6.2983
X7.8878Y-4.4633
X7.9142Y-6.6713
X7.9237Y-5.5628
X7.9339Y-2.344
X7.9404Y-6.1679
X7.9418Y-6.1193
X7.9468Y-6.5113
X7.9535Y-6.6453
X7.9629Y-6.7358
X7.9768Y-4.398
X8.0323Y-5.5993
X8.0683Y-6.2331
X8.0966Y-5.0015
X8.0998Y-5.3525
X8.1069Y-6.0321
X8.1169Y-5.9032
X8.1342Y-5.969
X8.1426Y-5.6857
X8.1615Y-6.4596
X8.2063Y-6.5327
X8.2205Y-5.8433
X8.2205Y-6.2331
X8.2293Y-4.8091
X8.2482Y-3.6344
X8.2676Y-4.6643
X8.2775Y-5.8509
X8.2929Y-4.397
X8.3769Y-6.6781
X8.3933Y-4.1045
X8.3952Y-5.873
X8.4053Y-3.4454
X8.4097Y-4.3685
X8.4274Y-5.9843
X8.4534Y-6.6463
X8.4765Y-5.8423
X8.4792Y-5.9197
X8.5236Y-3.4226
X8.5547Y-4.3806
X8.5575Y-3.7154
X8.5994Y-6.4084
X8.6762Y-6.3241
X8.7444Y-6.3495
X8.7655Y-4.9037
X8.8055Y-3.3851
X8.8718Y-4.7932
X8.8735Y-6.1927
X8.8804Y-3.6499
X8.9028Y-5.36
X8.9059Y-4.4225
X8.9237Y-5.8744
X8.9469Y-4.9468
X8.9705Y-4.403
X9.0031Y-2.5443
X9.0275Y-4.4032
X9.0344Y-5.43
X9.0407Y-5.36
X9.057Y-5.9568
X9.0767Y-4.4672
X9.1054Y-4.5168
X9.1072Y-6.6781
X9.1261Y-6.5354
X9.1658Y-6.736
X9.1837Y-3.4483
X9.1864Y-4.4884
X9.1975Y-4.4361
X9.2834Y-3.4131
X9.3185Y-3.6512
X9.3314Y-4.1293
X9.5003Y-6.4468
X9.5145Y-3.4381
X9.5218Y-6.5745
X9.5272Y-5.9843
X9.5458Y-4.9468
X9.5616Y-6.4405
X9.5882Y-6.1836
X9.6346Y-4.4087
X9.635Y-6.0265
X9.6442Y-4.1526
X9.6526Y-4.8568
X9.6689Y-5.8613
X9.713Y-5.9071
X9.7788Y-3.4435
X9.7801Y-2.4731
X9.8063Y-2.3438
X9.8195Y-4.3176
X9.8553Y-5.2344
X9.8735Y-4.9209
X10.002Y-3.3643
X10.0385Y-2.8003
X10.0537Y-6.4405
X10.0725Y-6.5745
X10.0802Y-4.1141
X10.1335Y-3.4435
X10.2008Y-2.5337
X10.2086Y-4.2551
X10.2494Y-4.0994
X10.2526Y-4.1565
X10.2531Y-4.1959
X10.3405Y-5.8139
X10.3458Y-6.6979
X10.3783Y-5.9212
X10.3819Y-4.8445
X10.3998Y-4.9401
X10.4047Y-4.4067
X10.4317Y-5.5333
X10.4547Y-6.4568
X10.4582Y-5.8139
X10.5354Y-4.499
X10.5786Y-4.7764
X10.6051Y-2.343
X10.6209Y-6.2661
X10.6223Y-6.1591
X10.6259Y-2.7186
X10.6405Y-6.0068
X10.6412Y-4.4087
X10.6483Y-6.9376
X10.6511Y-6.2956
X10.66Y-4.8195
X10.7144Y-3.4316
X10.7248Y-4.1959
X10.7294Y-3.3745
X10.7504Y-2.5319
X10.7623Y-6.3296
X10.7944Y-3.44
X10.7991Y-3.6657
X10.8403Y-6.3805
X10.8431Y-5.4869
X10.8665Y-6.6979
X10.8881Y-6.3632
X10.9199Y-5.9212
X10.9314Y-6.2947
X10.9348Y-6.4381
X11.0765Y-6.4666
X11.1366Y-4.4071
X11.1676Y-6.5726
X11.172Y-4.9401
X11.2016Y-3.3851
X11.2069Y-5.5219
X11.2192Y-4.4773
X11.2337Y-5.8109
X11.2535Y-5.7142
X11.2726Y-4.9401
X11.322Y-2.5319
X11.3795Y-4.8657
X11.4315Y-7.0693
X11.4445Y-5.6166
X11.496Y-5.1549
X11.512Y-6.6712
X11.5779Y-5.9806
X11.6367Y-5.9017
X11.6807Y-5.378
X11.6928Y-3.6657
X11.7005Y-6.4381
X11.7261Y-3.4262
X11.7298Y-6.6712
X11.741Y-4.1851
X11.7778Y-4.483
X11.8241Y-4.4061
X11.8408Y-5.5285
X11.8522Y-3.4556
X11.855Y-5.7457
X11.8893Y-4.4002
X11.9082Y-5.5371
X11.9405Y-5.8346
X11.9425Y-5.8953
X11.9594Y-6.2506
X12.0422Y-2.4502
X12.057Y-6.3564
X12.0627Y-5.4376
X12.0692Y-6.7614
X12.1277Y-5.3457
X12.1396Y-3.3192
X12.1676Y-5.6873
X12.2076Y-5.6733
X12.2644Y-4.3954
X12.2747Y-4.9426
X12.2799Y-4.8531
X12.2841Y-4.282
X12.2936Y-4.1363
X12.3125Y-5.1451
X12.3316Y-5.5992
X12.3405Y-5.8943
X12.3495Y-5.4992
X12.3839Y-5.4425
X12.3924Y-5.0392
X12.4444Y-4.3176
X12.4516Y-2.1421
X12.4529Y-4.8853
X12.454Y-5.6002
X12.4559Y-4.7529
X12.4735Y-4.8424
X12.4819Y-4.9492
X12.5056Y-5.356
X12.5144Y-5.579
X12.55Y-5.0819
X12.5638Y-2.2509
X12.5638Y-2.4772
X12.6058Y-2.7386
X12.6314Y-5.7672
X12.6418Y-5.1867
X12.6496Y-4.9531
X12.6546Y-5.5837
X12.6559Y-2.2591
X12.6936Y-5.5288
X12.7304Y-5.2221
X12.7335Y-4.9703
X12.7339Y-2.2984
X12.7469Y-5.1395
X12.7508Y-5.1811
X12.7548Y-5.3532
X12.7662Y-5.0824
X12.7715Y-5.2909
X12.779Y-5.5292
X12.7829Y-2.3545
X12.8071Y-5.5969
X12.8128Y-5.057
X12.8445Y-4.8226
X12.848Y-2.2591
X12.8866Y-5.2185
X12.9186Y-5.3734
X12.9433Y-2.4768
X12.9472Y-2.2575
X12.9612Y-5.3283
X12.9871Y-2.5792
X12.99Y-5.095
X13.0118Y-2.1929
X13.0283Y-2.533
X13.03Y-4.8692
X13.0453Y-7.0693
X13.1833Y-2.596
X13.2118Y-4.2555
X13.2299Y-6.4205
X13.2467Y-3.6689
X13.2701Y-6.3218
X13.2749Y-5.2815
X13.2763Y-3.3851
X13.3094Y-2.7386
X13.3378Y-4.1077
X13.4099Y-5.8342
X13.4242Y-3.3851
X13.4315Y-5.3283
X13.453Y-5.7962
X13.4713Y-4.2923
X13.4929Y-6.7083
X13.4982Y-5.7663
X13.5001Y-4.3954
X13.5145Y-4.3427
X13.5586Y-4.1577
X13.5747Y-2.5867
X13.6015Y-6.401
X13.6088Y-5.0824
X13.6387Y-4.3141
X13.6391Y-4.1271
X13.7444Y-5.9451
X13.8404Y-2.471
X13.8527Y-4.3427
X13.8763Y-6.4317
X13.9201Y-5.8473
X13.9587Y-3.3851
X14.0449Y-3.8787
X14.0651Y-6.3218
X14.2191Y-6.4416
X14.2391Y-4.2968
X14.2429Y-2.5287
X14.2602Y-4.4663
X14.3602Y-4.511
X14.3886Y-6.6287
X14.3895Y-3.3725
X14.4579Y-6.572
X14.4583Y-6.9484
X14.4868Y-4.511
X14.5098Y-4.8296
X14.6178Y-4.1302
X14.6584Y-4.0446
X14.6656Y-6.3218
X14.673Y-4.4663
X14.6863Y-4.2499
X14.6916Y-4.9135
X14.6982Y-6.4416
X14.7383Y-4.1815
X14.8085Y-4.8842
X14.8577Y-4.1574
X14.8636Y-2.5306
X14.9685Y-6.024
T2
X14.9531Y-5.2496
X14.9531Y-5.289
X14.9531Y-5.3283
X14.9531Y-5.3677
X14.9531Y-5.4071
X14.9531Y-5.4465
T4
X1.4173Y-2.3661
X1.4173Y-2.6732
X1.4173Y-3.4911
X1.4173Y-3.7982
X1.5111Y-6.4911
X1.5111Y-6.7982
X1.6048Y-4.2411
X1.6048Y-4.5482
X1.6986Y-4.9911
X1.6986Y-5.2982
X1.8861Y-5.7411
X1.8861Y-6.0482
X2.1673Y-3.4911
X2.1673Y-3.7982
X2.4485Y-6.4911
X2.4485Y-6.7982
X2.5423Y-4.2411
X2.5423Y-4.5482
X2.7298Y-4.9911
X2.7298Y-5.2982
X2.9173Y-2.3661
X2.9173Y-2.6732
X2.9173Y-3.4911
X2.9173Y-3.7982
X3.1048Y-5.7411
X3.1048Y-6.0482
X3.2923Y-4.2411
X3.2923Y-4.5482
X3.3861Y-6.4911
X3.3861Y-6.7982
X3.4798Y-4.9911
X3.4798Y-5.2982
X3.6673Y-2.3661
X3.6673Y-2.6732
X3.6673Y-3.4911
X3.6673Y-3.7982
X3.8548Y-5.7411
X3.8548Y-6.0482
X4.0423Y-4.2411
X4.0423Y-4.5482
X4.2298Y-4.9911
X4.2298Y-5.2982
X4.4173Y-2.3661
X4.4173Y-2.6732
X4.4173Y-3.4911
X4.4173Y-3.7982
X4.6048Y-5.7411
X4.6048Y-6.0482
X4.7923Y-4.2411
X4.7923Y-4.5482
X4.9798Y-4.9911
X4.9798Y-5.2982
X5.1673Y-2.3661
X5.1673Y-2.6732
X5.1673Y-3.4911
X5.1673Y-3.7982
X5.3548Y-5.7411
X5.3548Y-6.0482
X5.5423Y-4.2411
X5.5423Y-4.5482
X5.7298Y-4.9911
X5.7298Y-5.2982
X5.9173Y-3.4911
X5.9173Y-3.7982
X6.1048Y-5.7411
X6.1048Y-6.0482
X6.1985Y-6.4911
X6.1985Y-6.7982
X6.2923Y-2.3661
X6.2923Y-2.6732
X6.2923Y-4.2411
X6.2923Y-4.5482
X6.4798Y-4.9911
X6.4798Y-5.2982
X6.6673Y-3.4911
X6.6673Y-3.7982
X6.8548Y-5.7411
X6.8548Y-6.0482
X7.0423Y-2.3661
X7.0423Y-2.6732
X7.0423Y-4.2372
X7.0423Y-4.5443
X7.2298Y-4.9911
X7.2298Y-5.2982
X7.4173Y-3.4911
X7.4173Y-3.7982
X7.6048Y-5.7411
X7.6048Y-6.0482
X7.7923Y-2.3661
X7.7923Y-2.6732
X7.7923Y-4.2411
X7.7923Y-4.5482
X7.9798Y-4.9911
X7.9798Y-5.2982
X8.1673Y-3.4911
X8.1673Y-3.7982
X8.3548Y-5.7411
X8.3548Y-6.0482
X8.5423Y-2.3661
X8.5423Y-2.6732
X8.5423Y-4.2411
X8.5423Y-4.5482
X8.7298Y-4.9911
X8.7298Y-5.2982
X8.9173Y-3.4911
X8.9173Y-3.7982
X9.0111Y-6.4911
X9.0111Y-6.7982
X9.1048Y-5.7411
X9.1048Y-6.0482
X9.2923Y-4.2411
X9.2923Y-4.5482
X9.4798Y-4.9911
X9.4798Y-5.2982
X9.6673Y-2.3661
X9.6673Y-2.6732
X9.6673Y-3.4911
X9.6673Y-3.7982
X9.8548Y-5.7411
X9.8548Y-6.0482
X9.9485Y-6.4911
X9.9485Y-6.7982
X10.0423Y-4.2411
X10.0423Y-4.5482
X10.2298Y-4.9911
X10.2298Y-5.2982
X10.4173Y-2.3661
X10.4173Y-2.6732
X10.4173Y-3.4911
X10.4173Y-3.7982
X10.7286Y-6.4911
X10.7286Y-6.7982
X10.7923Y-4.2411
X10.7923Y-4.5482
X11.1673Y-2.3661
X11.1673Y-2.6732
X11.1673Y-5.7411
X11.1673Y-6.0482
X11.4486Y-4.9911
X11.4486Y-5.2982
X11.5423Y-3.4911
X11.5423Y-3.7982
X11.5873Y-6.4911
X11.5873Y-6.7982
X11.7298Y-4.2411
X11.7298Y-4.5482
X11.9173Y-2.3661
X11.9173Y-2.6732
X13.0423Y-2.3661
X13.0423Y-2.6732
X13.0423Y-3.4911
X13.0423Y-3.7982
X13.0423Y-4.2411
X13.0423Y-4.5482
X13.0423Y-6.4911
X13.0423Y-6.7982
X13.7923Y-2.3661
X13.7923Y-2.6732
X13.7923Y-3.4911
X13.7923Y-3.7982
X13.7923Y-4.2411
X13.7923Y-4.5482
X13.7923Y-5.7411
X13.7923Y-6.0482
X13.7923Y-6.4911
X13.7923Y-6.7982
X14.5423Y-2.3661
X14.5423Y-2.6732
X14.5423Y-3.4911
X14.5423Y-3.7982
X14.5423Y-4.2411
X14.5423Y-4.5482
X14.5423Y-6.4911
X14.5423Y-6.7982
T3
G00X12.5321Y-2.0084
M15
G01X12.5321Y-1.9611
M16
G05
G00X12.5321Y-2.158
M15
G01X12.5321Y-2.1265
M16
G05
G00X12.9746Y-2.0084
M15
G01X12.9746Y-1.9611
M16
G05
G00X12.9746Y-2.158
M15
G01X12.9746Y-2.1265
M16
G05
T0
M30
