M48
; DRILL file {KiCad (6.0.1)} date Sun Mar  6 15:28:09 2022
; FORMAT={-:-/ absolute / inch / decimal}
; #@! TF.CreationDate,2022-03-06T15:28:09-08:00
; #@! TF.GenerationSoftware,Kicad,Pcbnew,(6.0.1)
; #@! TF.FileFunction,NonPlated,1,2,NPTH
FMAT,2
INCH
; #@! TA.AperFunction,NonPlated,NPTH,ComponentDrill
T1C0.1181
; #@! TA.AperFunction,NonPlated,NPTH,ComponentDrill
T2C0.1570
%
G90
G05
T1
X1.5875Y-2.825
X1.5875Y-3.95
X1.6812Y-6.95
X1.775Y-4.7
X1.8375Y-2.725
X1.8375Y-3.85
X1.8687Y-5.45
X1.9312Y-6.85
X2.025Y-4.6
X2.0563Y-6.2
X2.1187Y-5.35
X2.3063Y-6.1
X2.3375Y-3.95
X2.5875Y-3.85
X2.6187Y-6.95
X2.7125Y-4.7
X2.8687Y-6.85
X2.9Y-5.45
X2.9625Y-4.6
X3.0875Y-2.825
X3.0875Y-3.95
X3.15Y-5.35
X3.275Y-6.2
X3.3375Y-2.725
X3.3375Y-3.85
X3.4625Y-4.7
X3.525Y-6.1
X3.5562Y-6.95
X3.65Y-5.45
X3.7125Y-4.6
X3.8062Y-6.85
X3.8375Y-2.825
X3.8375Y-3.95
X3.9Y-5.35
X4.025Y-6.2
X4.0875Y-2.725
X4.0875Y-3.85
X4.2125Y-4.7
X4.275Y-6.1
X4.4Y-5.45
X4.4625Y-4.6
X4.5875Y-2.825
X4.5875Y-3.95
X4.65Y-5.35
X4.775Y-6.2
X4.8375Y-2.725
X4.8375Y-3.85
X4.9625Y-4.7
X5.025Y-6.1
X5.15Y-5.45
X5.2125Y-4.6
X5.3375Y-2.825
X5.3375Y-3.95
X5.4Y-5.35
X5.525Y-6.2
X5.5875Y-2.725
X5.5875Y-3.85
X5.7125Y-4.7
X5.775Y-6.1
X5.9Y-5.45
X5.9625Y-4.6
X6.0875Y-3.95
X6.15Y-5.35
X6.275Y-6.2
X6.3375Y-3.85
X6.3687Y-6.95
X6.4625Y-2.825
X6.4625Y-4.7
X6.525Y-6.1
X6.6187Y-6.85
X6.65Y-5.45
X6.7125Y-2.725
X6.7125Y-4.6
X6.8375Y-3.95
X6.9Y-5.35
X7.025Y-6.2
X7.0875Y-3.85
X7.2125Y-2.825
X7.2125Y-4.7
X7.275Y-6.1
X7.4Y-5.45
X7.4625Y-2.725
X7.4625Y-4.6
X7.5875Y-3.95
X7.65Y-5.35
X7.775Y-6.2
X7.8375Y-3.85
X7.9625Y-2.825
X7.9625Y-4.7
X8.025Y-6.1
X8.15Y-5.45
X8.2125Y-2.725
X8.2125Y-4.6
X8.3375Y-3.95
X8.4Y-5.35
X8.525Y-6.2
X8.5875Y-3.85
X8.7125Y-2.825
X8.7125Y-4.7
X8.775Y-6.1
X8.9Y-5.45
X8.9625Y-2.725
X8.9625Y-4.6
X9.0875Y-3.95
X9.15Y-5.35
X9.1812Y-6.95
X9.275Y-6.2
X9.3375Y-3.85
X9.4312Y-6.85
X9.4625Y-4.7
X9.525Y-6.1
X9.65Y-5.45
X9.7125Y-4.6
X9.8375Y-2.825
X9.8375Y-3.95
X9.9Y-5.35
X10.025Y-6.2
X10.0875Y-2.725
X10.0875Y-3.85
X10.1187Y-6.95
X10.2125Y-4.7
X10.275Y-6.1
X10.3687Y-6.85
X10.4Y-5.45
X10.4625Y-4.6
X10.5875Y-2.825
X10.5875Y-3.95
X10.65Y-5.35
X10.8375Y-2.725
X10.8375Y-3.85
X10.8987Y-6.95
X10.9625Y-4.7
X11.1487Y-6.85
X11.2125Y-4.6
X11.3375Y-2.825
X11.3375Y-6.2
X11.5875Y-2.725
X11.5875Y-6.1
X11.6187Y-5.45
X11.7125Y-3.95
X11.7575Y-6.95
X11.8687Y-5.35
X11.9Y-4.7
X11.9625Y-3.85
X12.0075Y-6.85
X12.0875Y-2.825
X12.15Y-4.6
X12.3375Y-2.725
X13.2125Y-2.825
X13.2125Y-3.95
X13.2125Y-4.7
X13.2125Y-6.95
X13.4625Y-2.725
X13.4625Y-3.85
X13.4625Y-4.6
X13.4625Y-6.85
X13.9625Y-2.825
X13.9625Y-3.95
X13.9625Y-4.7
X13.9625Y-6.2
X13.9625Y-6.95
X14.2125Y-2.725
X14.2125Y-3.85
X14.2125Y-4.6
X14.2125Y-6.1
X14.2125Y-6.85
X14.7125Y-2.825
X14.7125Y-3.95
X14.7125Y-4.7
X14.7125Y-6.95
X14.9625Y-2.725
X14.9625Y-3.85
X14.9625Y-4.6
X14.9625Y-6.85
T2
X1.6875Y-2.625
X1.6875Y-3.75
X1.7812Y-6.75
X1.875Y-4.5
X1.9687Y-5.25
X2.1563Y-6.0
X2.4375Y-3.75
X2.7187Y-6.75
X2.8125Y-4.5
X3.0Y-5.25
X3.1875Y-2.625
X3.1875Y-3.75
X3.375Y-6.0
X3.5625Y-4.5
X3.6562Y-6.75
X3.75Y-5.25
X3.9375Y-2.625
X3.9375Y-3.75
X4.125Y-6.0
X4.3125Y-4.5
X4.5Y-5.25
X4.6875Y-2.625
X4.6875Y-3.75
X4.875Y-6.0
X5.0625Y-4.5
X5.25Y-5.25
X5.4375Y-2.625
X5.4375Y-3.75
X5.625Y-6.0
X5.8125Y-4.5
X6.0Y-5.25
X6.1875Y-3.75
X6.375Y-6.0
X6.4687Y-6.75
X6.5625Y-2.625
X6.5625Y-4.5
X6.75Y-5.25
X6.9375Y-3.75
X7.125Y-6.0
X7.3125Y-2.625
X7.3125Y-4.5
X7.5Y-5.25
X7.6875Y-3.75
X7.875Y-6.0
X8.0625Y-2.625
X8.0625Y-4.5
X8.25Y-5.25
X8.4375Y-3.75
X8.625Y-6.0
X8.8125Y-2.625
X8.8125Y-4.5
X9.0Y-5.25
X9.1875Y-3.75
X9.2812Y-6.75
X9.375Y-6.0
X9.5625Y-4.5
X9.75Y-5.25
X9.9375Y-2.625
X9.9375Y-3.75
X10.125Y-6.0
X10.2187Y-6.75
X10.3125Y-4.5
X10.5Y-5.25
X10.6875Y-2.625
X10.6875Y-3.75
X10.9987Y-6.75
X11.0625Y-4.5
X11.4375Y-2.625
X11.4375Y-6.0
X11.7187Y-5.25
X11.8125Y-3.75
X11.8575Y-6.75
X12.0Y-4.5
X12.1875Y-2.625
X13.3125Y-2.625
X13.3125Y-3.75
X13.3125Y-4.5
X13.3125Y-6.75
X14.0625Y-2.625
X14.0625Y-3.75
X14.0625Y-4.5
X14.0625Y-6.0
X14.0625Y-6.75
X14.8125Y-2.625
X14.8125Y-3.75
X14.8125Y-4.5
X14.8125Y-6.75
T0
M30
